<?xml version="1.0" encoding="utf-8"?>
<!-- Generator: Adobe Illustrator 24.1.2, SVG Export Plug-In . SVG Version: 6.00 Build 0)  -->
<svg version="1.1" id="レイヤー_1" xmlns="http://www.w3.org/2000/svg" xmlns:xlink="http://www.w3.org/1999/xlink" x="0px"
	 y="0px" viewBox="0 0 587.9 1055.3" style="enable-background:new 0 0 587.9 1055.3;" xml:space="preserve">
<style type="text/css">
	.st0{fill-rule:evenodd;clip-rule:evenodd;fill:#363C44;}
	.st1{fill:#363C44;}
	.st2{fill:#6A14DB;}
	.st3{fill:#33110D;}
</style>
<path d="M109.3,371.8v146.5l197-28.1v-89.4L109.3,371.8z M174.1,457c-0.6,9.7-9.8,12.1-17.9,12s-12.8-2.2-15.2-3.7v-6.4
	c1,0.9,10.5,5,15.2,5.1s11.3-1.9,11.5-7.4c0-5.7-9.7-9.5-17.8-10.9c-6.3-1.4-9.4-7-9.4-12.6c0-5.6,5.2-11.7,15.9-12.1
	c5.5-0.4,10.9,1.1,15.4,4.2v6c-4.3-3-9.5-4.6-14.7-4.6c-7.5,0-10,3.2-10.1,6.4c-0.1,2.8-0.4,6.9,11.7,9.1
	C165.6,443.3,174.7,447.3,174.1,457z M228.9,449.8c0.1,5.6-2.4,11-6.7,14.6c-7.4,6.3-18.4,5.8-25.1-1.3c-3.5-3.6-5.4-8.5-5.3-13.5
	v-28.5h6.8v28.6c-0.1,5.2,3.1,9.8,7.9,11.7c1.3,0.5,2.7,0.7,4.2,0.8h0.6c6.5-0.3,11.6-5.7,11.5-12.2v-28.8h6.1V449.8z M254.2,468.4
	h-6v-46.9h6V468.4z M284.9,468.4h-8.1l-19-23.5l19.5-23.5h7.6L265.4,445L284.9,468.4z"/>
<path d="M314.3,400.3v88.6l155,29.3V371.8L314.3,400.3z M382.4,468.5h-5.8v-37.7l-16.4,19l-16.1-18.9v37.6h-6v-46.9h6l16.1,18.7
	l15.8-18.7h6.4L382.4,468.5z M435.3,468.5l-4.2-10.2l-17.2,0.1l2.3-5.9h12.5l-8.7-22.6l-15.7,38.6h-6.4l18.8-46.9h6l19.5,46.9H435.3
	z"/>
<path class="st0" d="M399.3,1055.3h-220v-240h140v80h80V1055.3z M239.3,1005.3h-30v40h30V1005.3z M289.3,1005.3h-30v40h30V1005.3z
	 M369.3,1005.3h-30v40h30V1005.3z M219.3,955.3h-20v20h20V955.3z M299.3,955.3h-20v20h20V955.3z M259.3,955.3h-20v20h20V955.3z
	 M349.3,955.3h-20v20h20V955.3z M379.3,955.3h-20v20h20V955.3z M219.3,915.3h-20v20h20V915.3z M299.3,915.3h-20v20h20V915.3z
	 M259.3,915.3h-20v20h20V915.3z M349.3,915.3h-20v20h20V915.3z M379.3,915.3h-20v20h20V915.3z M219.3,875.3h-20v20h20V875.3z
	 M299.3,875.3h-20v20h20V875.3z M259.3,875.3h-20v20h20V875.3z M219.3,835.3h-20v20h20V835.3z M299.3,835.3h-20v20h20V835.3z
	 M259.3,835.3h-20v20h20V835.3z"/>
<path class="st1" d="M344.3,110h-110v-5.7c0-11.5,0.9-18.2,14.6-21.4c15.4-3.6,30.6-6.8,23.3-20.2C250.5,22.7,266,0,289.3,0
	c22.8,0,38.7,21.8,17.1,62.7c-7.1,13.4,7.6,16.6,23.3,20.3c13.7,3.1,14.6,9.8,14.6,21.4V110z M388.4,89.7
	c-11.8-2.7-22.8-5.1-17.5-15.2c16.2-30.6,4.3-47-12.8-47c-11.6,0-20.6,7.5-20.6,21.3c0,35.8,20.8,16.2,20.6,61.2h41.2v-4.2
	C399.3,97.1,398.6,92.1,388.4,89.7L388.4,89.7z M179.3,110h41.3c-0.2-45,20.6-25.4,20.6-61.2c0-13.8-9-21.3-20.6-21.3
	c-17.1,0-29.1,16.4-12.8,47C213,84.6,202,87,190.2,89.7c-10.3,2.4-10.9,7.4-10.9,16.1V110z"/>
<g>
	<path d="M375.3,221.3v23.5h-2.5v-1.9h-22v-2.3h21.9v-16.9h-21.4v-2.3L375.3,221.3z"/>
	<path d="M386.9,238.7c7.5,0.8,14.9,2.5,22,5l-1,2.4c-7-2.6-14.4-4.3-21.8-5.1L386.9,238.7z M389.6,228.1c5.7,0.6,11.3,1.6,16.8,3.2
		l-0.8,2.4c-5.4-1.6-11-2.7-16.7-3.3L389.6,228.1z M389.8,217.4c6.2,0.6,12.3,1.8,18.2,3.7l-1,2.4c-5.9-1.9-11.9-3.2-18.1-3.8
		L389.8,217.4z"/>
	<path d="M444.6,242v2H421v-2h14.1c0.6-3.5,1.5-10.4,1.8-13.9h-13.2v-2h13.9l0.4-0.1l1.7,0.8c-0.1,0.2-0.2,0.3-0.4,0.3
		c-0.4,3.6-1.6,11.2-2,14.9L444.6,242z"/>
	<path d="M481.7,240.5v2.4h-28.6v-2.4H481.7z M478.3,221.5v2.4h-21.5v-2.4H478.3z"/>
	<path d="M516.3,230.1h-11.7l0.6,0.2c-0.1,0.3-0.4,0.4-0.7,0.4c-0.9,6.5-3.3,12.3-10.7,15.9c-0.6-0.6-1.2-1.2-1.9-1.7
		c7.2-3.5,9.2-8.3,10-14.7h-13.5v-2.3h27.9V230.1z M512.9,220.3h-21.4V218h21.3L512.9,220.3z"/>
	<path d="M547.4,224.6c-0.1,0.2-0.4,0.3-0.6,0.2c-0.2,0-0.3,0-0.5,0c-2.4,2.3-4.9,4.5-7.6,6.4c0.5,0.2,0.7,0.2,0.8,0.3
		c-0.1,0.2-0.4,0.3-0.6,0.4V247h-2v-14.5c-3.6,2.5-7.4,4.7-11.4,6.6c-0.4-0.6-0.8-1.1-1.2-1.6C532,234,539,229,545,222.9
		L547.4,224.6z"/>
	<path d="M561,247.7v-20c-1.4,2.1-2.9,4.2-4.7,6c-0.4-0.8-0.8-1.5-1.3-2.2c4.2-4.6,7.4-9.9,9.5-15.7l2.8,1c-0.2,0.3-0.5,0.4-0.8,0.3
		c-1,2.5-2.2,5-3.5,7.3l1,0.3c0,0.2-0.2,0.4-0.7,0.5v22.7H561z M573.6,242.5c0,2,0.4,2.4,2.4,2.4h7.3c2,0,2.3-1.3,2.5-6.5
		c0.6,0.5,1.4,0.9,2.1,1.1c-0.4,5.7-1.1,7.7-4.7,7.7h-7.4c-3.6,0-4.6-1-4.6-4.7v-26.2l3,0.2c0,0.2-0.2,0.4-0.7,0.5v12.9
		c3.9-2.1,7.6-4.6,10.9-7.6l1.9,2.2c-0.2,0.1-0.4,0.2-0.7,0.1c-3.8,2.9-7.9,5.5-12.2,7.6V242.5z"/>
</g>
<g>
	<path d="M30.4,270.2H16c-0.3,1.3-0.8,3-1.3,4.5h14v22.5h-2.2v-1.8H3.9v1.8H1.8v-22.5h10.7c0.4-1.4,0.8-3.1,1.1-4.6H0V268h30.4
		V270.2z M3.9,276.9v16.4h5.7v-16.4H3.9z M18.4,280.9v-4h-6.6v4H18.4z M18.4,286.9v-4.2h-6.6v4.4L18.4,286.9z M11.7,288.9v4.3h6.7
		v-4.3H11.7z M26.6,293.3v-16.3h-6v16.4L26.6,293.3z"/>
	<path d="M44.8,283l-4.3,1.3v10.1c0,2.7-1.3,2.8-5.9,2.8c-0.1-0.8-0.4-1.5-0.7-2.2c0.7,0,1.4,0,2,0c2.4,0,2.4,0,2.4-0.7v-9.4l-4,1.1
		c0,0.3-0.2,0.4-0.4,0.5l-0.8-2.6l5.2-1.3v-7.8h-4.7v-2.1h4.8v-7.1l2.8,0.2c0,0.3-0.2,0.4-0.7,0.5v6.5h4.2v2.1h-4.2v7.2
		c1.3-0.3,2.7-0.7,4-1.1L44.8,283z M65,280.3H54.3c0,0.2-0.3,0.3-0.7,0.3c-0.4,1-1,2.1-1.5,3.3h12.7v2h-4.2
		c-0.6,2.4-1.8,4.5-3.6,6.2c2.4,0.9,4.6,2.1,6.8,3.5l-1.5,1.8c-2.2-1.5-4.6-2.8-7.1-3.8c-3.4,2-7.3,3.2-11.2,3.5
		c-0.2-0.7-0.6-1.3-1-1.9c3.4-0.2,6.8-1.1,9.9-2.6c-1.5-0.6-2.9-1.1-4.3-1.5L48,292l-2-0.7c0.8-1.5,1.8-3.4,2.7-5.5h-4.8v-2h5.8
		c0.6-1.3,1.1-2.5,1.6-3.6h-7.8v-2H65L65,280.3z M63.6,269.5v2H45.1v-2h7.9v-3.8l3,0.2c0,0.2-0.2,0.4-0.6,0.5v3.2H63.6z M50.2,271.9
		c0.7,1.8,1.1,3.7,1.4,5.6l-2.1,0.5c-0.2-1.9-0.6-3.8-1.2-5.7L50.2,271.9z M51.1,285.9c-0.6,1.2-1.2,2.4-1.8,3.6
		c1.7,0.5,3.6,1.1,5.4,1.8c1.6-1.4,2.8-3.3,3.4-5.4H51.1z M61.1,272.3c0,0.2-0.3,0.3-0.7,0.4c-0.6,1.9-1.4,3.8-2.2,5.6l-2-0.5
		c0.8-2,1.5-4,2-6L61.1,272.3z"/>
	<path d="M86.7,281.5c0,1.9-1.6,3.5-3.5,3.5c-1.9,0-3.5-1.6-3.5-3.5s1.6-3.5,3.5-3.5C85.2,277.9,86.7,279.5,86.7,281.5
		C86.7,281.4,86.7,281.4,86.7,281.5z"/>
	<path d="M119.2,265.7c-0.1,0.3-0.4,0.5-0.7,0.5c3.9,5.4,9,9.8,14.8,13c-0.6,0.6-1.1,1.3-1.5,2c-5.8-3.4-10.8-7.9-14.7-13.3
		c-3.8,5.5-8.7,10.1-14.4,13.5c-0.4-0.6-0.9-1.2-1.4-1.7c5.9-3.5,11-8.3,14.6-14.2L119.2,265.7z M118.7,285.1v8.9h13.4v2.1h-29.5
		v-2.1h4.5v-13l2.9,0.2c0,0.2-0.2,0.4-0.7,0.5v12.3h6.9v-19.2l3.1,0.2c0,0.2-0.2,0.4-0.7,0.5v7.6h10v2H118.7z"/>
	<path d="M166.4,289h-11.8c3.7,2.8,8,4.8,12.6,5.8c-0.6,0.6-1.1,1.3-1.5,2c-4.9-1.4-9.5-3.9-13.3-7.3v7.8h-2.2v-7.6
		c-3.8,3.3-8.3,5.7-13.2,7c-0.4-0.7-0.9-1.4-1.5-2c4.5-1,8.8-3,12.5-5.7h-11.6v-2h13.9v-2.7h-10.6v-1.8h10.6v-2.7h-12.3v-1.9h7.8
		c-0.5-1.3-1.1-2.5-1.8-3.6l1.3-0.3h-8.7v-2h5.7c-0.7-1.8-1.7-3.6-2.8-5.2l2-0.7c1.3,1.6,2.3,3.3,3,5.2l-1.8,0.7h4.5v-6.3l2.9,0.2
		c0,0.3-0.3,0.5-0.7,0.6v5.5h4.4v-6.3l3,0.2c0,0.3-0.3,0.5-0.8,0.6v5.5h4.3l-1.3-0.5c1.1-1.7,2-3.5,2.8-5.3l2.6,1.1
		c0,0.2-0.3,0.3-0.7,0.3c-0.8,1.6-1.7,3.1-2.7,4.6h5.5v2h-7.6l1,0.3c-0.1,0.3-0.4,0.4-0.7,0.3c-0.6,1.1-1.3,2.2-2,3.3h8v1.9h-12.5
		v2.7h10.9v1.8h-10.9v2.7h14L166.4,289z M154.7,277.6c0.7-1.2,1.4-2.4,1.9-3.7h-10.5c0.8,1.1,1.4,2.3,1.9,3.6l-1.1,0.2h8.4
		L154.7,277.6z"/>
	<path d="M180.2,280.8c-0.6-1.2-1.4-2.3-2.1-3.4l1.7-0.8c1.6,2.1,3,4.4,4,6.9l-1.8,0.9c-0.2-0.6-0.5-1.3-0.8-1.9l-3.7,0.2v14.6h-2
		v-14.5l-5.1,0.2c0,0.3-0.2,0.4-0.5,0.4l-0.6-2.6h2.5c0.7-0.9,1.6-1.9,2.3-3c-1.3-1.8-2.8-3.5-4.5-4.9l1.2-1.5
		c0.3,0.3,0.7,0.6,1,0.9c1.3-2.2,2.4-4.4,3.4-6.7l2.5,1.1c-0.1,0.2-0.3,0.3-0.7,0.3c-1.1,2.3-2.4,4.5-3.8,6.7
		c0.8,0.8,1.5,1.6,2.2,2.5c1.5-2.1,2.8-4.4,4-6.7l2.4,1.1c-0.2,0.2-0.5,0.3-0.8,0.3c-2.1,3.4-4.5,6.8-7,9.9L180.2,280.8z
		 M173.9,285.9c0,0.2-0.3,0.3-0.6,0.3c-0.4,2.8-1.2,5.6-2.3,8.2c-0.5-0.3-1.1-0.6-1.7-0.9c1.1-2.6,1.8-5.4,2.2-8.3L173.9,285.9z
		 M181.2,292.5c-0.5-2.3-1.2-4.6-2.2-6.8l1.8-0.6c1,2.1,1.8,4.4,2.4,6.7L181.2,292.5z M199.2,267.4l1.1,0.1c0,0.2,0,0.5,0,0.7
		c-0.3,7.9-0.6,10.6-1.4,11.6c-0.8,1-1.1,0.9-3.5,0.9h-2.3c-0.1-0.7-0.3-1.4-0.7-2c1.5,0.1,3,0.2,3.5,0.2c0.4,0,0.8-0.1,1.1-0.3
		c0.5-0.6,0.8-2.9,1-8.9h-6.9c-0.7,4.7-2,9.4-6.9,12c-0.4-0.6-0.9-1.2-1.4-1.6c4.2-2.1,5.5-6,6-10.4h-5.4v-2.1L199.2,267.4z
		 M184.5,297.3v-13.7h15v13.6h-2.2v-1.3h-10.7v1.5L184.5,297.3z M197.3,285.7h-10.7v8h10.7V285.7z"/>
	<path d="M204.9,281.3c-0.4-0.6-0.9-1.3-1.4-1.8c6-3.3,11.1-8.1,14.5-14c0.4,0,0.8,0,3.4,0.2c-0.1,0.3-0.4,0.5-0.7,0.5
		c3.7,5.4,8.8,9.8,14.7,12.8c-0.6,0.6-1.1,1.3-1.5,2c-5.8-3.2-10.8-7.6-14.6-13C215.6,273.4,210.7,278,204.9,281.3z M211.9,277.8
		c1.7,0.1,2.4,0.2,3,0.2c0,0.2-0.2,0.4-0.7,0.5v4.3c0,4.9-0.7,10.5-7.7,14.5c-0.5-0.6-1.1-1.2-1.8-1.6c4.8-2.4,7.7-7.6,7.2-12.9
		L211.9,277.8z M224.3,277.7l3,0.2c0,0.2-0.2,0.4-0.7,0.5v18.8h-2.3L224.3,277.7z"/>
</g>
<g>
	<path d="M382.6,630.3h-7.7c2,3.8,4.9,7,8.5,9.2c-0.6,0.5-1.1,1.1-1.6,1.8c-3.5-2.6-6.4-5.9-8.5-9.7v11.3h-2.2v-11.2
		c-2.1,4-5.3,7.4-9.2,9.8c-0.5-0.7-1-1.3-1.6-1.8c3.9-2.1,7.1-5.3,9.2-9.2h-7v-1.8l-4.3,1.3v10.3c0,2.7-1.3,2.9-5.9,2.9
		c-0.1-0.8-0.4-1.5-0.7-2.2c0.7,0,1.4,0,2,0c2.4,0,2.4,0,2.4-0.7v-9.5l-3.9,1.2c0,0.3-0.2,0.5-0.5,0.5l-0.9-2.7
		c1.5-0.3,3.3-0.8,5.2-1.4v-7.7h-4.9v-2.2h4.9v-7.2l2.9,0.2c0,0.3-0.2,0.4-0.7,0.5v6.5h4v2.2h-4v7.1c1.4-0.4,2.8-0.8,4.2-1.2
		l0.2,1.8h8.5v-3.9l2.8,0.2c0,0.2-0.2,0.4-0.6,0.5v3.3h9.2L382.6,630.3z M381.3,613c0,0-0.1,0-0.7,0c-5.8,1.6-11.8,2.6-17.8,3
		c-0.1-0.7-0.3-1.3-0.6-1.9c5.8-0.4,11.6-1.4,17.2-3L381.3,613z M365,617.3c1.2,2,2.1,4.1,2.7,6.4l-2,0.6c-0.6-2.3-1.4-4.5-2.5-6.5
		L365,617.3z M371.7,616.4c0.9,2.1,1.6,4.3,1.8,6.5l-2,0.4c-0.3-2.3-0.8-4.5-1.7-6.6L371.7,616.4z M382.5,617
		c-0.2,0.2-0.4,0.3-0.7,0.3c-1.3,2.8-2.8,5.5-4.5,8.1l-1.7-0.8c1.7-2.8,3.2-5.7,4.4-8.7L382.5,617z"/>
	<path d="M414.5,613.5v26c0,3.1-1.5,3.2-8,3.1c-0.2-0.8-0.5-1.5-0.8-2.2h3.5c2.8,0,3,0,3-0.9v-7.4h-9.9v10.4h-2.2v-10.4h-9
		c-0.3,4-1.9,7.8-4.4,10.9c-0.5-0.6-1.1-1.1-1.7-1.5c3.8-4.3,4.2-10.5,4.2-15.4v-12.6L414.5,613.5z M391.4,626.2
		c0,1.2,0,2.5-0.1,3.8h8.8v-6.1h-8.7L391.4,626.2z M400.1,615.7h-8.7v6.1h8.7V615.7z M412.2,621.8v-6.1h-9.9v6.1H412.2z
		 M402.4,629.9h9.9v-6.1h-9.9V629.9z"/>
	<path d="M445.4,624.3l1.7,1c-0.1,0.2-0.3,0.3-0.5,0.3c-1.9,4.4-5.1,8.2-9.1,10.9c4.3,2.3,9,3.7,13.8,4.3c-0.6,0.7-1.1,1.4-1.5,2.2
		c-5.2-0.7-10.1-2.4-14.6-5.1c-4.5,2.4-9.5,4.1-14.6,5c-0.3-0.8-0.7-1.5-1.3-2.2c4.8-0.7,9.4-2.1,13.8-4.2c-3.2-2.4-5.8-5.5-7.5-9.1
		l2-0.7h-5.4v-2.3h11.9v-5.6h-13.7v-2.2h13.7v-5.5l3,0.2c0,0.2-0.2,0.4-0.7,0.5v4.8h13.9v2.3h-13.9v5.6h8.4L445.4,624.3z
		 M427.9,626.7c1.7,3.5,4.3,6.4,7.6,8.6c3.4-2.1,6.2-5,8.1-8.6H427.9z"/>
	<path d="M464.1,628.5l-3.1,1.1v10.5c0,2.7-1.3,2.9-5.9,2.9c-0.1-0.8-0.4-1.5-0.7-2.2c0.7,0,1.4,0,2,0c2.4,0,2.4,0,2.4-0.7v-9.6
		l-3.9,1.4c0,0.2-0.2,0.4-0.4,0.5l-0.9-2.6l5.2-1.6v-7.7h-4.9v-2.2h4.9V611l2.9,0.2c0,0.3-0.2,0.4-0.7,0.5v6.5h3.9v2.2H461v7
		l2.8-0.9L464.1,628.5z M481.3,630.5l1.3,0.6c0,0.2-0.1,0.3-0.3,0.3c-0.9,2.6-2.4,5-4.4,6.9c2.4,1.3,5.1,2.1,7.8,2.5
		c-0.6,0.6-1,1.3-1.4,2c-2.8-0.6-5.6-1.6-8.1-3.1c-2.2,1.5-4.6,2.5-7.1,3.1c-0.3-0.6-0.8-1.2-1.3-1.7c2.3-0.5,4.6-1.4,6.6-2.6
		c-1.8-1.3-3.3-2.9-4.4-4.8l1.8-0.6c1.1,1.7,2.5,3.1,4.2,4.3c1.6-1.3,2.9-3,3.7-4.9h-9.5c-1,3.9-3.1,7.5-6.1,10.3
		c-0.5-0.5-1.1-0.9-1.7-1.3c3.4-2.9,5.5-7.7,6.7-13.6h-4.6v-2h5c0.2-1,0.3-2,0.4-3h-5v-2h13l-0.4-0.2c1.3-1.9,2.5-3.9,3.4-6.1
		l2.5,0.9c0,0.2-0.3,0.3-0.7,0.3c-0.9,1.7-2,3.3-3.1,4.9h3.9v2h-11.3c-0.1,1-0.3,2-0.4,3h13.4v2h-13.8c-0.2,0.9-0.4,1.9-0.6,2.8
		h10.1L481.3,630.5z M483.5,612.9c-0.1,0-0.2,0-0.3,0c-0.1,0-0.2,0-0.3,0c-5.9,1.1-12,1.8-18,2c-0.1-0.6-0.3-1.2-0.5-1.8
		c5.9-0.2,11.8-0.9,17.6-2L483.5,612.9z M468,615.4c0.8,1.4,1.4,2.9,1.8,4.5l-1.9,0.6c-0.4-1.6-0.9-3.1-1.7-4.6L468,615.4z
		 M474.4,614.9c0.6,1.5,0.9,3.1,1.1,4.7l-2,0.4c-0.2-1.6-0.5-3.2-1-4.7L474.4,614.9z"/>
</g>
<g>
	<path d="M165,707.9c-3.5,0.6-7,0.8-10.5,0.8c-2.2,0-4.4-0.1-6.6-0.4c-4-0.9-5.9-3.5-5.9-6.5c0.2-2.8,1.4-5.4,3.5-7.3l2,1
		c-1.7,1.6-2.8,3.7-3,6c0,2,1.3,3.8,4.3,4.5c1.8,0.3,3.6,0.4,5.5,0.4c3.6,0,7.1-0.3,10.6-0.9L165,707.9z M149.7,690.7
		c1.9-1.5,3.9-2.9,6-4l0,0c-2.6,0.3-8.5,0.4-12.3,0.4c0-0.6,0-1.8,0-2.4h1.8c5.9,0.2,11.8-0.2,17.6-1.1l0.3,2.5
		c-1.2,0.2-2.4,0.5-3.6,1c-2.8,1.3-5.5,2.9-7.9,4.8L149.7,690.7z M164.9,695.5c-1.3-1.8-2.8-3.3-4.6-4.6l1.1-1.1
		c1.8,1.3,3.3,2.9,4.7,4.6L164.9,695.5z M168.5,692.3c-1.3-1.7-2.9-3.3-4.6-4.6l1.1-1.1c1.8,1.3,3.3,2.9,4.7,4.6L168.5,692.3z"/>
	<path d="M188.1,681.3c-0.2,0.2-0.4,0.2-0.6,0.1c-1.8,0.9-3.7,1.5-5.6,2v6.6h6.8v2.2h-6.8v2.6c1.6,1.2,5.5,4.6,6.6,5.5l-1.3,1.9
		c-1-1.1-3.4-3.4-5.2-5v14.1h-2.2v-15.5c-1.6,3.9-3.8,7.4-6.5,10.6c-0.3-0.8-0.8-1.5-1.3-2.2c3.2-3.5,5.6-7.6,7.3-12.1h-6.7v-2.2
		h7.2v-6c-2.2,0.5-4.5,0.9-6.7,1.3c-0.2-0.6-0.4-1.2-0.7-1.8c4.8-0.6,9.4-2,13.8-4L188.1,681.3z M191.3,683.8l2.9,0.2
		c0,0.2-0.2,0.4-0.6,0.5v18.5h-2.3V683.8z M199.8,680.3l2.9,0.2c0,0.3-0.2,0.4-0.7,0.5v27.3c0,1.7-0.5,2.4-1.5,2.7
		c-2,0.4-4.1,0.6-6.2,0.4c-0.2-0.8-0.5-1.6-0.9-2.3c1.3,0,2.4,0,3.4,0c2.7,0,2.9,0,2.9-0.9V680.3z"/>
	<path d="M235.4,682.1v26c0,3.1-1.5,3.2-8.1,3.1c-0.2-0.8-0.4-1.5-0.8-2.2h3.5c2.8,0,3,0,3-0.9v-7.4h-9.8V711H221v-10.4h-9
		c-0.3,4-1.9,7.8-4.4,10.9c-0.5-0.6-1.1-1.1-1.8-1.5c3.8-4.3,4.2-10.5,4.2-15.3v-12.5H235.4z M212.4,694.7c0,1.2,0,2.5-0.1,3.8h8.8
		v-6h-8.6L212.4,694.7z M221,684.3h-8.6v6h8.6V684.3z M233.1,690.3v-6h-9.8v6H233.1z M223.3,698.4h9.8v-6h-9.8V698.4z"/>
</g>
<path class="st2" d="M241.7,211.3h21.5v132c0,2.2,1.8,4,4,4h16c2.2,0,4-1.8,4-4v-188l-47,52.7c-0.7,0.8-0.7,2.1,0.1,2.8c0,0,0,0,0,0
	C240.8,211.2,241.2,211.3,241.7,211.3z"/>
<path class="st3" d="M336.8,291.3h-21.5v-132c0-2.2-1.8-4-4-4h-16c-2.2,0-4,1.8-4,4v188l47-52.7c0.7-0.8,0.7-2.1-0.2-2.8
	C337.7,291.5,337.3,291.3,336.8,291.3z"/>
<path class="st2" d="M241.7,620.3h21.5v132c0,2.2,1.8,4,4,4h16c2.2,0,4-1.8,4-4v-188l-47,52.7c-0.7,0.8-0.7,2.1,0.1,2.8c0,0,0,0,0,0
	C240.8,620.2,241.2,620.3,241.7,620.3z"/>
<path class="st3" d="M336.8,700.3h-21.5v-132c0-2.2-1.8-4-4-4h-16c-2.2,0-4,1.8-4,4v188l47-52.7c0.7-0.8,0.7-2.1-0.2-2.8
	C337.7,700.5,337.3,700.3,336.8,700.3z"/>
</svg>
