<?xml version="1.0" encoding="utf-8"?>
<!-- Generator: Adobe Illustrator 24.1.2, SVG Export Plug-In . SVG Version: 6.00 Build 0)  -->
<svg version="1.1" id="レイヤー_1" xmlns="http://www.w3.org/2000/svg" xmlns:xlink="http://www.w3.org/1999/xlink" x="0px"
	 y="0px" viewBox="0 0 1440 240" style="enable-background:new 0 0 1440 240;" xml:space="preserve">
<style type="text/css">
	.st0{fill-rule:evenodd;clip-rule:evenodd;fill:#363C44;}
	.st1{fill:#363C44;}
	.st2{fill:#6A14DB;}
	.st3{fill:#33110D;}
</style>
<path d="M540,46.8v146.5l197-28.1V75.7L540,46.8z M604.8,132c-0.6,9.7-9.8,12.1-18,12s-12.8-2.2-15.2-3.7v-6.4
	c1,0.9,10.5,4.9,15.2,5.1s11.3-1.9,11.5-7.4c0-5.7-9.7-9.4-17.8-10.9c-6.3-1.4-9.4-7-9.4-12.6s5.2-11.7,15.9-12
	c5.5-0.4,10.9,1.1,15.4,4.2v6c-4.3-3-9.5-4.6-14.7-4.6c-7.5,0-10,3.2-10.1,6.4c-0.1,2.8-0.4,6.9,11.7,9.1
	C596.4,118.3,605.4,122.3,604.8,132z M659.7,124.8c0.1,5.6-2.4,11-6.7,14.6c-7.4,6.3-18.4,5.8-25.1-1.3c-3.5-3.6-5.4-8.5-5.3-13.5
	V96.2h6.8v28.6c-0.1,5.2,3.1,9.8,7.9,11.7c1.3,0.5,2.7,0.7,4.2,0.8h0.6c6.5-0.3,11.6-5.7,11.5-12.2V96.2h6.1L659.7,124.8z
	 M684.9,143.4h-6V96.6h6V143.4z M715.6,143.4h-8.1l-19-23.4l19.5-23.4h7.6L696.1,120L715.6,143.4z"/>
<path d="M745,75.3v88.7l155,29.3V46.8L745,75.3z M813.1,143.5h-5.8v-37.7l-16.5,19l-16.1-18.9v37.6h-6V96.6h6l16.1,18.7l15.8-18.7
	h6.4L813.1,143.5z M866.1,143.5l-4.2-10.2l-17.2,0.1l2.3-5.9h12.5l-8.7-22.6L835,143.4h-6.4l18.8-46.9h6l19.5,46.9L866.1,143.5z"/>
<path class="st0" d="M1440,240h-220V0h140v80h80V240z M1280,190h-30v40h30V190z M1330,190h-30v40h30V190z M1410,190h-30v40h30V190z
	 M1260,140h-20v20h20V140z M1340,140h-20v20h20V140z M1300,140h-20v20h20V140z M1390,140h-20v20h20V140z M1420,140h-20v20h20V140z
	 M1260,100h-20v20h20V100z M1340,100h-20v20h20V100z M1300,100h-20v20h20V100z M1390,100h-20v20h20V100z M1420,100h-20v20h20V100z
	 M1260,60h-20v20h20V60z M1340,60h-20v20h20V60z M1300,60h-20v20h20V60z M1260,20h-20v20h20V20z M1340,20h-20v20h20V20z M1300,20
	h-20v20h20V20z"/>
<path class="st1" d="M165,175H55v-5.7c0-11.5,0.9-18.2,14.6-21.4c15.4-3.6,30.7-6.8,23.3-20.2C71.2,87.7,86.7,65,110,65
	c22.8,0,38.7,21.8,17.1,62.7c-7.1,13.4,7.6,16.6,23.3,20.2c13.6,3.1,14.6,9.8,14.6,21.4V175z M209.1,154.7
	c-11.8-2.7-22.8-5.1-17.5-15.2c16.2-30.6,4.3-47-12.8-47c-11.6,0-20.6,7.5-20.6,21.3c0,35.8,20.8,16.2,20.6,61.2H220v-4.2
	C220,162.1,219.3,157.1,209.1,154.7L209.1,154.7z M0,175h41.3c-0.2-45,20.6-25.4,20.6-61.2c0-13.8-9-21.3-20.6-21.3
	c-17.1,0-29,16.4-12.8,47c5.3,10.1-5.7,12.4-17.5,15.2C0.7,157.1,0,162.1,0,170.8V175z"/>
<path class="st2" d="M426.1,72.1v21.5h-132c-2.2,0-4,1.8-4,4v16c0,2.2,1.8,4,4,4h188l-52.7-47c-0.8-0.7-2.1-0.7-2.8,0.1
	C426.3,71.2,426.1,71.6,426.1,72.1z"/>
<path class="st3" d="M346.1,167.2v-21.5h132c2.2,0,4-1.8,4-4v-16c0-2.2-1.8-4-4-4h-188l52.7,47c0.8,0.7,2.1,0.7,2.8-0.2
	C345.9,168.1,346.1,167.7,346.1,167.2z"/>
<path class="st3" d="M1094.1,70.1v21.5h-132c-2.2,0-4,1.8-4,4v16c0,2.2,1.8,4,4,4h188l-52.7-47c-0.8-0.7-2.1-0.7-2.8,0.1
	C1094.3,69.2,1094.1,69.6,1094.1,70.1z"/>
<path class="st2" d="M1014.1,165.2v-21.5h132c2.2,0,4-1.8,4-4v-16c0-2.2-1.8-4-4-4h-188l52.7,47c0.8,0.7,2.1,0.7,2.8-0.2
	C1013.9,166.1,1014.1,165.7,1014.1,165.2z"/>
<path d="M305.1,64.1v11.5h-1.2v-0.9h-10.7v-1.1h10.7v-8.3h-10.5v-1.1H305.1z"/>
<path d="M310.8,72.6c3.7,0.4,7.3,1.2,10.8,2.4l-0.5,1.2c-3.4-1.2-7-2.1-10.7-2.5L310.8,72.6z M312.2,67.4c2.8,0.3,5.5,0.8,8.2,1.6
	l-0.4,1.2c-2.7-0.8-5.4-1.3-8.2-1.6L312.2,67.4z M312.2,62.2c3,0.3,6,0.9,8.9,1.8l-0.5,1.2c-2.9-0.9-5.8-1.6-8.8-1.9L312.2,62.2z"/>
<path d="M339.1,74.2v1h-11.6v-1h6.9c0.3-1.7,0.7-5.1,0.9-6.8h-6.5v-1h6.8l0.2-0.1l0.8,0.4c0,0.1-0.1,0.1-0.2,0.2
	c-0.2,1.8-0.8,5.5-1,7.3L339.1,74.2z"/>
<path d="M357.2,73.5v1.2h-14v-1.2H357.2z M355.5,64.2v1.2H345v-1.2H355.5z"/>
<path d="M374.1,68.4h-5.7l0.3,0.1c-0.1,0.1-0.2,0.2-0.3,0.2c-0.5,3.2-1.6,6-5.2,7.8c-0.3-0.3-0.6-0.6-0.9-0.8
	c3.5-1.7,4.5-4.1,4.9-7.2h-6.6v-1.1h13.6V68.4z M372.4,63.6H362v-1.1h10.4V63.6z"/>
<path d="M389.3,65.7c-0.1,0.1-0.2,0.1-0.3,0.1c-0.1,0-0.2,0-0.2,0c-1.2,1.1-2.4,2.2-3.7,3.1c0.2,0.1,0.3,0.1,0.4,0.2
	c-0.1,0.1-0.2,0.2-0.3,0.2v7.4h-1v-7.1c-1.8,1.2-3.6,2.3-5.6,3.2c-0.2-0.3-0.4-0.6-0.6-0.8c3.8-1.7,7.3-4.1,10.2-7.1L389.3,65.7z"/>
<path d="M396,77v-9.8c-0.7,1-1.4,2-2.3,2.9c-0.2-0.4-0.4-0.7-0.6-1.1c2-2.2,3.6-4.8,4.6-7.7l1.4,0.5c-0.1,0.1-0.2,0.2-0.4,0.2
	c-0.5,1.2-1.1,2.5-1.7,3.6l0.5,0.1c0,0.1-0.1,0.2-0.3,0.2v11H396z M402.1,74.5c0,0.9,0.2,1.2,1.2,1.2h3.5c1,0,1.1-0.7,1.2-3.2
	c0.3,0.2,0.7,0.4,1.1,0.5c-0.2,2.8-0.5,3.8-2.3,3.8h-3.7c-1.8,0-2.3-0.5-2.3-2.3V61.7l1.5,0.1c0,0.1-0.1,0.2-0.3,0.2v6.3
	c1.9-1,3.7-2.3,5.3-3.7l0.9,1.1c-0.1,0-0.2,0-0.3,0c-1.9,1.4-3.9,2.7-6,3.7L402.1,74.5z"/>
<path d="M379.4,158.6h-7.2c-0.2,0.6-0.4,1.5-0.6,2.3h7V172h-1.1v-0.9h-11.3v0.9h-1.1v-11.2h5.4c0.2-0.7,0.4-1.5,0.5-2.3h-6.8v-1.1
	h15.2L379.4,158.6z M366.2,161.9v8.2h2.8v-8.2H366.2z M373.4,163.9v-2h-3.4v2H373.4z M373.4,166.9v-2.1h-3.4v2.2L373.4,166.9z
	 M370.1,167.8v2.1h3.4v-2.1H370.1z M377.5,170v-8.1h-3v8.2L377.5,170z"/>
<path d="M386.6,164.9l-2.1,0.6v5.1c0,1.3-0.7,1.4-2.9,1.4c-0.1-0.4-0.2-0.8-0.4-1.1c0.4,0,0.7,0,1,0c1.2,0,1.2,0,1.2-0.4v-4.7
	l-2,0.6c0,0.2-0.1,0.2-0.2,0.3l-0.4-1.3l2.6-0.6v-3.9H381v-1.1h2.4v-3.6l1.4,0.1c0,0.1-0.1,0.2-0.3,0.2v3.2h2.1v1.1h-2.1v3.6
	c0.7-0.2,1.3-0.4,2-0.6L386.6,164.9z M396.7,163.6h-5.4c0,0.1-0.1,0.2-0.4,0.1c-0.2,0.5-0.5,1.1-0.8,1.6h6.3v1h-2.1
	c-0.3,1.2-0.9,2.2-1.8,3.1c1.2,0.5,2.3,1.1,3.4,1.8l-0.7,0.9c-1.1-0.8-2.3-1.4-3.5-1.9c-1.7,1-3.6,1.6-5.6,1.8
	c-0.1-0.3-0.3-0.7-0.5-0.9c1.7-0.1,3.4-0.6,4.9-1.3c-0.7-0.3-1.5-0.5-2.1-0.8l-0.2,0.4l-1-0.3c0.4-0.7,0.9-1.7,1.4-2.7h-2.4v-1h2.9
	c0.3-0.6,0.6-1.2,0.8-1.8h-3.9v-1h10.8L396.7,163.6z M396,158.2v1h-9.3v-1h3.9v-1.9l1.5,0.1c0,0.1-0.1,0.2-0.3,0.2v1.6H396z
	 M389.3,159.4c0.3,0.9,0.6,1.8,0.7,2.8l-1.1,0.3c-0.1-1-0.3-1.9-0.6-2.8L389.3,159.4z M389.7,166.4c-0.3,0.6-0.6,1.2-0.9,1.8
	c0.9,0.2,1.8,0.6,2.7,0.9c0.8-0.7,1.4-1.6,1.7-2.7H389.7z M394.7,159.6c0,0.1-0.1,0.2-0.4,0.2c-0.3,0.9-0.7,1.9-1.1,2.8l-1-0.2
	c0.4-1,0.7-2,1-3L394.7,159.6z"/>
<path d="M407.5,164.2c0,1-0.8,1.8-1.8,1.8s-1.8-0.8-1.8-1.8s0.8-1.8,1.8-1.8C406.7,162.4,407.5,163.2,407.5,164.2
	C407.5,164.1,407.5,164.2,407.5,164.2z"/>
<path d="M423.7,156.3c-0.1,0.1-0.2,0.2-0.4,0.3c2,2.7,4.5,4.9,7.4,6.5c-0.3,0.3-0.5,0.6-0.8,1c-2.9-1.7-5.4-3.9-7.3-6.6
	c-1.9,2.7-4.3,5-7.2,6.7c-0.2-0.3-0.5-0.6-0.7-0.9c3-1.7,5.5-4.2,7.3-7.1L423.7,156.3z M423.4,166v4.5h6.7v1.1h-14.7v-1.1h2.3V164
	l1.5,0.1c0,0.1-0.1,0.2-0.3,0.2v6.1h3.4v-9.6l1.5,0.1c0,0.1-0.1,0.2-0.3,0.2v3.8h5v1L423.4,166z"/>
<path d="M447.2,167.9h-5.9c1.9,1.4,4,2.4,6.3,2.9c-0.3,0.3-0.6,0.6-0.8,1c-2.5-0.7-4.7-1.9-6.6-3.6v3.9h-1.1v-3.8
	c-1.9,1.6-4.2,2.8-6.6,3.5c-0.2-0.4-0.5-0.7-0.8-1c2.3-0.5,4.4-1.5,6.2-2.9h-5.8v-1h6.9v-1.4h-5.3v-0.9h5.3v-1.4H433v-1h3.9
	c-0.2-0.6-0.5-1.2-0.9-1.8l0.7-0.1h-4.4v-1h2.9c-0.4-0.9-0.8-1.8-1.4-2.6l1-0.3c0.6,0.8,1.1,1.7,1.5,2.6l-0.9,0.3h2.2v-3.1l1.4,0.1
	c0,0.2-0.1,0.2-0.4,0.3v2.8h2.2v-3.1l1.5,0.1c0,0.2-0.2,0.2-0.4,0.3v2.8h2.1l-0.6-0.2c0.5-0.8,1-1.7,1.4-2.6l1.3,0.5
	c0,0.1-0.2,0.1-0.4,0.1c-0.4,0.8-0.9,1.5-1.4,2.3h2.8v1h-3.8l0.5,0.1c-0.1,0.1-0.2,0.2-0.4,0.1c-0.3,0.6-0.6,1.1-1,1.6h4v1h-6.3v1.4
	h5.5v0.9h-5.5v1.4h7L447.2,167.9z M441.4,162.2c0.4-0.6,0.7-1.2,1-1.8h-5.3c0.4,0.6,0.7,1.2,0.9,1.8l-0.5,0.1h4.2L441.4,162.2z"/>
<path d="M454.1,163.8c-0.3-0.6-0.7-1.1-1.1-1.7l0.9-0.4c0.8,1.1,1.5,2.2,2,3.4l-0.9,0.4c-0.1-0.3-0.2-0.6-0.4-0.9l-1.9,0.1v7.3h-1
	v-7.2l-2.5,0.1c0,0.1-0.1,0.2-0.2,0.2l-0.3-1.3h1.3c0.4-0.4,0.8-0.9,1.2-1.5c-0.7-0.9-1.4-1.7-2.3-2.5l0.6-0.8
	c0.2,0.1,0.3,0.3,0.5,0.5c0.6-1.1,1.2-2.2,1.7-3.4l1.2,0.5c-0.1,0.1-0.2,0.1-0.4,0.1c-0.6,1.2-1.2,2.3-1.9,3.3
	c0.4,0.4,0.8,0.8,1.1,1.3c0.7-1.1,1.4-2.2,2-3.3l1.2,0.6c-0.1,0.1-0.2,0.2-0.4,0.1c-1.1,1.7-2.2,3.4-3.5,4.9L454.1,163.8z
	 M451,166.4c0,0.1-0.1,0.2-0.3,0.2c-0.2,1.4-0.6,2.8-1.1,4.1c-0.3-0.2-0.6-0.3-0.9-0.4c0.6-1.3,0.9-2.7,1.1-4.1L451,166.4z
	 M454.6,169.7c-0.2-1.2-0.6-2.3-1.1-3.4l0.9-0.3c0.5,1.1,0.9,2.2,1.2,3.3L454.6,169.7z M463.6,157.1h0.5c0,0.1,0,0.2,0,0.4
	c-0.1,3.9-0.3,5.3-0.7,5.8s-0.6,0.5-1.7,0.5h-1.2c-0.1-0.4-0.2-0.7-0.3-1c0.8,0.1,1.5,0.1,1.8,0.1c0.2,0,0.4,0,0.5-0.2
	c0.2-0.3,0.4-1.4,0.5-4.5h-3.4c-0.3,2.4-1,4.7-3.4,6c-0.2-0.3-0.4-0.6-0.7-0.8c2.1-1.1,2.7-3,3-5.2h-2.7v-1.1L463.6,157.1z
	 M456.3,172.1v-6.8h7.5v6.8h-1.1v-0.7h-5.3v0.7L456.3,172.1z M462.7,166.3h-5.3v4h5.3V166.3z"/>
<path d="M466.4,164.1c-0.2-0.3-0.4-0.6-0.7-0.9c3-1.6,5.5-4,7.2-7c0.2,0,0.4,0,1.7,0.1c-0.1,0.1-0.2,0.2-0.4,0.2
	c1.9,2.7,4.4,4.9,7.4,6.4c-0.3,0.3-0.5,0.6-0.8,1c-2.9-1.6-5.4-3.8-7.3-6.5C471.8,160.2,469.3,162.5,466.4,164.1z M469.9,162.4
	c0.9,0.1,1.2,0.1,1.5,0.1c0,0.1-0.1,0.2-0.3,0.2v2.1c0,2.4-0.4,5.2-3.9,7.2c-0.3-0.3-0.6-0.6-0.9-0.8c2.4-1.2,3.8-3.8,3.6-6.4V162.4
	z M476.1,162.3l1.5,0.1c0,0.1-0.1,0.2-0.3,0.2v9.4h-1.2V162.3z"/>
<path d="M1025.9,70.8h-3.9c1,1.9,2.4,3.5,4.2,4.6c-0.3,0.3-0.6,0.6-0.8,0.9c-1.7-1.3-3.2-2.9-4.2-4.8V77h-1.1v-5.6
	c-1.1,2-2.6,3.7-4.6,4.9c-0.2-0.3-0.5-0.6-0.8-0.9c1.9-1.1,3.5-2.6,4.6-4.6h-3.5v-0.9l-2.1,0.7v5.1c0,1.3-0.7,1.4-2.9,1.4
	c-0.1-0.4-0.2-0.8-0.4-1.1c0.4,0,0.7,0,1,0c1.2,0,1.2,0,1.2-0.4v-4.7l-1.9,0.6c0,0.1-0.1,0.2-0.2,0.3l-0.4-1.3
	c0.7-0.2,1.6-0.4,2.6-0.7v-3.8h-2.4v-1.1h2.4v-3.5l1.4,0.1c0,0.1-0.1,0.2-0.3,0.2v3.2h2v1.1h-2v3.5c0.7-0.2,1.4-0.4,2.1-0.6l0.1,0.9
	h4.2v-1.9l1.4,0.1c0,0.1-0.1,0.2-0.3,0.2v1.6h4.6L1025.9,70.8z M1025.2,62.2c0,0-0.1,0-0.3,0c-2.9,0.8-5.8,1.2-8.8,1.4
	c-0.1-0.3-0.2-0.6-0.3-0.9c2.9-0.2,5.7-0.7,8.5-1.5L1025.2,62.2z M1017.2,64.4c0.6,1,1,2.1,1.3,3.2l-1,0.3c-0.3-1.1-0.7-2.2-1.3-3.2
	L1017.2,64.4z M1020.5,63.9c0.5,1,0.8,2.1,0.9,3.2l-1,0.2c-0.1-1.1-0.4-2.2-0.8-3.3L1020.5,63.9z M1025.8,64.2
	c-0.1,0.1-0.2,0.2-0.3,0.2c-0.6,1.4-1.4,2.7-2.2,4l-0.8-0.4c0.8-1.4,1.6-2.8,2.2-4.3L1025.8,64.2z"/>
<path d="M1041.7,62.5v12.9c0,1.6-0.8,1.6-4,1.5c-0.1-0.4-0.2-0.8-0.4-1.1h1.7c1.4,0,1.5,0,1.5-0.5v-3.7h-4.9v5.2h-1.1v-5.2h-4.5
	c-0.2,2-0.9,3.9-2.2,5.4c-0.3-0.3-0.5-0.5-0.9-0.8c1.9-2.1,2.1-5.2,2.1-7.6v-6.2H1041.7z M1030.3,68.7c0,0.6,0,1.2-0.1,1.9h4.4v-3
	h-4.3V68.7z M1034.6,63.6h-4.3v3h4.3V63.6z M1040.6,66.6v-3h-4.9v3H1040.6z M1035.7,70.6h4.9v-3h-4.9V70.6z"/>
<path d="M1057,67.8l0.8,0.5c0,0.1-0.1,0.1-0.2,0.2c-1,2.2-2.5,4.1-4.5,5.4c2.1,1.1,4.5,1.8,6.9,2.1c-0.3,0.3-0.5,0.7-0.7,1.1
	c-2.6-0.3-5-1.2-7.2-2.5c-2.3,1.2-4.7,2-7.2,2.5c-0.2-0.4-0.4-0.8-0.6-1.1c2.4-0.3,4.7-1.1,6.8-2.1c-1.6-1.2-2.8-2.7-3.7-4.5l1-0.4
	h-2.7v-1.1h5.9v-2.8h-6.8V64h6.8v-2.7l1.5,0.1c0,0.1-0.1,0.2-0.3,0.2V64h6.9v1.1h-6.9v2.8h4.2L1057,67.8z M1048.3,69
	c0.9,1.7,2.1,3.2,3.8,4.2c1.7-1,3.1-2.5,4-4.2H1048.3z"/>
<path d="M1066.3,69.9l-1.6,0.6v5.2c0,1.3-0.7,1.4-2.9,1.4c-0.1-0.4-0.2-0.8-0.4-1.1c0.4,0,0.7,0,1,0c1.2,0,1.2,0,1.2-0.4v-4.8
	l-1.9,0.7c0,0.1-0.1,0.2-0.2,0.2l-0.4-1.3l2.6-0.8v-3.8h-2.4v-1.1h2.4v-3.5l1.4,0.1c0,0.1-0.1,0.2-0.3,0.2v3.2h1.9v1.1h-1.9v3.5
	l1.4-0.4L1066.3,69.9z M1074.8,70.9l0.6,0.3c0,0.1-0.1,0.1-0.1,0.2c-0.4,1.3-1.2,2.5-2.2,3.4c1.2,0.6,2.5,1.1,3.8,1.3
	c-0.3,0.3-0.5,0.6-0.7,1c-1.4-0.3-2.8-0.8-4-1.5c-1.1,0.7-2.3,1.2-3.5,1.5c-0.2-0.3-0.4-0.6-0.7-0.9c1.2-0.3,2.3-0.7,3.3-1.3
	c-0.9-0.6-1.6-1.5-2.2-2.4l0.9-0.3c0.5,0.8,1.2,1.6,2.1,2.1c0.8-0.6,1.4-1.5,1.8-2.4h-4.7c-0.5,1.9-1.6,3.7-3,5.1
	c-0.3-0.2-0.5-0.5-0.8-0.7c1.7-1.4,2.7-3.8,3.3-6.8h-2.3v-1h2.5c0.1-0.5,0.2-1,0.2-1.5h-2.5v-1h6.4L1073,66c0.6-0.9,1.2-1.9,1.7-3
	l1.3,0.5c0,0.1-0.2,0.2-0.3,0.2c-0.5,0.8-1,1.7-1.6,2.4h1.9v1h-5.6c-0.1,0.5-0.1,1-0.2,1.5h6.6v1h-6.8c-0.1,0.5-0.2,0.9-0.3,1.4h5
	L1074.8,70.9z M1075.8,62.2c-0.1,0-0.1,0-0.2,0c0,0-0.1,0-0.2,0c-2.9,0.6-5.9,0.9-8.9,1c0-0.3-0.1-0.6-0.3-0.9
	c2.9-0.1,5.8-0.4,8.7-1L1075.8,62.2z M1068.2,63.4c0.4,0.7,0.7,1.4,0.9,2.2l-0.9,0.3c-0.2-0.8-0.5-1.5-0.8-2.3L1068.2,63.4z
	 M1071.3,63.2c0.3,0.7,0.5,1.5,0.5,2.3l-1,0.2c-0.1-0.8-0.2-1.6-0.5-2.3L1071.3,63.2z"/>
<path d="M1045.2,170.3c-1.7,0.3-3.5,0.4-5.2,0.4c-1.1,0-2.2-0.1-3.3-0.2c-2-0.5-2.9-1.8-2.9-3.2c0.1-1.4,0.7-2.7,1.7-3.6l1,0.5
	c-0.9,0.8-1.4,1.8-1.5,3c0,1,0.7,1.9,2.1,2.2c0.9,0.1,1.8,0.2,2.7,0.2c1.8,0,3.5-0.1,5.3-0.5L1045.2,170.3z M1037.6,161.8
	c0.9-0.8,1.9-1.4,3-2l0,0c-1.3,0.2-4.2,0.2-6.1,0.2c0-0.3,0-0.9,0-1.2h0.9c2.9,0.1,5.9-0.1,8.8-0.5l0.1,1.2
	c-0.6,0.1-1.2,0.2-1.8,0.5c-1.4,0.6-2.7,1.4-3.9,2.4L1037.6,161.8z M1045.2,164.2c-0.6-0.9-1.4-1.7-2.3-2.3l0.6-0.5
	c0.9,0.7,1.7,1.4,2.3,2.3L1045.2,164.2z M1047,162.6c-0.6-0.9-1.4-1.6-2.3-2.3l0.6-0.6c0.9,0.7,1.7,1.4,2.3,2.3L1047,162.6z"/>
<path d="M1056.7,157.1c-0.1,0.1-0.2,0.1-0.3,0.1c-0.9,0.4-1.8,0.8-2.8,1v3.3h3.4v1.1h-3.4v1.3c0.8,0.6,2.8,2.3,3.3,2.7l-0.7,0.9
	c-0.5-0.6-1.7-1.7-2.6-2.5v7h-1.1v-7.7c-0.8,1.9-1.9,3.7-3.2,5.3c-0.2-0.4-0.4-0.7-0.7-1.1c1.6-1.7,2.8-3.8,3.6-6h-3.3v-1.1h3.6v-3
	c-1.1,0.2-2.3,0.5-3.3,0.7c-0.1-0.3-0.2-0.6-0.4-0.9c2.4-0.3,4.7-1,6.9-2L1056.7,157.1z M1058.3,158.4l1.4,0.1
	c0,0.1-0.1,0.2-0.3,0.2v9.2h-1.1V158.4z M1062.5,156.6l1.5,0.1c0,0.1-0.1,0.2-0.3,0.2v13.6c0,0.8-0.2,1.2-0.8,1.4
	c-1,0.2-2,0.3-3.1,0.2c-0.1-0.4-0.2-0.8-0.4-1.1c0.6,0,1.2,0,1.7,0c1.3,0,1.4,0,1.4-0.4L1062.5,156.6z"/>
<path d="M1080.2,157.5v12.9c0,1.6-0.8,1.6-4,1.5c-0.1-0.4-0.2-0.8-0.4-1.1h1.7c1.4,0,1.5,0,1.5-0.5v-3.7h-4.9v5.2h-1.1v-5.2h-4.5
	c-0.2,2-0.9,3.9-2.2,5.4c-0.3-0.3-0.5-0.6-0.9-0.8c1.9-2.1,2.1-5.2,2.1-7.6v-6.2H1080.2z M1068.8,163.8c0,0.6,0,1.2-0.1,1.9h4.4v-3
	h-4.3V163.8z M1073.1,158.6h-4.3v3h4.3V158.6z M1079.1,161.6v-3h-4.9v3H1079.1z M1074.2,165.6h4.9v-3h-4.9V165.6z"/>
</svg>
