<svg id="レイヤー_1" data-name="レイヤー 1" xmlns="http://www.w3.org/2000/svg" viewBox="0 0 100 45"><defs><style>.cls-1{fill:#9cc83a;}.cls-2{fill:#18394d;}.cls-3{fill:#193a4e;}.cls-4{fill:#19394d;}</style></defs><path class="cls-1" d="M28,18.24c-.09-1,.41-1.37,1.22-1.68a52.81,52.81,0,0,1,14.2-3.26A88.58,88.58,0,0,1,63.63,14a77.11,77.11,0,0,1,13.08,2.87.81.81,0,0,1,.44,1.29c-.15.21-.3.05-.44,0a64.22,64.22,0,0,0-9.27-2.35,98.36,98.36,0,0,0-10.56-1.37,87.25,87.25,0,0,0-10.23-.23,51.17,51.17,0,0,0-18.29,3.92Z"/><path class="cls-2" d="M20,28.08a10.34,10.34,0,0,1-2.65-.33c-.88-.21-.3-.77-.28-1.17,0-.59.41-.26.64-.19a5.52,5.52,0,0,0,3.14.26c.35-.1.73-.22.75-.64s-.4-.5-.69-.61a12.91,12.91,0,0,1-2-.8,1.53,1.53,0,0,1-.17-2.68,4.45,4.45,0,0,1,2.15-.86,10.1,10.1,0,0,1,4,.18c.84.22.3.75.28,1.12,0,.56-.42.2-.62.14a5,5,0,0,0-2.87-.16c-.33.08-.68.24-.69.61s.38.39.63.49c.57.22,1.16.41,1.73.64s1.19.55,1.27,1.28a2,2,0,0,1-1,1.93,6,6,0,0,1-3.2.79C20.33,28.09,20.19,28.08,20,28.08Z"/><path class="cls-2" d="M53.64,21.09c-.2,1.44-.2,1.48-1.59,1.43-.62,0-.88.14-.94.77s-.29,1.38-.43,2.07c-.18.93.07,1.22,1,1.13.25,0,.5-.08.74-.12,0,.06.08.1.07.13-.29,1.42-.29,1.42-1.73,1.42A5.09,5.09,0,0,1,49,27.74,1.26,1.26,0,0,1,48,26.2c.43-2.12.91-4.23,1.35-6.35.06-.3.19-.38.47-.37.52,0,1,0,1.56,0s.48.12.42.49c-.18,1.12-.16,1.12.95,1.12Z"/><path class="cls-2" d="M30.75,26.36c-.32,1.56-.32,1.56-1.84,1.56a5.5,5.5,0,0,1-1.62-.14,1.32,1.32,0,0,1-1-1.67c.42-2.05.88-4.1,1.3-6.15.08-.37.22-.51.61-.48a7.62,7.62,0,0,0,1.35,0c.58,0,.63.21.49.67a8.91,8.91,0,0,0-.2,1h2c-.17,1.43-.18,1.47-1.58,1.42-.62,0-.87.15-.93.77s-.29,1.39-.43,2.08c-.18.93.07,1.2,1,1.12C30.17,26.47,30.42,26.41,30.75,26.36Z"/><path class="cls-2" d="M45.85,20.9l.63,0c1.13.09,1.11.08.84,1.18-.08.34-.19.45-.51.31a.5.5,0,0,0-.21,0c-1.48-.14-1.74.05-2,1.47-.25,1.18-.51,2.35-.74,3.52-.08.38-.21.57-.64.53a8.24,8.24,0,0,0-1.49,0c-.44,0-.46-.17-.38-.5.4-1.86.81-3.72,1.19-5.59a.63.63,0,0,1,.54-.54A13.9,13.9,0,0,1,45.85,20.9Z"/><path class="cls-2" d="M55.46,27.92c-1.31,0-1.31,0-1-1.27s.56-2.47.81-3.72c.06-.32.18-.44.5-.43.57,0,1.13,0,1.7,0,.33,0,.4.09.33.41-.34,1.52-.66,3-1,4.56-.07.31-.17.51-.55.45A6.77,6.77,0,0,0,55.46,27.92Z"/><path class="cls-3" d="M68.8,27.79c-.38.07-.49-.05-.4-.46.55-2.47,1.07-5,1.61-7.44,0-.23,0-.55.39-.55s.68-.09.54.54c-.57,2.47-1.08,5-1.6,7.45C69.28,27.65,69.18,27.87,68.8,27.79Z"/><path class="cls-4" d="M56.86,21.12h-.07c-1.29,0-1.28,0-.92-1.25.09-.31.23-.42.54-.39s.57,0,.85,0c1.25,0,1.23,0,1,1.16-.08.38-.23.52-.61.48A6.77,6.77,0,0,0,56.86,21.12Z"/><path class="cls-2" d="M66.84,21.29A11.93,11.93,0,0,0,63.32,21c-3.14.15-4.36,2.33-4.19,4.92a2.06,2.06,0,0,0,1.72,1.91,11.89,11.89,0,0,0,2.55.14c.77,0,1.41,0,2.05,0,.33,0,.51-.07.58-.42.39-1.89.77-3.78,1.2-5.66C67.33,21.42,67.13,21.36,66.84,21.29ZM64,25.63c-.16.76-.46.94-1.38.87-.7-.05-.9-.5-.92-1.11V25a4.12,4.12,0,0,1,.56-1.8,1.77,1.77,0,0,1,.81-.77,1.48,1.48,0,0,1,1.43.07C64.74,22.75,64.1,24.92,64,25.63Z"/><path class="cls-2" d="M39.93,21.25a13.61,13.61,0,0,0-3.18-.3,4.15,4.15,0,0,0-4.41,4.66,2.15,2.15,0,0,0,1.83,2.19,13.5,13.5,0,0,0,2.49.12c.75,0,1.37,0,2,0,.45,0,.56-.16.64-.53q.55-2.7,1.15-5.39C40.54,21.53,40.4,21.35,39.93,21.25Zm-2.28,2.18L37.2,25.5c-.19.88-.54,1.12-1.47,1-.6-.08-.86-.46-.85-1.25a3.92,3.92,0,0,1,.49-1.9,1.72,1.72,0,0,1,1.22-1C37.62,22.21,37.86,22.45,37.65,23.43Z"/><path class="cls-4" d="M83.42,21.68a6.72,6.72,0,0,0-2.2.31c.17-.79.28-1.46.46-2.11.13-.49-.07-.56-.49-.55s-.4.32-.46.58l-1.32,6.21c-.32,1.49-.33,1.54,1.19,1.74s2.83.18,3.72-1.24a5.58,5.58,0,0,0,.84-3.16A1.76,1.76,0,0,0,83.42,21.68ZM84,24.87a5,5,0,0,1-.35,1.07,1.92,1.92,0,0,1-2.09,1.28c-.09,0-.2,0-.32,0-1.08-.07-1.16-.18-.93-1.2s.45-1.92.63-2.89a.62.62,0,0,1,.52-.57c.78-.17,1.62-.48,2.3.13S84.2,24.12,84,24.87Z"/><path class="cls-4" d="M76.31,21.71c-2.29-.31-3.72.58-4.23,2.66a5.25,5.25,0,0,0-.17,1c-.15,1.86.46,2.51,2.32,2.51a7.73,7.73,0,0,0,2-.3.73.73,0,0,0,.61-.67c.23-1.15.49-2.3.72-3.45C77.91,21.94,77.9,21.93,76.31,21.71ZM76,26.61a.56.56,0,0,1-.48.45,3.25,3.25,0,0,1-1.1.17c-1.27,0-1.78-.56-1.63-1.72a8.23,8.23,0,0,1,.27-1.31,2.43,2.43,0,0,1,3.4-1.68c.28.1.35.21.29.5C76.5,24.21,76.26,25.41,76,26.61Z"/></svg>