<svg id="レイヤー_1" data-name="レイヤー 1" xmlns="http://www.w3.org/2000/svg" viewBox="0 0 100 45"><defs><style>.cls-1{fill:#eb6c00;}.cls-2{fill:#0075c0;}.cls-3{fill:#eb6c01;}.cls-4{fill:#0175c0;}</style></defs><path class="cls-1" d="M23.62,30a3.14,3.14,0,0,1-2.09-.75,1.57,1.57,0,0,1,.08-2.5,5.93,5.93,0,0,1,.88-.51,1.27,1.27,0,0,0,.76-1.14,1.25,1.25,0,0,0-.78-1.17c-.69-.35-1.29-.8-1.18-1.66a1.82,1.82,0,0,1,1.58-1.47,2.9,2.9,0,0,1,2.41.39,1.41,1.41,0,0,1,0,2.5c-.13.09-.28.15-.42.23a1.3,1.3,0,0,0-.8,1.17,1.32,1.32,0,0,0,.81,1.17,4.26,4.26,0,0,1,.87.52,1.57,1.57,0,0,1,0,2.5A3.22,3.22,0,0,1,23.62,30Z"/><path class="cls-2" d="M29.34,21.49a2.55,2.55,0,0,1-2-.89,1,1,0,0,1,.43-1.67,2.68,2.68,0,0,1,3.11,1.13,1.76,1.76,0,0,0,2.33.88,2.07,2.07,0,0,1,2.58,1.84,1.08,1.08,0,0,1-1.34,1,2.14,2.14,0,0,1-1.75-1.39,1.74,1.74,0,0,0-2.42-1.05A2.12,2.12,0,0,1,29.34,21.49Z"/><path class="cls-2" d="M17.79,21.5a2.26,2.26,0,0,1-.81-.18,1.74,1.74,0,0,0-2.33,1.06,2.17,2.17,0,0,1-2,1.42,1,1,0,0,1-1.08-1.26A2.07,2.07,0,0,1,14.2,21a1.8,1.8,0,0,0,2.23-.85,2.64,2.64,0,0,1,3.06-1.22A1,1,0,0,1,20,20.63,2.75,2.75,0,0,1,17.79,21.5Z"/><path class="cls-2" d="M23.82,17a2.78,2.78,0,0,1,1.61.49.85.85,0,0,1,0,1.47,3.42,3.42,0,0,1-3.58,0,.84.84,0,0,1,0-1.46A3.18,3.18,0,0,1,23.82,17Z"/><path class="cls-1" d="M18.87,17.85a1.63,1.63,0,0,1-.76-.18c-.25-.13-.45-.32-.36-.63s-.12-.43-.39-.47a2.18,2.18,0,0,0-.94.14,2.38,2.38,0,0,1-1.06.07c-.38-.08-.46-.31-.23-.6a2.76,2.76,0,0,1,2.23-.65c.16.06.27.14.27.34,0,.49.18.63.68.53.22,0,.44-.14.66-.19a2.51,2.51,0,0,1,1.58.05.56.56,0,0,1,.18,1A2.65,2.65,0,0,1,18.87,17.85Z"/><path class="cls-3" d="M27.59,16.12a2.71,2.71,0,0,1,1.09.2,1.08,1.08,0,0,0,.79.06c.18-.06.34-.11.23-.36s.06-.49.34-.51a2.62,2.62,0,0,1,2,.57c.14.11.28.25.23.45s-.28.26-.48.27a2.55,2.55,0,0,1-.95-.1,2.25,2.25,0,0,0-.89-.14c-.27,0-.49.11-.42.47a.58.58,0,0,1-.49.71,2.74,2.74,0,0,1-2.4-.39.62.62,0,0,1-.32-.68c.05-.28.29-.38.53-.47A2.06,2.06,0,0,1,27.59,16.12Z"/><path class="cls-4" d="M23.64,16.41a2.78,2.78,0,0,1-1.12-.21c-.19-.09-.41-.18-.4-.44s.22-.36.42-.44.44-.14.65-.22.25-.11.22-.26-.14-.16-.24-.19A2.09,2.09,0,0,1,23,14.6c-.21-.07-.55-.08-.55-.33s.34-.33.58-.37a3.35,3.35,0,0,1,1.54.06c.15,0,.34.08.35.27s-.17.24-.31.31-.67,0-.67.32.46.29.72.4.55.19.55.5-.3.41-.55.5A3.46,3.46,0,0,1,23.64,16.41Z"/><path d="M40.77,20.26a4.19,4.19,0,0,0,.48.95.5.5,0,0,0-.11.16s0,.05,0,.05,0,0,0-.06a5.69,5.69,0,0,1-.33-.87c0,1.33,0,2.41,0,2.47s0,0,0,0h-.2s0,0,0,0,0-1.14,0-2.4A6.11,6.11,0,0,1,40,22s0,.05,0,.05,0,0,0-.05a1.11,1.11,0,0,0-.11-.16,5.44,5.44,0,0,0,.7-1.56h-.55s0,0,0,0v-.17s0,0,0,0h.59v-.39a3.13,3.13,0,0,0,0-.51l.27,0s0,0,0,0a.13.13,0,0,1,0,.08,1.79,1.79,0,0,0,0,.36V20h.44s0,0,0,0v.17s0,0,0,0h-.42Zm1.8.85a3.42,3.42,0,0,0,1.16,1.25.63.63,0,0,0-.12.18s0,.05,0,.05l-.06,0a3.72,3.72,0,0,1-1-1.27c0,.81,0,1.59,0,1.66s0,0,0,0h-.2s0,0,0,0,0-.84,0-1.64a3.28,3.28,0,0,1-1.07,1.27l-.06,0s0,0,0-.05a.58.58,0,0,0-.12-.14,3.45,3.45,0,0,0,1.19-1.3h-.89s0,0,0,0v-.17s0,0,0,0h1v-.68h-.56a3.73,3.73,0,0,1-.2.4s0,.06-.06.06l-.06,0a.34.34,0,0,0-.15-.07,2.85,2.85,0,0,0,.42-.95,1.19,1.19,0,0,0,0-.24.84.84,0,0,1,.24.06,0,0,0,0,1,0,0,.07.07,0,0,1,0,.06.44.44,0,0,0,0,.13c0,.1-.06.2-.1.31h.47v-.29a2.76,2.76,0,0,0,0-.55l.28,0s.05,0,.05,0a.24.24,0,0,1,0,.09,1.24,1.24,0,0,0,0,.4V20h.93s0,0,0,0v.18s0,0,0,0h-.93v.68h1.13s0,0,0,0v.17s0,0,0,0h-1Z"/><path d="M46.7,20.26A6.7,6.7,0,0,0,47,21.92c.14.4.32.72.51.72s.22-.3.25-.71l.16.12c.09.05.09.05.09.13-.07.51-.22.76-.46.76s-.56-.26-.78-.87a6.63,6.63,0,0,1-.32-1.81H44.31s0,0,0,0V20s0,0,0,0h2.11c0-.11,0-.21,0-.32a3,3,0,0,0,0-.53,2,2,0,0,1,.3,0s.06,0,.06,0a.29.29,0,0,1,0,.09.89.89,0,0,0,0,.36c0,.11,0,.22,0,.33h1.13s0,0,0,0v.2s0,0,0,0H46.7Zm-1.24,2a8.3,8.3,0,0,0,.88-.28.86.86,0,0,0,0,.16c0,.09,0,.09-.09.12a13.69,13.69,0,0,1-1.58.46.6.6,0,0,0-.17.07s0,0-.06,0,0,0,0-.05l-.08-.26.4-.06.49-.11V21.21h-.75s0,0,0,0V21s0,0,0,0h1.78s0,0,0,0v.18s0,0,0,0h-.76Zm1.62-2.93s.06,0,.09,0a2.92,2.92,0,0,1,.43.37s0,0,0,.07l-.09.07s-.06,0-.08,0a2.16,2.16,0,0,0-.41-.39s0,0,0-.06Z"/><path d="M52.25,20.84c0,.05,0,.07-.06.07l-.06,0a4.24,4.24,0,0,1-1.8-1.43,4.38,4.38,0,0,1-1.72,1.44l-.07,0s0,0,0-.06a.5.5,0,0,0-.14-.15,3.79,3.79,0,0,0,1.75-1.39.72.72,0,0,0,.11-.24,1.07,1.07,0,0,1,.27.06s.06,0,.06.05a0,0,0,0,1,0,0s0,0,0,0a4,4,0,0,0,1.91,1.41A.88.88,0,0,0,52.25,20.84Zm-.2.69s0,0,0,0H50.11q-.2.48-.45,1c.52,0,1.1-.09,1.59-.15-.12-.16-.26-.31-.4-.47s0,0,0-.06L51,21.8a.06.06,0,0,1,.06,0,7.26,7.26,0,0,1,.83,1s0,0,0,.06l-.13.09,0,0s0,0,0,0l-.25-.36c-.75.1-1.61.18-2.36.24-.09,0-.14,0-.16,0a.09.09,0,0,1-.06,0s0,0,0-.05,0-.19-.06-.29h.65a6.7,6.7,0,0,0,.45-1h-1.1s0,0,0,0v-.19s0,0,0,0H52s0,0,0,0Zm-.81-.78s0,0,0,0H49.5s0,0,0,0v-.19s0,0,0,0h1.7s0,0,0,0Z"/><path d="M54,19.86s.06,0,.07,0h0s.06,0,.11.07.07.08.07.1a.09.09,0,0,1,0,.06.3.3,0,0,0-.09.1,3.93,3.93,0,0,1-.41.69,2.68,2.68,0,0,0,.65.53.67.67,0,0,0-.12.16s0,.05,0,.05,0,0-.06,0a3.11,3.11,0,0,1-.48-.48V23s0,0,0,0h-.2s0,0,0,0,0-.2,0-.54v-1.2a3.84,3.84,0,0,1-.56.5l-.06,0s0,0,0-.06a.49.49,0,0,0-.1-.16,3.34,3.34,0,0,0,1.25-1.46H52.83s0,0,0,0v-.17s0,0,0,0h.58v-.25a2,2,0,0,0,0-.48l.28,0s.06,0,.06,0,0,0,0,.08a1.08,1.08,0,0,0,0,.33v.26Zm2.6,2.93s0,0,0,0H54.13s0,0,0,0V22.6s0,0,0,0h1V20.8h-.83s0,0,0,0v-.19s0,0,0,0h.83v-.84a2.93,2.93,0,0,0,0-.58l.28,0s.05,0,.05,0a.2.2,0,0,1,0,.07,1.66,1.66,0,0,0,0,.45v.84h.91s0,0,0,0v.19s0,0,0,0h-.91v1.77h1.1s0,0,0,0Z"/><path d="M61.05,20.09h.61s0,0,0,0,0,.26,0,.38a12.06,12.06,0,0,1-.15,1.86c-.08.38-.22.5-.56.5a2,2,0,0,1-.51,0c-.08,0-.08,0-.1-.1a.52.52,0,0,0-.07-.2,3.25,3.25,0,0,0,.67.07c.15,0,.26-.06.31-.33a11.56,11.56,0,0,0,.13-1.92H60.14a3.84,3.84,0,0,1-.22,1.12,2.68,2.68,0,0,1-1.33,1.39.08.08,0,0,1-.06,0s0,0-.07-.05a.44.44,0,0,0-.17-.14,2.44,2.44,0,0,0,1.38-1.33,3.41,3.41,0,0,0,.19-1H58.53s0,0,0,0v-.2s0,0,0,0h1.35v-.47a3.39,3.39,0,0,0,0-.51,1.55,1.55,0,0,1,.31,0s.06,0,.06,0a.17.17,0,0,1,0,.1,1.09,1.09,0,0,0,0,.35v.46Z"/><path d="M64.61,20A4.8,4.8,0,0,1,64,21.85c-.18.32-.37.45-.63.45s-.62-.36-.62-1a1.59,1.59,0,0,1,.49-1.11,1.83,1.83,0,0,1,1.29-.48,1.37,1.37,0,0,1,1.53,1.38,1.54,1.54,0,0,1-1.36,1.5.08.08,0,0,1-.11,0,.44.44,0,0,0-.17-.16c.85-.17,1.34-.63,1.34-1.35A1.07,1.07,0,0,0,64.69,20Zm-1.14.41a1.3,1.3,0,0,0-.41.93c0,.47.19.67.35.67s.27-.1.4-.32a4.57,4.57,0,0,0,.5-1.68A1.51,1.51,0,0,0,63.47,20.39Z"/><path d="M66.93,20.33s0,0,.07,0a2.68,2.68,0,0,1,.55.42s0,0,0,.07l-.09.12s0,0-.07,0a2.63,2.63,0,0,0-.53-.43s0,0,0-.07Zm.3,2.36a.62.62,0,0,0-.07.18s0,.05,0,.05l-.06,0a1,1,0,0,1-.19-.14,1.86,1.86,0,0,0,.19-.34,5.25,5.25,0,0,0,.33-.94l.13.12c.08,0,.08,0,0,.13A6.36,6.36,0,0,1,67.23,22.69Zm-.11-3.43s0,0,.07,0a3.11,3.11,0,0,1,.52.44s0,0,0,.07l-.1.12s0,0-.07,0a3,3,0,0,0-.51-.45s0,0,0-.06Zm3.49.31s0,0,0,0h-1a3.14,3.14,0,0,1-.15.49h.88s0,0,0,0,0,.12,0,.4v.59c0,.27,0,.37,0,.4s0,0,0,0h-.74v.53c0,.17,0,.36,0,.52s0,.24-.11.31a.82.82,0,0,1-.44.07c-.08,0-.08,0-.11-.08a.64.64,0,0,0-.08-.19l.29,0c.15,0,.19,0,.19-.16v-1h-.72s0,0,0,0,0-.13,0-.4v-.59c0-.28,0-.38,0-.4s0,0,0,0h.57a4,4,0,0,0,.15-.49H68.28v.71a8.2,8.2,0,0,1-.09,1.41,2.71,2.71,0,0,1-.44,1.12s0,.05,0,.05,0,0-.06,0a.61.61,0,0,0-.16-.12A2.25,2.25,0,0,0,68,21.64,8.25,8.25,0,0,0,68,20.32c0-.65,0-.9,0-.92s0,0,0,0h2.51s0,0,0,0ZM69,22s0,.07-.07.1a2.73,2.73,0,0,1-.4.62s0,0-.06,0l-.06,0a.3.3,0,0,0-.16-.08,2,2,0,0,0,.44-.63,1.14,1.14,0,0,0,.07-.22,1.13,1.13,0,0,1,.22.08s0,0,0,.05A.09.09,0,0,1,69,22Zm1.15-1.67H68.83v.39h1.28Zm0,.6H68.83v.42h1.28Zm0,.91s0,0,.06,0a2.55,2.55,0,0,0,.55.75.56.56,0,0,0-.15.1s0,0-.06,0l-.06-.05a3,3,0,0,1-.49-.75s0,0,0-.06Z"/><path d="M72.79,20.28c0-.16,0-.29,0-.46a2.33,2.33,0,0,0,0-.46,1.31,1.31,0,0,1,.34.06c.06,0,.07.06,0,.13a.85.85,0,0,0-.06.29c0,.15,0,.27,0,.44h1.27c.06,0,.07,0,.07.05s0,.24,0,.4a6.66,6.66,0,0,1-.16,1.35c-.08.32-.18.45-.39.52a1.81,1.81,0,0,1-.45.05.07.07,0,0,1-.07-.05.41.41,0,0,0-.15-.24,1.52,1.52,0,0,0,.55-.05c.13,0,.16-.08.23-.35a7.08,7.08,0,0,0,.14-1.41h-1a3.38,3.38,0,0,1-.39,1.21,2.87,2.87,0,0,1-.91.89.08.08,0,0,1-.1,0,.51.51,0,0,0-.24-.14,2.36,2.36,0,0,0,1-.86,3,3,0,0,0,.36-1.08h-.51c-.19,0-.38,0-.59,0,0,0,0,0,0-.06s0-.17,0-.25l.67,0Z"/><path d="M76.08,19.78a0,0,0,0,1,.07,0,3.76,3.76,0,0,1,.78.57s0,0,0,.08a1.43,1.43,0,0,1-.15.18s0,0-.07,0a4.38,4.38,0,0,0-.81-.64C76,19.91,76,19.84,76.08,19.78Zm.38,2.28a7.52,7.52,0,0,0,1.24-.8,6.64,6.64,0,0,0,1.16-1.15,1.36,1.36,0,0,0,.08.28.13.13,0,0,1,0,.15,8.32,8.32,0,0,1-1,1,8.47,8.47,0,0,1-1.29.83,2.76,2.76,0,0,0-.23.17s-.08,0-.12,0a2,2,0,0,1-.21-.29A2.23,2.23,0,0,0,76.46,22.06Z"/><path d="M80.75,20.66a1.19,1.19,0,0,0,.13-.48,1.67,1.67,0,0,1,.34.14c.06,0,0,.08,0,.12a.73.73,0,0,0-.15.25,4.7,4.7,0,0,1-1,1.41.1.1,0,0,1-.13,0,.6.6,0,0,0-.24-.12A3.71,3.71,0,0,0,80.75,20.66Zm1.39-.44s.06,0,.09,0a5.75,5.75,0,0,1,1.08,1.54s0,.07,0,.09a1.15,1.15,0,0,1-.2.14s0,0-.07,0A5.4,5.4,0,0,0,82,20.35Zm1.37-.29a.44.44,0,0,1-.44.43.43.43,0,1,1,0-.86A.44.44,0,0,1,83.51,19.93Zm-.71,0a.27.27,0,1,0,.27-.27A.27.27,0,0,0,82.8,19.93Z"/><path d="M85.15,22.14l-.8,0s-.06,0-.06-.06,0-.17,0-.29a8.53,8.53,0,0,0,.89,0h1.4l1,0s.07,0,.07.06v.21c0,.05,0,.06-.07.06H85.15Zm.37-1.79h-.66s-.06,0-.06-.06a2.64,2.64,0,0,1,0-.28c.27,0,.49,0,.74,0h.69L87,20s0,0,0,0a.81.81,0,0,1,0,.22c0,.05,0,.06,0,.06H85.52Z"/><path d="M89.28,21.25a3.58,3.58,0,0,0-.58,0s-.06,0-.08-.06,0-.21,0-.33a6.79,6.79,0,0,0,1,0h2.26s.06,0,.06.05a.89.89,0,0,1,0,.23s0,.05-.06.05H89.28Z"/></svg>