<svg id="レイヤー_1" data-name="レイヤー 1" xmlns="http://www.w3.org/2000/svg" viewBox="0 0 100 45"><defs><style>.cls-1{fill:#f5579d;}.cls-2{fill:#7c7c7c;}.cls-3{fill:#4c4c4c;}.cls-4{fill:#f669a8;}.cls-5{fill:#fdd86f;}.cls-6{fill:#f88ebe;}.cls-7{fill:#f99fc7;}.cls-8{fill:#fdfdfd;}.cls-9{fill:#f9f9f9;}</style></defs><path class="cls-1" d="M58.76,23.32a4,4,0,0,0-.86-2c-.16-.19-.2-.32,0-.54a3.48,3.48,0,0,0,.63-1.68.31.31,0,0,0-.28-.4c-.37-.07-.73-.19-1.09-.27s-.34-.13-.15-.38.47-.67.71-1a.25.25,0,0,0,0-.4,3.31,3.31,0,0,0-1.47-1c-.26-.08-.3-.21-.28-.45a3.72,3.72,0,0,0-.59-2.36.27.27,0,0,0-.41-.13c-.36.16-.72.28-1.08.43-.2.08-.26,0-.26-.19,0-.38,0-.77,0-1.16s-.11-.33-.32-.37a3.75,3.75,0,0,0-2.27.2c-.22.08-.35.07-.49-.12a3.65,3.65,0,0,0-1.45-1.16c-.22-.1-.29-.05-.4.12-.26.43-.54.84-.82,1.29-.31-.41-.61-.78-.88-1.17s-.31-.28-.57-.14a3.74,3.74,0,0,0-1.26,1.08c-.13.19-.25.19-.45.11a3.91,3.91,0,0,0-2.37-.2.37.37,0,0,0-.34.44A6.75,6.75,0,0,1,42,13.27c-.47-.15-.92-.28-1.37-.44-.2-.07-.3,0-.41.16a3.78,3.78,0,0,0-.52,2.23.42.42,0,0,1-.33.51,3.34,3.34,0,0,0-1.49,1.05c-.1.12-.12.2,0,.33.29.32.54.67.82,1,.15.17.11.24-.08.3-.38.13-.75.27-1.14.37s-.34.23-.3.5a3.62,3.62,0,0,0,.62,1.53.32.32,0,0,1,0,.47,3.63,3.63,0,0,0-.9,2.27.32.32,0,0,0,.29.37c.34.06.66.18,1,.24s.32.18.14.41-.43.62-.66.91a.25.25,0,0,0,0,.38,3.8,3.8,0,0,0,2,1.25.31.31,0,0,1,.28.37,3.28,3.28,0,0,0,.47,1.72c.11.21.22.27.45.17s.75-.28,1.11-.44.3-.07.29.19,0,.82,0,1.23c0,.25.1.34.32.37a3.54,3.54,0,0,0,1.68-.11.31.31,0,0,1,.43.17,3.83,3.83,0,0,0,1.91,1.59.26.26,0,0,0,.38-.13c.2-.33.42-.65.62-1s.21-.2.34,0c.23.33.47.64.7,1,.12.18.22.19.42.11a3.9,3.9,0,0,0,1.77-1.54c.12-.2.21-.23.42-.17a2.73,2.73,0,0,0,1.47.13c.12-.15.29,0,.42-.07s.28-.08.26-.29c0-.41-.05-.82-.08-1.22,0-.23,0-.32.28-.23s.81.24,1.2.39c.2.07.29,0,.38-.16a3.89,3.89,0,0,0,.46-1.7c0-.24.08-.32.31-.38a3.72,3.72,0,0,0,2.1-1.37c.08-.11.09-.17,0-.28-.28-.33-.54-.68-.83-1-.12-.14-.09-.2.07-.25.38-.12.75-.27,1.14-.37S58.8,23.57,58.76,23.32Zm-17.23.6A4.86,4.86,0,0,0,40,26.68c0,.18-.08.2-.24.16a4,4,0,0,1-1.71-.95c-.14-.14-.19-.24,0-.43.29-.36.54-.76.82-1.13.13-.18.14-.26-.11-.31-.43-.1-.86-.23-1.29-.33-.18-.05-.27-.12-.25-.32a3.61,3.61,0,0,1,.87-2c.07-.09.13-.11.22,0a5.79,5.79,0,0,0,4.18,1.5l.13,0C42.22,23.27,41.87,23.58,41.53,23.92Zm3.2-11.74a5.81,5.81,0,0,0-.17,4.28c0,.08,0,.16,0,.24a.2.2,0,0,1,0,.08l-1-.56a5.27,5.27,0,0,0-3.36-.73c-.15,0-.24,0-.24-.17a3.76,3.76,0,0,1,.38-2,.27.27,0,0,1,.38-.16l1.56.47a.47.47,0,0,0,0-.37c0-.4,0-.81-.07-1.22,0-.21.06-.3.27-.34a3.67,3.67,0,0,1,2.07.22C44.71,12,44.82,12,44.73,12.18Zm5.76,18.67A3.72,3.72,0,0,1,49.18,32c-.18.09-.28.07-.39-.1-.27-.39-.57-.77-.86-1.15-.06,0-.11-.16-.22-.06-.26.41-.53.82-.78,1.23a.27.27,0,0,1-.41.13A3.81,3.81,0,0,1,45,30.62c-.07-.11-.13-.19,0-.27A5.74,5.74,0,0,0,47.66,27a2,2,0,0,1,.1-.21.37.37,0,0,1,.06-.1,2,2,0,0,1,.26.55,6,6,0,0,0,2.13,2.85l.14.09C50.78,30.45,50.78,30.45,50.49,30.85Zm.77-14.16a.34.34,0,0,1-.12.06s0,0-.08,0a3,3,0,0,1,.16-.79,5.51,5.51,0,0,0-.29-3.77c-.08-.14,0-.2.1-.25A3.88,3.88,0,0,1,53,11.69c.29,0,.35.16.34.42,0,.51,0,1,0,1.58.52-.2,1-.37,1.49-.58.24-.11.33,0,.44.17a3.68,3.68,0,0,1,.4,2c0,.13,0,.22-.19.19A6,6,0,0,0,51.26,16.69Zm7,6.86c-.47.16-.94.33-1.42.48-.16,0-.19.1-.07.25.31.35.59.72.89,1.07.14.16.15.27,0,.43a3.81,3.81,0,0,1-1.77,1c-.14,0-.25.05-.29-.16a5.47,5.47,0,0,0-2.06-3.27L53,22.9a13,13,0,0,0,2-.24,4.39,4.39,0,0,0,2.34-1.22c.16-.16.26-.14.38,0a4,4,0,0,1,.78,1.8C58.49,23.44,58.43,23.5,58.28,23.55Z"/><path class="cls-2" d="M62.46,33.6h-.07a.29.29,0,0,1,0-.4h.07Z"/><path class="cls-3" d="M54.13,34.45a1.26,1.26,0,1,1-2.52,0,1.25,1.25,0,0,1,1.28-1.33A1.2,1.2,0,0,1,54.13,34.45Z"/><path class="cls-3" d="M45,34.52c.4.29.35.77.51,1.16-.51.11-.54.09-.66-.41-.06-.24-.07-.52-.39-.57-.15,0-.27,0-.25.2s0,.35,0,.52,0,.31-.29.32-.25-.13-.25-.32c0-.63,0-1.27,0-1.91,0-.23.09-.3.29-.3s.48,0,.71,0,.66.14.75.53A.68.68,0,0,1,45,34.52Z"/><path class="cls-3" d="M55.93,34.52c.4.29.34.77.51,1.16-.51.11-.54.09-.65-.38,0-.12-.06-.24-.1-.36a.36.36,0,0,0-.43-.24c-.22,0-.09.23-.11.34a1.15,1.15,0,0,0,0,.37c.05.31-.12.33-.35.32s-.19-.06-.19-.2c0-.69,0-1.39,0-2.08,0-.17.07-.22.21-.23a3.14,3.14,0,0,1,.81,0c.33,0,.63.15.72.53A.68.68,0,0,1,55.93,34.52Z"/><path class="cls-3" d="M39.65,34.63c-.31.24-.19.54-.19.81s-.06.29-.29.29-.26-.06-.26-.27q0-1,0-2c0-.22.07-.26.27-.26s.29,0,.27.26,0,.52,0,.86a8.12,8.12,0,0,0,.48-.7.65.65,0,0,1,.87-.38,3.55,3.55,0,0,1-.44.6c-.33.45-.34.45,0,.94l.55.92a.57.57,0,0,1-.81-.36A5.76,5.76,0,0,0,39.65,34.63Z"/><path class="cls-3" d="M41.17,34.09c0-.21,0-.43,0-.65s.08-.25.27-.25.28,0,.28.26c0,.46,0,.91,0,1.37a.54.54,0,0,0,.25.53c.31.17.63,0,.65-.44s0-1,0-1.44c0-.22.06-.29.28-.29s.27.07.26.28c0,.42,0,.84,0,1.26,0,.7-.35,1.07-1,1.07s-1-.35-1-1C41.16,34.53,41.17,34.31,41.17,34.09Z"/><path class="cls-3" d="M36.33,35.71c.25-.8.5-1.57.72-2.34.08-.28.29-.15.44-.17s.29,0,.36.2c.19.69.41,1.37.62,2.06,0,.08.14.22,0,.25s-.37.11-.5-.08c0,0,0-.09,0-.13-.15-.45-.26-.5-.73-.43-.16,0-.17.11-.21.22C36.85,35.74,36.84,35.74,36.33,35.71Z"/><path class="cls-3" d="M47.89,35.69c-.4.11-.63,0-.67-.39s-.31-.21-.51-.23-.34,0-.37.23-.25.53-.65.38c.24-.77.49-1.56.72-2.34.08-.25.27-.13.4-.14s.3-.09.36.14Z"/><path class="cls-3" d="M56.79,34.45c0-.34,0-.68,0-1,0-.17,0-.25.22-.24q.52,0,1.05,0c.15,0,.23,0,.23.2s0,.23-.22.22-.27,0-.4,0c-.3-.05-.36.08-.35.36s0,.29.27.26H58c.13,0,.21,0,.2.18s0,.24-.21.22-.22,0-.33,0c-.32,0-.37.09-.37.38s.08.36.34.33.27,0,.41,0,.26,0,.26.2-.09.22-.25.22c-.35,0-.7,0-1,0s-.25-.07-.24-.26S56.79,34.79,56.79,34.45Z"/><path class="cls-3" d="M35,35.8l-.38-.07c-.19,0-.19-.14-.16-.29s.12-.17.26-.12a1.84,1.84,0,0,0,.4.06.37.37,0,0,0,.41-.24c.06-.2-.07-.32-.23-.41L35,34.54a.74.74,0,0,1-.47-.79.79.79,0,0,1,.73-.61,1.4,1.4,0,0,1,.54,0c.14,0,.25.06.19.27s-.14.18-.29.14a1,1,0,0,0-.3,0,.3.3,0,0,0-.34.23.29.29,0,0,0,.18.33l.37.19a.78.78,0,0,1,.52.86.81.81,0,0,1-.79.63Z"/><path class="cls-3" d="M59.22,35.79l-.34-.06c-.2,0-.19-.15-.16-.3s.13-.16.26-.11a.94.94,0,0,0,.47.06.35.35,0,0,0,.34-.25.33.33,0,0,0-.18-.37c-.14-.08-.29-.14-.42-.22a.74.74,0,0,1-.47-.79.78.78,0,0,1,.73-.61,1.37,1.37,0,0,1,.57,0c.16,0,.2.1.16.26s-.12.21-.27.14l-.1,0c-.21,0-.46-.07-.55.19s.17.37.35.46a1.17,1.17,0,0,1,.65.52C60.51,35.3,60.06,35.8,59.22,35.79Z"/><path class="cls-3" d="M49.83,34.44c0-.34,0-.68,0-1,0-.15,0-.24.2-.23.36,0,.72,0,1.09,0,.16,0,.2.06.21.22s-.08.2-.23.2-.25,0-.37,0c-.31-.05-.38.08-.37.37s0,.36.31.32a3.23,3.23,0,0,1,.44,0c.13,0,.15.07.14.18s0,.21-.13.22H51c-.65,0-.67,0-.65.69,0,.29-.07.38-.35.35s-.19-.06-.19-.2C49.84,35.17,49.83,34.8,49.83,34.44Z"/><path class="cls-3" d="M62.39,33.2v.4c-.63,0-.63,0-.63.7,0,.39,0,.78,0,1.16,0,.22-.06.28-.27.27s-.29,0-.28-.25c0-.48,0-1,0-1.44,0-.33-.05-.5-.42-.43-.08,0-.2,0-.25,0a.51.51,0,0,1,0-.3c0-.12.12-.07.19-.07Z"/><path class="cls-4" d="M52.77,30.74c.1-.26.28-.08.42-.07C53.06,30.77,52.91,30.73,52.77,30.74Z"/><path class="cls-5" d="M47.82,23.49a2.19,2.19,0,0,1-2.26-2.24A2.22,2.22,0,0,1,47.85,19a2.28,2.28,0,0,1,2.25,2.27A2.24,2.24,0,0,1,47.82,23.49Z"/><path class="cls-6" d="M42.33,13.28a.48.48,0,0,1,.05.37h-.05Z"/><path class="cls-7" d="M47.71,30.66c0-.06,0-.12.1-.11a.18.18,0,0,1,.12.17Z"/><path class="cls-8" d="M52.22,34.41a.91.91,0,0,1,0-.17c.06-.44.31-.71.64-.72s.58.27.64.72a1.39,1.39,0,0,1-.08.73.58.58,0,0,1-.56.42.57.57,0,0,1-.56-.42A1.16,1.16,0,0,1,52.22,34.41Z"/><path class="cls-9" d="M44.48,33.56c.2,0,.42.07.44.37s-.19.39-.48.42-.21-.16-.22-.31C44.22,33.57,44.22,33.57,44.48,33.56Z"/><path class="cls-9" d="M55.14,33.91c0-.14-.09-.38.24-.35s.45.08.46.38a.43.43,0,0,1-.49.4C55.14,34.34,55.14,34.34,55.14,33.91Z"/><path class="cls-9" d="M37.14,34.68l.29-1c.06.24.1.4.15.56C37.73,34.73,37.73,34.73,37.14,34.68Z"/><path class="cls-9" d="M46.78,33.63a5.26,5.26,0,0,0,.2.73c.14.32,0,.38-.27.34l-.22,0Z"/></svg>