<svg id="レイヤー_1" data-name="レイヤー 1" xmlns="http://www.w3.org/2000/svg" viewBox="0 0 100 45"><defs><style>.cls-1{fill:#6c8cc7;}.cls-2{fill:#034ea2;}.cls-3{fill:#231f20;}</style></defs><g id="Layer_2" data-name="Layer 2"><g id="ÉåÉCÉÑÅ_1" data-name="ÉåÉCÉÑÅ 1"><path class="cls-1" d="M64.13,19.7c.73.22,1.9-.8,3-4.37s.66-5.84-.21-6.13-2.19,1.46-3.07,4.38-.73,5.83.29,6.12"/><path class="cls-1" d="M62,20.35c.42-.49.57-2-1.2-4.29s-3.59-2.77-4.12-2-.23,2.45,1.22,4.3,3.43,2.83,4.1,2"/><path class="cls-1" d="M60.54,22.62c0-.49-.94-1.31-3.71-1.31s-4.38.9-4.26,1.59,1.48,1.31,3.74,1.29,4.3-.78,4.25-1.57"/><path class="cls-2" d="M61,24.89c-.2-.27-1.09-.3-2.94,1.1s-2.61,2.76-2.29,3.13,1.45.05,3-1.1,2.59-2.65,2.28-3.11"/><path class="cls-2" d="M63.07,25.38c-.36-.13-1.17.47-1.86,3.08s-.47,4.42,0,4.53,1.31-1,1.87-3.13.54-4.3,0-4.5"/><path class="cls-1" d="M65.06,24.62c-.39.41-.5,1.62.89,3.67s3.15,2.43,3.65,1.81.15-2-1-3.68-2.92-2.47-3.55-1.8"/><path class="cls-1" d="M66.09,23c0,.83,1.48,2.06,6,2.18s7.38-1.43,7.31-2.67-2.62-2.11-6.34-2.18S66,21.67,66.09,23"/><path class="cls-1" d="M66.05,20.76c.45.68,2.19.47,5.87-2.27s5-5.4,4.48-6.15-2.89.05-5.87,2.29S65.42,19.8,66,20.76"/><path class="cls-3" d="M28.31,18c-2.86,0-6.1,1.79-6.12,5.64,0,2.6,1.87,3.78,4.5,3.81a5.87,5.87,0,0,0,6.13-5.84C32.75,19.35,30.93,18,28.31,18Zm-1.22,7c-.83,0-1.51-.58-1.39-1.88s1.12-2.65,2.14-2.6a1.33,1.33,0,0,1,1.31,1.36,1.23,1.23,0,0,1,0,.2C29,23.9,28.29,24.93,27.09,25Z"/><path class="cls-3" d="M40.58,18a3.56,3.56,0,0,0-2.95,1.29l0-1.07H34.41L32.29,30.74h3.42l.77-4.33a3.09,3.09,0,0,0,2.46,1c3,0,4.53-2.74,4.64-5.69C43.66,19.37,42.66,18,40.58,18Zm-.53,4.45c-.09,1.36-.69,2.29-1.77,2.3A1.23,1.23,0,0,1,37,23.23c.06-1.28.66-2.62,2-2.59C39.68,20.66,40.13,21.07,40.05,22.4Z"/><path class="cls-3" d="M44.65,18.19l-.42,2.54h1.29s-.42,2.35-.76,4.51S47,27.4,47.54,27.4,50,27.18,50,27.18l.39-2.32-1.52.05c-.71,0-.48-.53.13-4.2h2.09l.42-2.54H49.4L50,14.78l-3.75,1.76L46,18.19Z"/></g></g></svg>