<svg id="レイヤー_1" data-name="レイヤー 1" xmlns="http://www.w3.org/2000/svg" viewBox="0 0 100 45"><defs><style>.cls-1{fill:#171f2a;}</style></defs><polygon class="cls-1" points="23.17 14.87 4.81 14.87 4.81 20.14 10.86 20.14 10.86 28.82 17.45 28.82 17.45 20.14 23.17 20.14 23.17 14.87"/><rect class="cls-1" x="47.83" y="14.82" width="6.38" height="14"/><polygon class="cls-1" points="95.2 23.53 85 23.53 85 14.82 78.62 14.82 78.62 28.82 95.2 28.82 95.2 23.53"/><polygon class="cls-1" points="77.29 28.82 70.38 14.88 62.54 14.88 55.63 28.82 62.57 28.82 66.46 20.98 70.35 28.82 77.29 28.82"/><path class="cls-1" d="M42.08,24.16l2.1-2.11A3.61,3.61,0,0,0,45,19.14c-.74-3.69-5.18-4.32-6.47-4.32H25.73v14h6.38V18.94H39a.93.93,0,0,1,.9.75c0,.55-.54.9-1.42,1.16-.68.2-3.83.64-5.19.84l-.9,0,6.23,7.1h7.5Z"/></svg>