<svg id="レイヤー_1" data-name="レイヤー 1" xmlns="http://www.w3.org/2000/svg" viewBox="0 0 100 45"><defs><style>.cls-1{fill:#b6121d;}.cls-2{fill:#231815;}</style></defs><path class="cls-1" d="M3.77,16.88H9.18c2.12,0,3.53.59,3.53,2.31a2,2,0,0,1-1,1.85,2.41,2.41,0,0,1,1.39,2.21c0,1.7-1.35,2.61-3.54,2.61H3.77ZM9.3,20.43c1.15,0,1.64-.29,1.64-1s-.5-1.05-1.64-1.05H5.53v2.09Zm0,4c1.11,0,2-.22,2-1.28s-.77-1.24-2-1.24H5.53V24.4Z"/><path class="cls-1" d="M17.28,16.88h1.77v9H17.28Z"/><path class="cls-1" d="M22.89,25.86V25l6.26-6.61H23.22V16.88h8.53v1l-6.1,6.48h6.26v1.51Z"/><path class="cls-2" d="M35.91,16.88h5.4c2.13,0,3.66.48,3.66,2.68a2.55,2.55,0,0,1-2.45,2.63h-.06l2.76,3.65H43.05l-2.6-3.53H37.67v3.54H35.91Zm5.14,4c1.43,0,2.17-.21,2.17-1.27s-.74-1.26-2.17-1.26H37.67v2.53Z"/><path class="cls-2" d="M49.14,16.88H57.2v1.51H50.9v2.09h5.42V22H50.9v2.37h6.45v1.51H49.14Z"/><path class="cls-2" d="M64.5,16.88h2l4.36,9H69l-.94-2.06H62.9l-1,2.06H60.08Zm2.87,5.41-1.87-4-1.88,4Z"/><path class="cls-2" d="M83.15,22.66c-.17,1-.89,3.42-5,3.42-2.84,0-5.07-1.58-5.07-4.85,0-2.62,1.64-4.57,5.21-4.57,4,0,4.62,2.6,4.74,3.08H81.26a2.85,2.85,0,0,0-2.89-1.57c-2.48,0-3.52,1.39-3.52,3.25,0,2.07,1.49,3.16,3.42,3.16a3,3,0,0,0,3.13-1.92Z"/><path class="cls-2" d="M95.42,14V16.7H88.89V14H87.12V25.87h1.77v-2.7h6.53v2.69h1.76V14Zm0,4v1.3H88.89V18Zm-6.53,3.9V20.57h6.53v1.32Z"/></svg>