<svg id="レイヤー_1" data-name="レイヤー 1" xmlns="http://www.w3.org/2000/svg" viewBox="0 0 100 45"><defs><style>.cls-1{fill:#313333;}</style></defs><polygon class="cls-1" points="17.38 26.18 17.38 15.38 19.28 15.38 19.28 24.68 23.58 24.68 23.58 26.18 17.38 26.18"/><path class="cls-1" d="M30.78,26a8.24,8.24,0,0,1-2.6.4,4.23,4.23,0,0,1-2-.5,2.78,2.78,0,0,1-1.3-1.5,5.56,5.56,0,0,1-.5-2.3,4.64,4.64,0,0,1,.4-2.1,3.49,3.49,0,0,1,1.2-1.5,2.88,2.88,0,0,1,1.9-.6,2.7,2.7,0,0,1,2.2,1,6.52,6.52,0,0,1,.8,3.7h-4.4a4.15,4.15,0,0,0,.3,1.3,2.7,2.7,0,0,0,.7.8,2.13,2.13,0,0,0,1.2.3,6.83,6.83,0,0,0,2.2-.5V26Zm-4.4-4.6H29a3.23,3.23,0,0,0-.3-1.6,1,1,0,0,0-.8-.5,1.05,1.05,0,0,0-.9.5A2.83,2.83,0,0,0,26.38,21.38Z"/><path class="cls-1" d="M34.58,26.18l-2.7-8.1h2l2,5.8,2-5.8h1.4l-2.7,8.1Z"/><path class="cls-1" d="M46.48,26a8.24,8.24,0,0,1-2.6.4,4.23,4.23,0,0,1-2-.5,2.78,2.78,0,0,1-1.3-1.5,5.56,5.56,0,0,1-.5-2.3,4.64,4.64,0,0,1,.4-2.1,3.49,3.49,0,0,1,1.2-1.5,2.88,2.88,0,0,1,1.9-.6,2.7,2.7,0,0,1,2.2,1,6.52,6.52,0,0,1,.8,3.7h-4.4a4.15,4.15,0,0,0,.3,1.3,2.7,2.7,0,0,0,.7.8,2.13,2.13,0,0,0,1.2.3,6.83,6.83,0,0,0,2.2-.5V26ZM42,21.38h2.5a3.23,3.23,0,0,0-.3-1.6,1,1,0,0,0-.8-.5,1.05,1.05,0,0,0-.9.5A6,6,0,0,0,42,21.38Z"/><path class="cls-1" d="M48.48,26.18v-8.1h1.9v1.6a2.73,2.73,0,0,1,.9-1.2,2.11,2.11,0,0,1,1.3-.5H53v2a2.35,2.35,0,0,0-.8-.2,1.69,1.69,0,0,0-1,.3,2.72,2.72,0,0,0-.8,1v5.1Z"/><path class="cls-1" d="M58,25.38a3.19,3.19,0,0,1-.7.6l-.6.3a1.7,1.7,0,0,1-.7.1,1.8,1.8,0,0,1-1.5-.7,2.35,2.35,0,0,1-.6-1.7,2.52,2.52,0,0,1,.9-2,4.25,4.25,0,0,1,2.8-.8H58v-.7a1.05,1.05,0,0,0-.4-1,1.22,1.22,0,0,0-.9-.3,4.35,4.35,0,0,0-2.3.7v-1.5a6.16,6.16,0,0,1,2.6-.6,5.9,5.9,0,0,1,1.4.2,2.54,2.54,0,0,1,1,.8,3,3,0,0,1,.4,1.5v3.6a1.29,1.29,0,0,0,.2.8c.1.1.2.1.4.1h.3V26a5.16,5.16,0,0,1-1.1.2,2,2,0,0,1-.9-.2c-.3.1-.5-.2-.7-.6Zm0-1.2v-1.7h-.5a2,2,0,0,0-1.4.4,1.39,1.39,0,0,0-.5,1,1.14,1.14,0,0,0,.3.8.91.91,0,0,0,.7.3,1.85,1.85,0,0,0,.7-.2A1.87,1.87,0,0,0,58,24.18Z"/><path class="cls-1" d="M62.28,28.68l.2-1.6a4.87,4.87,0,0,0,2.2.6,2.07,2.07,0,0,0,1.5-.5,2.46,2.46,0,0,0,.5-1.7v-1.1a2.73,2.73,0,0,1-.9,1.2,2.21,2.21,0,0,1-2.8,0,3.88,3.88,0,0,1-1-1.4,6.65,6.65,0,0,1-.3-2.1,5.57,5.57,0,0,1,.8-3,2.51,2.51,0,0,1,2.2-1.2,1.48,1.48,0,0,1,.7.1c.2.1.4.1.6.3a3.19,3.19,0,0,1,.7.6l.2-.8h1.7v6.1a8.48,8.48,0,0,1-.4,3.3,2.74,2.74,0,0,1-1.3,1.3,4.21,4.21,0,0,1-2,.4A5.4,5.4,0,0,1,62.28,28.68Zm4.4-5.5v-3a1.68,1.68,0,0,0-.8-.7,1.85,1.85,0,0,0-.7-.2c-.5,0-.8.3-1.1.8a4,4,0,0,0-.4,2,4,4,0,0,0,.3,1.7,1.1,1.1,0,0,0,1,.6,1.61,1.61,0,0,0,.9-.3A1.46,1.46,0,0,0,66.68,23.18Z"/><path class="cls-1" d="M76.78,26a8.24,8.24,0,0,1-2.6.4,4.23,4.23,0,0,1-2-.5,2.78,2.78,0,0,1-1.3-1.5,5.56,5.56,0,0,1-.5-2.3,4.64,4.64,0,0,1,.4-2.1,3.49,3.49,0,0,1,1.2-1.5,2.88,2.88,0,0,1,1.9-.6,2.7,2.7,0,0,1,2.2,1,6.52,6.52,0,0,1,.8,3.7h-4.4a4.15,4.15,0,0,0,.3,1.3,2.7,2.7,0,0,0,.7.8,2.13,2.13,0,0,0,1.2.3,6.83,6.83,0,0,0,2.2-.5V26Zm-4.4-4.6h2.5a3.23,3.23,0,0,0-.3-1.6,1,1,0,0,0-.8-.5,1.05,1.05,0,0,0-.9.5A2.77,2.77,0,0,0,72.38,21.38Z"/><path class="cls-1" d="M78.58,26v-1.6a5.25,5.25,0,0,0,2.4.7,1.4,1.4,0,0,0,.9-.3.91.91,0,0,0,.3-.7,1.42,1.42,0,0,0-.2-.6,4.23,4.23,0,0,0-.7-.5l-.6-.3a3.56,3.56,0,0,1-1.5-1,2.17,2.17,0,0,1-.5-1.4,2.06,2.06,0,0,1,.7-1.7,2.92,2.92,0,0,1,2.2-.7,8.81,8.81,0,0,1,2.1.3v1.5a5.37,5.37,0,0,0-1.9-.4,2,2,0,0,0-.9.2.86.86,0,0,0-.3.6.76.76,0,0,0,.2.5,2.15,2.15,0,0,0,.7.4l.6.2a4.61,4.61,0,0,1,1.8,1.2,2.12,2.12,0,0,1,.4,1.4,2.5,2.5,0,0,1-.8,1.8,3.11,3.11,0,0,1-2.2.8A8,8,0,0,1,78.58,26Z"/></svg>