<svg id="レイヤー_1" data-name="レイヤー 1" xmlns="http://www.w3.org/2000/svg" viewBox="0 0 100 45"><defs><style>.cls-1{fill:#fefefe;}.cls-2{fill:#cf0717;}.cls-3{fill:#ab141f;}.cls-4{fill:#c30c19;}.cls-5{fill:#e40012;}.cls-6{fill:#e00112;}.cls-7{fill:#d90314;}.cls-8{fill:#cd0717;}.cls-9{fill:#ac131e;}.cls-10{fill:#e00113;}.cls-11{fill:#8a2126;}.cls-12{fill:#8f252a;}.cls-13{fill:#891f24;}.cls-14{fill:#c20b18;}</style></defs><path class="cls-1" d="M52.7,28.85q-16,0-32,0c-.22,0-.54.2-.69-.16a2.08,2.08,0,0,1,1.4-.26c1.44,0,1.44,0,1.45-1.46,0-1.64,0-3.27,0-4.91A4.38,4.38,0,0,1,22.92,21c.38-.67.6-.1.77.13,1,1.33,1.93,2.69,2.87,4.05.63.92,1.32,1.8,1.92,2.74a1.1,1.1,0,0,0,1,.59c.8,0,1.61,0,2.41,0,.14-.34-.12-.5-.25-.69-1.38-2-2.82-4-4.22-6-.56-.8-.56-1,.12-1.68,1.31-1.36,2.54-2.8,3.85-4.15a.42.42,0,0,0,.19-.41,26.37,26.37,0,0,0-3.08,0,1,1,0,0,0-.73.4c-1.17,1.37-2.47,2.63-3.63,4a2.32,2.32,0,0,1-.64.57c-.24.14-.43.14-.54-.16a32.6,32.6,0,0,1-.09-3.83c0-.88-.09-.93-1-1-.62,0-1.27.16-1.84-.26.19-.35.53-.16.78-.16H61.27c5.82,0,11.65,0,17.47,0,.52,0,.63.1.63.61q0,6.3,0,12.61c0,.51-.11.61-.63.61-7.81,0-15.63,0-23.44,0,.11-.53.67-.38,1-.62a4.79,4.79,0,0,0,.88-.36,6.38,6.38,0,0,0,2.51-2.18A2.82,2.82,0,0,0,60,25a6.21,6.21,0,0,0,.67-2.26,3.87,3.87,0,0,0-.07-1.76,3,3,0,0,0-.13-.84A4.8,4.8,0,0,0,60,19a3.71,3.71,0,0,0-.7-1.05c-.15-.29-.46-.49-.45-.86.28-.68,1-1,1.46-1.68a67.65,67.65,0,0,0-7.28.13,6.18,6.18,0,0,0-5.53,4.92,6.26,6.26,0,0,0,2.73,7l.21.14a5.11,5.11,0,0,0,1.58.75C52.28,28.51,52.69,28.41,52.7,28.85Z"/><path d="M23.14,20.74c0,2.34-.06,4.68,0,7,0,.82-.25,1-1,.93s-1.43,0-2.15,0V15.21c.8,0,1.61,0,2.41,0,.55,0,.74.11.72.68,0,1.53,0,3.06,0,4.59A.19.19,0,0,1,23.14,20.74Z"/><path class="cls-2" d="M52.7,28.85c-.14-.3-.52-.1-.69-.35a5.49,5.49,0,0,1,.81-.63c.47-.37.56-.73.18-1.2a.5.5,0,0,1,.35-.33c.46-.17.06-.32,0-.47a.31.31,0,0,1,.13-.2,19.81,19.81,0,0,0,2.55-.5c.46.44-.09.59-.26.84s-.87.5-.76,1.11a.45.45,0,0,1,0,.23,10.2,10.2,0,0,1-1.44,1.5Z"/><path class="cls-3" d="M56.35,28.35c-.25.38-.78.16-1.05.5h-.52c-.22-.74.36-1.08.75-1.52a6.59,6.59,0,0,1,1.75-.43c.73.55-.1.66-.28,1A5,5,0,0,1,56.35,28.35Z"/><path class="cls-4" d="M55.64,27.48a3.23,3.23,0,0,0-.86,1.37H53.57c.23-.72.86-1.08,1.38-1.54A.59.59,0,0,1,55.64,27.48Z"/><path d="M63.09,21.93c0-2,0-4,0-6,0-.58.17-.69.72-.69q4.41,0,8.82,0c.54,0,.77.1.72.69-.07.75.25,1.75-.13,2.22s-1.46.14-2.23.15c-1.35,0-2.71,0-4.06,0-.55,0-.73.12-.72.69,0,1.47,0,1.47,1.51,1.47s3.28,0,4.93,0c.58,0,.74.17.7.71a11.88,11.88,0,0,0,0,1.79c0,.45-.14.57-.59.57-1.93,0-3.86,0-5.79,0-.6,0-.78.15-.76.75,0,1.41,0,1.41,1.45,1.41,1.7,0,3.4,0,5.1,0,.43,0,.62.08.59.55-.06.82.25,1.87-.16,2.38s-1.51.13-2.31.14c-2.36,0-4.73,0-7.09,0-.58,0-.71-.17-.7-.71C63.11,26,63.09,24,63.09,21.93Z"/><path d="M40.5,22.58c1.2-2.3,2.36-4.53,3.5-6.78a.91.91,0,0,1,1-.6c.88.05,1.78,0,2.83,0L46,18.81c-1.57,3.05-3.15,6.09-4.69,9.15a1.12,1.12,0,0,1-1.24.73c-.83-.06-1.67,0-2.58,0a8.58,8.58,0,0,1,1-2,1.23,1.23,0,0,0,0-1.33C36.68,22,35,18.69,33.19,15.21c1.12,0,2.17,0,3.21,0,.41,0,.43.31.55.54,1,2,2.08,4,3.12,6C40.2,22,40.34,22.28,40.5,22.58Z"/><path class="cls-5" d="M50.44,27.83A6.6,6.6,0,0,1,47.14,21a6.87,6.87,0,0,1,5.29-5.62,10.43,10.43,0,0,1,2.23-.17h6.27l-2,2a6.32,6.32,0,0,1-2.21,2.12,6,6,0,0,0-3-.89A3.58,3.58,0,0,0,50.48,23c.13.44.34.84.47,1.28a4.8,4.8,0,0,0,.71,1.24,2.86,2.86,0,0,1,.46.86A1.9,1.9,0,0,1,50.44,27.83Z"/><path d="M23.14,20.74l0-.27c1.54-1.45,2.9-3,4.31-4.61a1.69,1.69,0,0,1,1.46-.67c1.05.08,2.11,0,3.36,0-.9,1-1.69,1.87-2.49,2.74s-1.45,1.61-2.21,2.38a.71.71,0,0,0-.08,1.12c1.7,2.34,3.34,4.72,5.11,7.22-1.28,0-2.41,0-3.54,0-.39,0-.45-.3-.61-.51l-5-7C23.37,21,23.25,20.87,23.14,20.74Z"/><path d="M76.05,21.9c0-2,0-4,0-6,0-.52.12-.71.67-.66.79.08,1.84-.31,2.32.15s.14,1.5.14,2.29c0,3.44,0,6.87,0,10.3,0,.6-.14.81-.75.74-.77-.08-1.78.31-2.24-.14s-.13-1.45-.14-2.21C76,24.86,76.05,23.38,76.05,21.9Z"/><path class="cls-6" d="M55.64,27.48a1.13,1.13,0,0,1-.69-.17v-.17c1.72-1.71,3.39-3.46,5.22-5a.41.41,0,0,1,.55-.08c.28.21.21.5.14.78a4.13,4.13,0,0,1-.73,2.3c-.15.23-.32.44-.46.67a5.55,5.55,0,0,1-1.41,1.06c-.27.14-.54.35-.87.16C56.88,27.4,56.18,27.17,55.64,27.48Z"/><path class="cls-7" d="M60.86,22.8c0-.27,0-.62-.33-.71s-.2.36-.35.45c-1.77,1.12-3,2.8-4.51,4.2a3.59,3.59,0,0,1-.72.4c-.25,0-.59.07-.24-.37s1.09-.9,1.45-1.52c.18-.6.79-.84,1.11-1.32.83-.83,1.71-1.6,2.51-2.46.28-.3.53-.68,1-.63A3.2,3.2,0,0,1,60.86,22.8Z"/><path class="cls-8" d="M60.83,20.84a38.1,38.1,0,0,0-2.76,2.63c-.23.21-.47.4-.71.6-.18-.66.26-1.2.38-1.8.57-1,1.59-1.53,2.3-2.38.19-.23.41-.09.58.09A1.45,1.45,0,0,1,60.83,20.84Z"/><path class="cls-9" d="M59.49,17.91a1.9,1.9,0,0,1,.67,1,.39.39,0,0,1-.07.46c-.83.53-1.33,1.44-2.26,1.86A1.42,1.42,0,0,1,57.26,20,5.34,5.34,0,0,1,59.49,17.91Z"/><path class="cls-10" d="M50.44,27.83A2.8,2.8,0,0,0,52,26.29c.3-.22.52,0,.77.12a.64.64,0,0,1,.27.22c.15.26.74.37.55.63-.4.53-.76,1.21-1.59,1.24A2.92,2.92,0,0,1,50.44,27.83Z"/><path class="cls-11" d="M59.49,17.91,57.35,20c-.44,0-.54-.29-.53-.65A14,14,0,0,1,59,17.25,1.46,1.46,0,0,1,59.49,17.91Z"/><path class="cls-4" d="M57.86,21.18l2.3-2.25A2.16,2.16,0,0,1,60.62,20c-.21,0-.37-.08-.58.15-.67.72-1.41,1.38-2.12,2.07A.73.73,0,0,1,57.86,21.18Z"/><path class="cls-12" d="M57.39,27a6.87,6.87,0,0,0,2.25-1.38c.14,0,.21,0,.15.15A5.4,5.4,0,0,1,57.25,28c-.21.09-.32,0-.4-.19C56.75,27.37,57.72,27.58,57.39,27Z"/><path class="cls-13" d="M56.85,27.82l.4.19a1.3,1.3,0,0,1-.9.34A1,1,0,0,1,56.85,27.82Z"/><path class="cls-13" d="M59.79,25.76l-.15-.15a.85.85,0,0,1,.49-.51A.81.81,0,0,1,59.79,25.76Z"/><path class="cls-1" d="M57.86,21.18l.06,1a7.09,7.09,0,0,1-.56,1.87l-1.2,1.18a4.9,4.9,0,0,1-2.76.56.74.74,0,0,1-.6,0,1.86,1.86,0,0,1-.68-.25,3.51,3.51,0,0,1-1.3-1.18c-.92-1.69-1-3.35.29-4.89a4,4,0,0,1,5.71-.17l.53.65Z"/><path class="cls-14" d="M53.05,26.63H52.7a.34.34,0,0,1,0-.53c.27.15.39-.31.66-.14s.44-.11.5.09-.16.34-.31.44A1.6,1.6,0,0,1,53.05,26.63Z"/><path class="cls-14" d="M53.4,26c-.2,0-.26.37-.52.17a.26.26,0,0,1,0-.41l.52.1Z"/><path class="cls-14" d="M52.88,25.71v.41c-.2.12-.17.31-.18.5-.24-.08-.39-.36-.69-.33l-.51-.69c.16-.32.41-.31.69-.16Z"/><path class="cls-13" d="M52.19,25.44l-.69.16c-.23-.4-.65-.69-.68-1.2Z"/></svg>