<svg id="レイヤー_1" data-name="レイヤー 1" xmlns="http://www.w3.org/2000/svg" xmlns:xlink="http://www.w3.org/1999/xlink" viewBox="0 0 100 45"><defs><style>.cls-1{fill:none;}.cls-2{clip-path:url(#clip-path);}.cls-3{fill:url(#名称未設定グラデーション_4);}.cls-4{clip-path:url(#clip-path-2);}.cls-5{fill:url(#名称未設定グラデーション_4-2);}.cls-6{clip-path:url(#clip-path-3);}.cls-7{fill:url(#名称未設定グラデーション_4-3);}.cls-8{clip-path:url(#clip-path-4);}.cls-9{fill:url(#名称未設定グラデーション_4-4);}.cls-10{clip-path:url(#clip-path-5);}.cls-11{fill:url(#名称未設定グラデーション_5);}.cls-12{fill:url(#名称未設定グラデーション_6);}.cls-13{fill:#231815;}.cls-14{clip-path:url(#clip-path-7);}.cls-15{fill:url(#名称未設定グラデーション_11);}.cls-16{clip-path:url(#clip-path-8);}.cls-17{clip-path:url(#clip-path-9);}.cls-18{clip-path:url(#clip-path-10);}.cls-19{fill:url(#名称未設定グラデーション_11-4);}.cls-20{clip-path:url(#clip-path-11);}</style><clipPath id="clip-path"><path class="cls-1" d="M30.06,18.4c0,3.11,5.12,6.24,11.62,8-4-.42-14.85-3.11-14.85-8,0-3.32,7.32-6.76,12.22-8.21-4.4,2-9,5-9,8.21"/></clipPath><linearGradient id="名称未設定グラデーション_4" x1="-87.45" y1="-516.2" x2="-87.32" y2="-516.2" gradientTransform="translate(64523.6 -10898.27) rotate(-90) scale(124.93)" gradientUnits="userSpaceOnUse"><stop offset="0" stop-color="#9c702f"/><stop offset="0.11" stop-color="#a4792f"/><stop offset="0.3" stop-color="#b9912e"/><stop offset="0.5" stop-color="#d7b42d"/><stop offset="0.51" stop-color="#d4b02d"/><stop offset="0.64" stop-color="#bb932e"/><stop offset="0.76" stop-color="#aa7f2f"/><stop offset="0.88" stop-color="#a0722f"/><stop offset="1" stop-color="#9c6e2f"/></linearGradient><clipPath id="clip-path-2"><path class="cls-1" d="M31.64,18.4c0,4.78,11.74,8.46,22,10.23C43,25.59,34.9,22.19,34.9,18.4c0-4.09,5-7.74,11.07-10.4,0,0-14.33,4.2-14.33,10.4h0"/></clipPath><linearGradient id="名称未設定グラデーション_4-2" x1="-87.13" y1="-517.11" x2="-87" y2="-517.11" gradientTransform="matrix(0, -159.44, 159.44, 0, 82492.53, -13863.77)" xlink:href="#名称未設定グラデーション_4"/><clipPath id="clip-path-3"><path class="cls-1" d="M69.31,18.4c0,3.11-5.13,6.24-11.62,8,4-.42,14.85-3.11,14.85-8,0-3.32-7.32-6.76-12.22-8.21,4.4,2,9,5,9,8.21"/></clipPath><linearGradient id="名称未設定グラデーション_4-3" x1="-87.45" y1="-519.62" x2="-87.32" y2="-519.62" gradientTransform="matrix(0, -124.93, -124.93, 0, -64851.5, -10898.27)" xlink:href="#名称未設定グラデーション_4"/><clipPath id="clip-path-4"><path class="cls-1" d="M67.84,18.4c0,4.78-11.74,8.46-22,10.23,10.66-3,18.78-6.44,18.78-10.23,0-4.09-5-7.74-11.08-10.4,0,0,14.34,4.2,14.34,10.4h0"/></clipPath><linearGradient id="名称未設定グラデーション_4-4" x1="-87.13" y1="-519.78" x2="-87" y2="-519.78" gradientTransform="matrix(0, -159.44, -159.44, 0, -82819.58, -13863.77)" xlink:href="#名称未設定グラデーション_4"/><clipPath id="clip-path-5"><path class="cls-1" d="M50.13,16c0-.08.07-.15,0-.2s-.1-.06-.26-.06h-1a.83.83,0,0,0-.64.22,2.51,2.51,0,0,0-.3.46l-.17-.05c.08-.24.14-.46.24-.86h3.16l.07.11L49,19.32c0,.07-.14.22-.08.33s.16.09.28.09h.9a1.15,1.15,0,0,0,.67-.18,1.34,1.34,0,0,0,.42-.59l.17,0c-.1.34-.23.75-.3,1H47.77l-.07-.11c.12-.18,2.31-3.69,2.43-3.89m-9.94-.28a.94.94,0,0,1,1,1,1,1,0,0,1-.3.83,1,1,0,0,1-.67.18h-.34c-.1,0-.15,0-.15-.17V15.9C39.68,15.7,39.84,15.69,40.19,15.69Zm-.51,2.42c0-.12,0-.17.15-.17H40c.13,0,.17.07.27.22.21.3.49.77.66,1a1.75,1.75,0,0,0,1.57.85,1.08,1.08,0,0,0,.3,0V19.9a.9.9,0,0,1-.48-.19A8.31,8.31,0,0,1,41,17.84c0-.05,0-.06,0-.07a1.2,1.2,0,0,0,.95-1.14,1,1,0,0,0-.69-1,2.67,2.67,0,0,0-1.12-.16H38.46v.17l.17,0c.29,0,.32.16.32.74V19c0,.59,0,.66-.32.74l-.17,0V20h1.71v-.16l-.16,0c-.29-.08-.33-.15-.33-.74Zm4.9.92c0,.59,0,.66-.32.74l-.16,0V20h1.76v-.16l-.17,0c-.29-.08-.32-.15-.32-.74V16.42c0-.58,0-.7.32-.74l.17,0v-.17H44.1v.17l.16,0c.29,0,.32.16.32.74Zm11.73,0-1.23-3.59h-.52l-1.52,4a.42.42,0,0,1-.32.3l-.31.06V20h1.37v-.16l-.15,0c-.23,0-.34,0-.21-.39,0-.14.32-.94.35-1a.26.26,0,0,1,.22-.15h1.06a.26.26,0,0,1,.22.15l.41,1.22a.13.13,0,0,1-.11.18l-.31,0V20h1.68v-.16l-.2,0C56.55,19.73,56.5,19.65,56.31,19.07Zm-1.79-2.75s0,0,0,0l.5,1.48A.11.11,0,0,1,55,18h-.87A.11.11,0,0,1,54,17.8C54.21,17.15,54.44,16.53,54.52,16.32ZM61,15.75a2.72,2.72,0,0,0-1.35-.27H58.06v.17l.16,0c.3,0,.33.16.33.74V19c0,.59,0,.66-.33.74l-.16,0V20h1.71v-.16l-.16,0c-.29-.08-.33-.15-.33-.74v-.71c0-.12,0-.17.15-.17h.48a2.42,2.42,0,0,0,1-.27,1.22,1.22,0,0,0,.69-1.11A1.19,1.19,0,0,0,61,15.75ZM59.92,17.9a1.93,1.93,0,0,1-.33,0h-.16c-.1,0-.15-.05-.15-.18V15.88c0-.18.16-.19.51-.19a1,1,0,0,1,1,1.08C60.83,17.35,60.7,17.76,59.92,17.9Z"/></clipPath><linearGradient id="名称未設定グラデーション_5" x1="-91.25" y1="-512.73" x2="-91.12" y2="-512.73" gradientTransform="translate(18056.67 -3184.59) rotate(-90) scale(35.12)" gradientUnits="userSpaceOnUse"><stop offset="0" stop-color="#ad802b"/><stop offset="0.3" stop-color="#b88b28"/><stop offset="1" stop-color="#d7b42d"/></linearGradient><linearGradient id="名称未設定グラデーション_6" x1="-91.25" y1="-512.73" x2="-91.12" y2="-512.73" gradientTransform="translate(18056.67 -3184.59) rotate(-90) scale(35.12)" gradientUnits="userSpaceOnUse"><stop offset="0" stop-color="#ad802b"/><stop offset="0.29" stop-color="#b88b28"/><stop offset="1" stop-color="#d7b42d"/></linearGradient><clipPath id="clip-path-7"><path class="cls-1" d="M42.82,36.17a2.93,2.93,0,0,1-.75.27,3.47,3.47,0,0,1-.79.08,2.28,2.28,0,0,1-.8-.13,1.86,1.86,0,0,1-.63-.39,1.6,1.6,0,0,1-.41-.61,2.07,2.07,0,0,1-.15-.8,2,2,0,0,1,.15-.8,1.64,1.64,0,0,1,.41-.62,2,2,0,0,1,.63-.38,2.28,2.28,0,0,1,.8-.14,3,3,0,0,1,.81.11,1.54,1.54,0,0,1,.65.36l-.57.63a1,1,0,0,0-.37-.26,1.35,1.35,0,0,0-.52-.09,1.24,1.24,0,0,0-.48.09,1.08,1.08,0,0,0-.59.62,1.51,1.51,0,0,0-.08.48,1.4,1.4,0,0,0,.08.47,1,1,0,0,0,.23.38,1.16,1.16,0,0,0,.36.25,1.46,1.46,0,0,0,.48.08,1.93,1.93,0,0,0,.45-.05,1.6,1.6,0,0,0,.31-.13V35h-.66v-.75h1.44v1.93"/></clipPath><linearGradient id="名称未設定グラデーション_11" x1="-84.68" y1="-518.3" x2="-84.55" y2="-518.3" gradientTransform="translate(13730.27 83835.6) scale(161.68)" gradientUnits="userSpaceOnUse"><stop offset="0" stop-color="#9c702f"/><stop offset="0.11" stop-color="#a4792f"/><stop offset="0.3" stop-color="#b9912e"/><stop offset="0.5" stop-color="#d7b42d"/><stop offset="0.7" stop-color="#b9912e"/><stop offset="0.89" stop-color="#a4792f"/><stop offset="1" stop-color="#9c702f"/></linearGradient><clipPath id="clip-path-8"><path class="cls-1" d="M44.12,32.74h1.43a2.33,2.33,0,0,1,.53.06,1.35,1.35,0,0,1,.44.18.89.89,0,0,1,.3.34,1.13,1.13,0,0,1,.12.54,1.09,1.09,0,0,1-.21.67.9.9,0,0,1-.59.34l.94,1.56h-1L45.33,35h-.4v1.47h-.81V32.74m.81,1.53h.71a.72.72,0,0,0,.22,0,.43.43,0,0,0,.17-.13.37.37,0,0,0,.06-.23.49.49,0,0,0-.05-.23.44.44,0,0,0-.15-.12.66.66,0,0,0-.2-.06l-.23,0h-.53Z"/></clipPath><clipPath id="clip-path-9"><path class="cls-1" d="M47.88,34.59a2,2,0,0,1,.15-.8,1.77,1.77,0,0,1,.41-.62,2,2,0,0,1,.63-.38,2.28,2.28,0,0,1,.8-.14,2.32,2.32,0,0,1,.8.14,1.85,1.85,0,0,1,.62.38,1.79,1.79,0,0,1,.42.62,2,2,0,0,1,.15.8,2.07,2.07,0,0,1-.15.8,1.75,1.75,0,0,1-.42.61,1.72,1.72,0,0,1-.62.39,2.32,2.32,0,0,1-.8.13,2.28,2.28,0,0,1-.8-.13,1.86,1.86,0,0,1-.63-.39,1.73,1.73,0,0,1-.41-.61,2.07,2.07,0,0,1-.15-.8m.84,0a1.4,1.4,0,0,0,.08.47,1.21,1.21,0,0,0,.23.38,1.34,1.34,0,0,0,.37.25,1.36,1.36,0,0,0,.47.08,1.4,1.4,0,0,0,.47-.08,1.16,1.16,0,0,0,.36-.25,1,1,0,0,0,.23-.38,1.19,1.19,0,0,0,.08-.47,1.27,1.27,0,0,0-.08-.48,1.08,1.08,0,0,0-.59-.62,1.19,1.19,0,0,0-.47-.09,1.09,1.09,0,0,0-1.07.71A1.51,1.51,0,0,0,48.72,34.59Z"/></clipPath><clipPath id="clip-path-10"><path class="cls-1" d="M56.1,35a1.64,1.64,0,0,1-.1.6,1.17,1.17,0,0,1-.29.48,1.31,1.31,0,0,1-.49.32,1.75,1.75,0,0,1-.67.11,1.8,1.8,0,0,1-.68-.11,1.35,1.35,0,0,1-.48-.32,1.31,1.31,0,0,1-.3-.48A1.89,1.89,0,0,1,53,35V32.74h.82V35a.78.78,0,0,0,0,.31.93.93,0,0,0,.15.26.81.81,0,0,0,.24.17.92.92,0,0,0,.6,0,.66.66,0,0,0,.23-.17.61.61,0,0,0,.15-.26.78.78,0,0,0,.06-.31V32.74h.81V35"/></clipPath><linearGradient id="名称未設定グラデーション_11-4" x1="-84.68" y1="-518.3" x2="-84.55" y2="-518.3" xlink:href="#名称未設定グラデーション_11"/><clipPath id="clip-path-11"><path class="cls-1" d="M57.43,32.74H58.8a2.44,2.44,0,0,1,.55.06,1.08,1.08,0,0,1,.44.18.83.83,0,0,1,.3.34,1.08,1.08,0,0,1,.11.54,1.29,1.29,0,0,1-.1.55.8.8,0,0,1-.29.34,1.13,1.13,0,0,1-.43.19,2.92,2.92,0,0,1-.54.05h-.59v1.44h-.82V32.74m.82,1.57h.54l.21,0a.48.48,0,0,0,.18-.06.35.35,0,0,0,.13-.14.48.48,0,0,0,0-.22.36.36,0,0,0-.06-.22.58.58,0,0,0-.17-.14.77.77,0,0,0-.23-.06h-.65Z"/></clipPath></defs><g class="cls-2"><rect class="cls-3" x="26.83" y="10.19" width="14.85" height="16.16"/></g><g class="cls-4"><rect class="cls-5" x="31.64" y="8" width="22.04" height="20.63"/></g><g class="cls-6"><rect class="cls-7" x="57.69" y="10.19" width="14.85" height="16.16"/></g><g class="cls-8"><rect class="cls-9" x="45.8" y="8" width="22.04" height="20.63"/></g><g class="cls-10"><rect class="cls-11" x="38.46" y="15.48" width="23.17" height="4.54"/></g><g class="cls-10"><rect class="cls-12" x="38.46" y="15.48" width="23.17" height="4.54"/></g><path class="cls-13" d="M42.82,36.17a2.93,2.93,0,0,1-.75.27,3.47,3.47,0,0,1-.79.08,2.28,2.28,0,0,1-.8-.13,1.86,1.86,0,0,1-.63-.39,1.6,1.6,0,0,1-.41-.61,2.07,2.07,0,0,1-.15-.8,2,2,0,0,1,.15-.8,1.64,1.64,0,0,1,.41-.62,2,2,0,0,1,.63-.38,2.28,2.28,0,0,1,.8-.14,3,3,0,0,1,.81.11,1.54,1.54,0,0,1,.65.36l-.57.63a1,1,0,0,0-.37-.26,1.35,1.35,0,0,0-.52-.09,1.24,1.24,0,0,0-.48.09,1.08,1.08,0,0,0-.59.62,1.51,1.51,0,0,0-.08.48,1.4,1.4,0,0,0,.08.47,1,1,0,0,0,.23.38,1.16,1.16,0,0,0,.36.25,1.46,1.46,0,0,0,.48.08,1.93,1.93,0,0,0,.45-.05,1.6,1.6,0,0,0,.31-.13V35h-.66v-.75h1.44v1.93"/><path class="cls-13" d="M44.12,32.74h1.43a2.33,2.33,0,0,1,.53.06,1.35,1.35,0,0,1,.44.18.89.89,0,0,1,.3.34,1.13,1.13,0,0,1,.12.54,1.09,1.09,0,0,1-.21.67.9.9,0,0,1-.59.34l.94,1.56h-1L45.33,35h-.4v1.47h-.81V32.74m.81,1.53h.71a.72.72,0,0,0,.22,0,.43.43,0,0,0,.17-.13.37.37,0,0,0,.06-.23.49.49,0,0,0-.05-.23.44.44,0,0,0-.15-.12.66.66,0,0,0-.2-.06l-.23,0h-.53Z"/><path class="cls-13" d="M47.88,34.59a2,2,0,0,1,.15-.8,1.77,1.77,0,0,1,.41-.62,2,2,0,0,1,.63-.38,2.28,2.28,0,0,1,.8-.14,2.32,2.32,0,0,1,.8.14,1.85,1.85,0,0,1,.62.38,1.79,1.79,0,0,1,.42.62,2,2,0,0,1,.15.8,2.07,2.07,0,0,1-.15.8,1.75,1.75,0,0,1-.42.61,1.72,1.72,0,0,1-.62.39,2.32,2.32,0,0,1-.8.13,2.28,2.28,0,0,1-.8-.13,1.86,1.86,0,0,1-.63-.39,1.73,1.73,0,0,1-.41-.61,2.07,2.07,0,0,1-.15-.8m.84,0a1.4,1.4,0,0,0,.08.47,1.21,1.21,0,0,0,.23.38,1.34,1.34,0,0,0,.37.25,1.36,1.36,0,0,0,.47.08,1.4,1.4,0,0,0,.47-.08,1.16,1.16,0,0,0,.36-.25,1,1,0,0,0,.23-.38,1.19,1.19,0,0,0,.08-.47,1.27,1.27,0,0,0-.08-.48,1.08,1.08,0,0,0-.59-.62,1.19,1.19,0,0,0-.47-.09,1.09,1.09,0,0,0-1.07.71A1.51,1.51,0,0,0,48.72,34.59Z"/><path class="cls-13" d="M56.1,35a1.64,1.64,0,0,1-.1.6,1.17,1.17,0,0,1-.29.48,1.31,1.31,0,0,1-.49.32,1.75,1.75,0,0,1-.67.11,1.8,1.8,0,0,1-.68-.11,1.35,1.35,0,0,1-.48-.32,1.31,1.31,0,0,1-.3-.48A1.89,1.89,0,0,1,53,35V32.74h.82V35a.78.78,0,0,0,0,.31.93.93,0,0,0,.15.26.81.81,0,0,0,.24.17.92.92,0,0,0,.6,0,.66.66,0,0,0,.23-.17.61.61,0,0,0,.15-.26.78.78,0,0,0,.06-.31V32.74h.81V35"/><path class="cls-13" d="M57.43,32.74H58.8a2.44,2.44,0,0,1,.55.06,1.08,1.08,0,0,1,.44.18.83.83,0,0,1,.3.34,1.08,1.08,0,0,1,.11.54,1.29,1.29,0,0,1-.1.55.8.8,0,0,1-.29.34,1.13,1.13,0,0,1-.43.19,2.92,2.92,0,0,1-.54.05h-.59v1.44h-.82V32.74m.82,1.57h.54l.21,0a.48.48,0,0,0,.18-.06.35.35,0,0,0,.13-.14.48.48,0,0,0,0-.22.36.36,0,0,0-.06-.22.58.58,0,0,0-.17-.14.77.77,0,0,0-.23-.06h-.65Z"/><g class="cls-14"><rect class="cls-15" x="39.29" y="32.65" width="3.54" height="3.87"/></g><g class="cls-16"><rect class="cls-15" x="44.12" y="32.74" width="2.96" height="3.69"/></g><g class="cls-17"><rect class="cls-15" x="47.88" y="32.65" width="3.98" height="3.87"/></g><g class="cls-18"><rect class="cls-19" x="52.99" y="32.74" width="3.11" height="3.78"/></g><g class="cls-20"><rect class="cls-15" x="57.43" y="32.74" width="2.77" height="3.69"/></g></svg>