<svg id="レイヤー_1" data-name="レイヤー 1" xmlns="http://www.w3.org/2000/svg" viewBox="0 0 100 45"><polygon points="25.02 13.19 25.02 16.54 21.98 16.54 21.98 13.19 20.14 13.19 20.14 21.93 21.98 21.93 21.98 18.38 25.02 18.38 25.02 21.93 26.86 21.93 26.86 13.19 25.02 13.19"/><path d="M41,13.19H38v1.69h0V17h0v1.69h0v3.23h1.84V18.7H41a2.76,2.76,0,0,0,.17-5.51ZM41,17H39.82V14.88H41A1.07,1.07,0,1,1,41,17Z"/><path d="M32.44,13A4.56,4.56,0,1,0,37,17.55,4.55,4.55,0,0,0,32.44,13Zm0,7.39a2.83,2.83,0,1,1,2.83-2.84,2.83,2.83,0,0,1-2.83,2.84Z"/><rect x="50.56" y="13.19" width="1.84" height="8.75"/><rect x="67.07" y="20.09" width="1.84" height="1.84"/><polygon points="66.91 13.19 59.81 13.19 59.81 14.88 62.44 14.88 62.44 21.93 64.28 21.93 64.28 14.88 66.91 14.88 66.91 13.19"/><polygon points="46.51 20.25 46.51 13.19 44.68 13.19 44.68 21.93 49.46 21.93 49.46 20.25 46.51 20.25"/><path d="M18,17.39a5.1,5.1,0,0,0-1.72-.84,2.33,2.33,0,0,1-.9-.46.58.58,0,0,1-.2-.46v0c0-.34.24-.76,1.11-.86h.22a3.23,3.23,0,0,1,1.23.26l.38.18,0,0,.49-1.53A4.87,4.87,0,0,0,16.52,13h-.35a2.69,2.69,0,0,0-2.65,2.52v.08a2.29,2.29,0,0,0,.73,1.7,4,4,0,0,0,1.57.86,3.6,3.6,0,0,1,1.14.53.77.77,0,0,1,.35.65v.08a.76.76,0,0,1-.4.64,1.74,1.74,0,0,1-.72.26h0a4.62,4.62,0,0,1-2.45-.52l-.49,1.48a4.76,4.76,0,0,0,2.61.76H16a3.46,3.46,0,0,0,1.87-.55,2.54,2.54,0,0,0,1.17-2v-.2A2.5,2.5,0,0,0,18,17.39Z"/><path d="M58.23,17.39a5.1,5.1,0,0,0-1.72-.84,2.33,2.33,0,0,1-.9-.46.58.58,0,0,1-.2-.46v0c0-.34.24-.76,1.11-.86h.22a3.41,3.41,0,0,1,1.61.44l0,0,.49-1.53A5,5,0,0,0,56.71,13h-.35a2.69,2.69,0,0,0-2.65,2.52v.08a2.28,2.28,0,0,0,.72,1.7,3.92,3.92,0,0,0,1.59.86,3.6,3.6,0,0,1,1.14.53.77.77,0,0,1,.35.65v.08a.8.8,0,0,1-.4.64,1.73,1.73,0,0,1-.73.26h0a4.59,4.59,0,0,1-2.44-.52l-.5,1.48a4.76,4.76,0,0,0,2.61.76h.12A3.46,3.46,0,0,0,58,21.52a2.54,2.54,0,0,0,1.17-2v-.2A2.53,2.53,0,0,0,58.23,17.39Z"/><path d="M80.78,19.23a2.54,2.54,0,1,1-5.07,0,2.54,2.54,0,1,1,5.07,0Zm-3.73,0a1.23,1.23,0,1,0,2.4,0c0-.72-.46-1.51-1.2-1.51A1.38,1.38,0,0,0,77.05,19.23Z"/><path d="M88.85,17.93A1.74,1.74,0,0,0,86,16.88a1.71,1.71,0,0,0-.35.36,1.62,1.62,0,0,0-2.24-.56A1.39,1.39,0,0,0,83,17v-.46H81.63v5.2H83V19.14c0-.57.13-1.37.89-1.37s.82.92.82,1.42v2.58h1.26v-2.5c0-.53,0-1.5.84-1.5s.74.83.74,1.34v2.68h1.4V18.6A3,3,0,0,0,88.85,17.93Z"/><path d="M74.16,20.64l-.39.07A2.26,2.26,0,0,0,74.16,20.64Z"/><path d="M73.77,20.71h0Z"/><path d="M73.77,20.71h-.13a1.48,1.48,0,0,1-1.57-1.39s0-.05,0-.07a1.51,1.51,0,0,1,1.5-1.52h0a2,2,0,0,1,1,.27l.09.06L75,16.87l-.11-.05a2.94,2.94,0,0,0-1.34-.32,2.69,2.69,0,0,0-2.86,2.73,2.65,2.65,0,0,0,2.78,2.7,3.24,3.24,0,0,0,1.43-.31V20.37a3.91,3.91,0,0,1-.75.26A1.77,1.77,0,0,1,73.77,20.71Z"/><path d="M35,27.05c0,.09,0,.12.06.12a1.28,1.28,0,0,1,.71-.21,1.22,1.22,0,0,1,1.28,1.18.21.21,0,0,1,0,.11,1.46,1.46,0,0,1-1.6,1.46,3.42,3.42,0,0,1-.9-.18.23.23,0,0,0-.17.1,0,0,0,0,1-.05,0s-.07,0-.07,0,0-.38,0-.62V26c0-.44,0-.48-.15-.57l-.1-.06s0-.13,0-.15c.27-.07.61-.21.89-.31a.07.07,0,0,1,.09,0c0,.27,0,.66,0,1Zm0,1.52a1.12,1.12,0,0,0,.15.65.62.62,0,0,0,.45.23c.46,0,.71-.42.71-1,0-.76-.42-1.17-.9-1.17a.73.73,0,0,0-.33.08c-.06,0-.08.13-.08.35Z"/><path d="M37.36,30.89c0-.21.16-.29.34-.29h.15a.39.39,0,0,0,.29-.13,1.58,1.58,0,0,0,.33-.8,1.17,1.17,0,0,0-.11-.49l-.55-1.36c-.16-.41-.21-.5-.47-.56l-.13,0a.1.1,0,0,1,0-.15s0,0,0,0l.75,0c.25,0,.48,0,.71,0a.13.13,0,0,1,0,.18l-.21.05c-.15,0-.16,0,0,.34l.3.75a1.83,1.83,0,0,0,.23.49,1.9,1.9,0,0,0,.21-.4l.2-.44a3.45,3.45,0,0,0,.25-.63c0-.06,0-.09-.13-.11l-.23-.05a.13.13,0,0,1,0-.18l.64,0a5.15,5.15,0,0,0,.54,0c.07,0,.07.14,0,.18a.84.84,0,0,0-.38.15,2.84,2.84,0,0,0-.42.66l-.34.66c-.23.45-.83,1.61-1.12,2.2a.52.52,0,0,1-.51.35.34.34,0,0,1-.37-.29Z"/><path d="M45.72,28.34a1.46,1.46,0,0,1-1.36,1c-.81,0-1.57-.72-1.57-2s.81-2,1.53-2a1.2,1.2,0,0,1,1.25.95.18.18,0,0,0,.26,0h0s0-.29,0-.47a3.59,3.59,0,0,0,0-.36h0c0-.07-.13-.14-.16-.16a3.78,3.78,0,0,0-1.25-.22,2.91,2.91,0,0,0-1.84.59,2.18,2.18,0,0,0-.81,1.76,2.11,2.11,0,0,0,.85,1.75,3,3,0,0,0,1.79.5,2.7,2.7,0,0,0,.49,0c.14,0,.78-.17,1-.44a3.84,3.84,0,0,0,.15-.81.19.19,0,0,0-.26-.05Z"/><path d="M64.82,28.43c-.36.75-.59.84-1.24.84H63c-.54,0-.61,0-.61-.09a10.67,10.67,0,0,1,.83-1.37l.73-1.12a15.9,15.9,0,0,1,1-1.43.1.1,0,0,0,0-.1c-.12,0-.32,0-.78,0h-2.2l-.3,0s-.13,0-.18.05c0,.3-.12.62-.22,1a.2.2,0,0,0,.26.05c.23-.56.37-.76,1.14-.76h.72c.17,0,.23,0,.23,0a.5.5,0,0,1-.07.16c-.12.22-.44.72-.56.9l-1.31,2c-.2.3-.51.78-.61.89a.09.09,0,0,0,0,.11c.11,0,.32,0,.67,0H64a2.47,2.47,0,0,0,.86-.08,5.82,5.82,0,0,0,.24-1A.2.2,0,0,0,64.82,28.43Z"/><path d="M55.66,27.36a2.22,2.22,0,0,1-2.42,2.32,2.17,2.17,0,0,1-2.31-2.27,2.3,2.3,0,0,1,2.25-2.34h.13A2.21,2.21,0,0,1,55.66,27.36Zm-2.39-2c-.82,0-1.26.77-1.26,1.88,0,.8.28,2.11,1.37,2.11.87,0,1.21-.85,1.21-1.93S54.09,25.38,53.27,25.38Z"/><path d="M60.84,27.36a2.21,2.21,0,0,1-2.41,2.32,2.18,2.18,0,0,1-2.32-2.27,2.3,2.3,0,0,1,2.25-2.34h.13A2.2,2.2,0,0,1,60.84,27.36Zm-2.39-2c-.82,0-1.26.77-1.26,1.88,0,.8.29,2.11,1.37,2.11.87,0,1.21-.85,1.21-1.93s-.49-2.06-1.32-2.06Z"/><path d="M49.83,29.61H51a.18.18,0,0,0,0-.22.93.93,0,0,1-.41-.23,5,5,0,0,1-1-1.65c0-.07,0-.11,0-.15a1.09,1.09,0,0,0,.72-1,1.12,1.12,0,0,0-.6-1,2.85,2.85,0,0,0-1.32-.25H46.57c-.08,0-.08.24,0,.27l.18,0c.28,0,.3.15.3.82v2.39c0,.62,0,.67-.35.73l-.18,0a.18.18,0,0,0,0,.24h2a.21.21,0,0,0,0-.24l-.18,0c-.31-.06-.35-.11-.35-.73v-.84a.13.13,0,0,1,.14-.13h.29a.34.34,0,0,1,.36.24l.63,1.25S49.56,29.61,49.83,29.61Zm-.75-2.46a.68.68,0,0,1-.52.19H48.1a.13.13,0,0,1-.14-.13V25.77c0-.33.2-.35.47-.35a.89.89,0,0,1,.89,1,1,1,0,0,1-.24.73Z"/></svg>