<svg id="レイヤー_1" data-name="レイヤー 1" xmlns="http://www.w3.org/2000/svg" viewBox="0 0 100 45"><defs><style>.cls-1{fill:#d80c18;}.cls-2{stroke:#000;stroke-width:0.02px;}</style></defs><path class="cls-1" d="M25.88,32l-9.5-9.5,9.5-9.5,9.5,9.5Zm-8.82-9.5,8.82,8.82L34.7,22.5l-8.82-8.82Z"/><path d="M21.25,27.27v-.48a4.79,4.79,0,0,0,3.27-1.06,5.13,5.13,0,0,0,1.09-3l0-.26c0-.25.07-.5.1-.74a4.26,4.26,0,0,1,1.06-2.89,4.84,4.84,0,0,1,3.61-1.21v.48a4.31,4.31,0,0,0-3.27,1.07,3.93,3.93,0,0,0-.93,2.6c0,.25-.05.5-.09.76l0,.26a5.52,5.52,0,0,1-1.22,3.27A5.22,5.22,0,0,1,21.25,27.27Z"/><path class="cls-1" d="M17.73,23.76l-1.28-1.27L25.91,13l1.28,1.28Zm-.64-1.27.64.64,8.83-8.83-.65-.64Z"/><path class="cls-1" d="M25.91,32l-9.46-9.46,1.27-1.28,9.47,9.46Zm-8.83-9.46,8.83,8.83.64-.64-8.82-8.84Z"/><path class="cls-2" d="M26.77,22.21h.42v.08h-.33v.26h.33v.08h-.33V23h-.09Z"/><path class="cls-2" d="M27.31,22.42h.08v.29a.33.33,0,0,0,0,.14.15.15,0,0,0,.06.09.27.27,0,0,0,.12,0,.2.2,0,0,0,.11,0,.18.18,0,0,0,.07-.08.76.76,0,0,0,0-.15v-.29h.09v.3a.58.58,0,0,1,0,.19.18.18,0,0,1-.09.1.28.28,0,0,1-.15,0,.29.29,0,0,1-.16,0,.18.18,0,0,1-.09-.1.4.4,0,0,1,0-.19Z"/><path class="cls-2" d="M28.33,22.49l0,.05a.14.14,0,0,0-.12-.06l-.06,0a.09.09,0,0,0,0,.06.14.14,0,0,0,0,.06.24.24,0,0,0,.09.06.27.27,0,0,1,.12.09.17.17,0,0,1,0,.1.14.14,0,0,1,0,.13.19.19,0,0,1-.13.05l-.1,0A.27.27,0,0,1,28,23l.05-.05a.16.16,0,0,0,.13.06.13.13,0,0,0,.08,0,.08.08,0,0,0,0-.07.14.14,0,0,0,0-.06.21.21,0,0,0-.1-.06.31.31,0,0,1-.11-.09.16.16,0,0,1,0-.09.16.16,0,0,1,0-.12.21.21,0,0,1,.12-.05A.26.26,0,0,1,28.33,22.49Z"/><path class="cls-2" d="M28.49,22.17a.07.07,0,0,1,.07.06h0a.08.08,0,0,1,0,0l-.05,0,0,0a.06.06,0,0,1,0-.09Zm0,.25h.07V23h-.07Z"/><path class="cls-2" d="M29.29,22.55l-.06,0a.28.28,0,0,0-.22-.11.26.26,0,0,0-.19.07.22.22,0,0,0-.07.17.28.28,0,0,0,0,.13.26.26,0,0,0,.09.09.3.3,0,0,0,.36-.07l.06,0a.29.29,0,0,1-.12.1.47.47,0,0,1-.16,0,.35.35,0,0,1-.25-.1.29.29,0,0,1-.09-.22.42.42,0,0,1,0-.16.3.3,0,0,1,.13-.12.33.33,0,0,1,.17,0l.12,0,.1,0Z"/><path class="cls-2" d="M30.5,22.4l-.06.05a.32.32,0,0,0-.28-.13.39.39,0,0,0-.18,0,.34.34,0,0,0-.12.12.33.33,0,0,0,0,.17.3.3,0,0,0,.09.24.39.39,0,0,0,.25.1.37.37,0,0,0,.28-.13l.06,0a.44.44,0,0,1-.15.12.43.43,0,0,1-.19,0,.4.4,0,0,1-.42-.38s0,0,0,0a.38.38,0,0,1,.11-.29.45.45,0,0,1,.31-.12.43.43,0,0,1,.19,0A.44.44,0,0,1,30.5,22.4Z"/><path class="cls-2" d="M30.94,22.4a.3.3,0,0,1,.23.11.29.29,0,0,1,.09.21.32.32,0,0,1-.09.23.29.29,0,0,1-.23.09.28.28,0,0,1-.23-.09.32.32,0,0,1-.09-.23.31.31,0,0,1,.32-.32Zm0,.08a.24.24,0,0,0-.24.25.27.27,0,0,0,0,.12.22.22,0,0,0,.21.12.27.27,0,0,0,.12,0,.24.24,0,0,0,.08-.09.26.26,0,0,0,0-.3.28.28,0,0,0-.17-.07Z"/><path class="cls-2" d="M31.49,22.91a.07.07,0,0,1,.07.07h0a.08.08,0,0,1,0,.05l-.05,0,0,0a.07.07,0,0,1,0-.1Z"/><path class="cls-2" d="M31.8,22.88l.08,0-.12.21-.05,0Z"/><path class="cls-2" d="M32.05,22.21h.08V23h.32V23h-.4Z"/><path class="cls-2" d="M32.64,22.2h.08v.22h.12v.07h-.12V23h-.08v-.55h-.11v-.07h.11Z"/><path class="cls-2" d="M33.57,22.18V23H33.5v-.1a.38.38,0,0,1-.12.09.28.28,0,0,1-.13,0A.32.32,0,0,1,33,23a.33.33,0,0,1-.1-.23.34.34,0,0,1,.32-.32.23.23,0,0,1,.14,0,.31.31,0,0,1,.11.09v-.36Zm-.32.3a.27.27,0,0,0-.12,0,.76.76,0,0,0-.09.09.28.28,0,0,0,0,.25.38.38,0,0,0,.09.09.28.28,0,0,0,.12,0,.2.2,0,0,0,.13,0l.09-.08a.31.31,0,0,0,0-.13.29.29,0,0,0-.07-.18.28.28,0,0,0-.17-.07Z"/><path class="cls-2" d="M33.84,22.91l0,0a.07.07,0,0,1,0,.1.07.07,0,0,1-.1,0h0a.07.07,0,0,1,0-.1Z"/><path d="M38.76,19.81h2.46v.48h-2v1.54h2v.48h-2v2.42h-.49Z"/><path d="M41.94,21.1h.47v1.69a3.53,3.53,0,0,0,.07.86,1,1,0,0,0,.38.53,1.28,1.28,0,0,0,1.34,0,1,1,0,0,0,.38-.5,3.78,3.78,0,0,0,.07-.89V21.1h.47v1.78A3,3,0,0,1,45,24a1.37,1.37,0,0,1-.53.59,1.73,1.73,0,0,1-.89.22,1.69,1.69,0,0,1-.88-.22,1.29,1.29,0,0,1-.53-.6,2.88,2.88,0,0,1-.18-1.16Z"/><path d="M48,21.49l-.3.31a1.09,1.09,0,0,0-.73-.36.54.54,0,0,0-.39.15.44.44,0,0,0-.16.35.51.51,0,0,0,.13.34,1.79,1.79,0,0,0,.56.38,2.18,2.18,0,0,1,.71.52.94.94,0,0,1,.19.58,1,1,0,0,1-.32.75,1.06,1.06,0,0,1-.79.32,1.36,1.36,0,0,1-1.08-.51l.3-.34a1,1,0,0,0,.76.41.72.72,0,0,0,.48-.18.57.57,0,0,0,.19-.43.51.51,0,0,0-.13-.35,1.79,1.79,0,0,0-.59-.39,2.07,2.07,0,0,1-.67-.5A1,1,0,0,1,46,22a.9.9,0,0,1,.28-.69A1,1,0,0,1,47,21,1.5,1.5,0,0,1,48,21.49Z"/><path d="M49,19.6a.41.41,0,0,1,.28.11.39.39,0,0,1,.11.27.39.39,0,0,1-.39.39A.38.38,0,0,1,48.6,20,.38.38,0,0,1,49,19.6Zm-.23,1.5h.47v3.63h-.47Z"/><path d="M53.72,21.85l-.37.24a1.65,1.65,0,0,0-2.42-.21,1.41,1.41,0,0,0-.44,1,1.53,1.53,0,0,0,.2.75,1.39,1.39,0,0,0,.56.54,1.66,1.66,0,0,0,.79.2,1.6,1.6,0,0,0,1.31-.64l.37.24a1.8,1.8,0,0,1-.7.61,2.17,2.17,0,0,1-1,.21,2,2,0,0,1-1.44-.54A1.78,1.78,0,0,1,50,22.94a1.89,1.89,0,0,1,.26-1,2,2,0,0,1,.73-.71,2.1,2.1,0,0,1,1-.25,2.38,2.38,0,0,1,.7.11,1.81,1.81,0,0,1,.57.29A1.56,1.56,0,0,1,53.72,21.85Z"/><path d="M61.17,20.73l-.39.3a2,2,0,0,0-.77-.64,2.24,2.24,0,0,0-1-.22,2.33,2.33,0,0,0-1.09.28,2,2,0,0,0-.77.76,2.14,2.14,0,0,0-.28,1.07,2,2,0,0,0,.62,1.51,2.16,2.16,0,0,0,1.56.6,2.19,2.19,0,0,0,1.73-.81l.38.3a2.4,2.4,0,0,1-.92.72,2.86,2.86,0,0,1-1.23.26A2.56,2.56,0,0,1,57,24a2.63,2.63,0,0,1-.63-1.76,2.43,2.43,0,0,1,.76-1.81,2.63,2.63,0,0,1,1.9-.74,2.78,2.78,0,0,1,1.24.28A2.31,2.31,0,0,1,61.17,20.73Z"/><path d="M63.8,21a1.83,1.83,0,0,1,1.4.61,2,2,0,0,1,0,2.64,1.92,1.92,0,0,1-2.72,0h0a1.93,1.93,0,0,1,0-2.64A1.8,1.8,0,0,1,63.8,21Zm0,.46a1.32,1.32,0,0,0-1,.43,1.41,1.41,0,0,0-.42,1,1.57,1.57,0,0,0,.19.74,1.39,1.39,0,0,0,.52.53,1.51,1.51,0,0,0,1.43,0,1.39,1.39,0,0,0,.52-.53,1.46,1.46,0,0,0,.19-.74,1.41,1.41,0,0,0-.42-1,1.34,1.34,0,0,0-1-.43Z"/><path d="M67.08,24a.41.41,0,0,1,.41.41h0a.42.42,0,0,1-.12.3.41.41,0,0,1-.58,0h0a.42.42,0,0,1-.12-.3.4.4,0,0,1,.12-.29A.38.38,0,0,1,67.08,24Z"/><path d="M68.92,23.83l.46.21-.68,1.27-.33-.14Z"/><path d="M72.33,19.81h.49v4.45h1.9v.48H72.33Z"/><path d="M75.82,19.74h.47V21.1H77v.4h-.74v3.23h-.47V21.5h-.64v-.4h.64Z"/><path d="M81.36,19.69v5H80.9v-.62a2,2,0,0,1-.66.54,1.84,1.84,0,0,1-.8.18,1.81,1.81,0,0,1-1.31-.56,1.89,1.89,0,0,1-.55-1.37A1.89,1.89,0,0,1,79.46,21a1.75,1.75,0,0,1,.81.19,2.06,2.06,0,0,1,.64.57V19.69ZM79.5,21.45a1.41,1.41,0,0,0-1.25.73,1.48,1.48,0,0,0,0,1.47,1.52,1.52,0,0,0,.53.54,1.39,1.39,0,0,0,.72.2,1.52,1.52,0,0,0,.72-.19,1.39,1.39,0,0,0,.53-.52,1.64,1.64,0,0,0,.19-.75,1.43,1.43,0,0,0-.42-1.05A1.38,1.38,0,0,0,79.5,21.45Z"/><path d="M82.94,24a.41.41,0,0,1,.41.41h0a.42.42,0,0,1-.12.3.4.4,0,0,1-.29.12.38.38,0,0,1-.29-.12.42.42,0,0,1-.12-.3.41.41,0,0,1,.41-.41Z"/></svg>