<svg id="レイヤー_1" data-name="レイヤー 1" xmlns="http://www.w3.org/2000/svg" viewBox="0 0 100 45"><defs><style>.cls-1{fill:#727171;}.cls-2{fill:#92308d;}.cls-3{fill:#0086cd;}.cls-4{fill:#e8382f;}.cls-5{fill:#d95097;}.cls-6{fill:#00a9e4;}.cls-7{fill:#3db4e1;}.cls-8{fill:#f39800;}.cls-9{fill:#fdd000;}.cls-10{fill:#45b035;}.cls-11{fill:#8fc31f;}.cls-12{fill:#009d85;}.cls-13{fill:#e61478;}</style></defs><path class="cls-1" d="M37.8,18l3.55,7.71h-.62l-1.22-2.64H35.77l-1.21,2.64h-.62L37.48,18Zm1.49,4.57L37.64,19,36,22.57Z"/><path class="cls-1" d="M44.83,25.71h-.54V18.05h.54Zm3.57-5-2.76,2.39,3.18,2.65h-.73L44.9,23.07l2.79-2.4Z"/><path class="cls-1" d="M55.39,24.83v.45a2.16,2.16,0,0,1-1,.53.26.26,0,0,1-.25-.13,1.22,1.22,0,0,1-.11-.5,2.56,2.56,0,0,1-1.58.63,1.37,1.37,0,0,1-1-.37,1.23,1.23,0,0,1-.39-.91,1.46,1.46,0,0,1,.76-1.3A4.65,4.65,0,0,1,54,22.69V22c0-.68-.37-1-1.12-1a2.57,2.57,0,0,0-1.54.64V21.1A3.15,3.15,0,0,1,53,20.56a1.85,1.85,0,0,1,1.13.34,1.19,1.19,0,0,1,.44,1V25c0,.17,0,.26.13.26a1.93,1.93,0,0,0,.71-.45M54,24.71V23.14a3,3,0,0,0-1.72.36,1.19,1.19,0,0,0-.69,1,.74.74,0,0,0,.29.59,1,1,0,0,0,.71.24A2,2,0,0,0,54,24.71"/><path class="cls-1" d="M59.38,19v1.67H60.8v.44H59.38v3a2.61,2.61,0,0,0,.12.95c.08.15.29.23.64.23a2.16,2.16,0,0,0,.92-.25v.51a2.25,2.25,0,0,1-1,.26,1.21,1.21,0,0,1-.83-.28,1,1,0,0,1-.34-.79V21.11H57.49v-.44h1.36v-1.2l.36-.47Z"/><path class="cls-1" d="M66.8,21v.58a2.51,2.51,0,0,0-1.38-.52,1.19,1.19,0,0,0-.77.25.75.75,0,0,0-.31.6.72.72,0,0,0,.19.47,3.09,3.09,0,0,0,1,.55,2.56,2.56,0,0,1,1.12.69,1.31,1.31,0,0,1,.26.79,1.27,1.27,0,0,1-.47,1,1.76,1.76,0,0,1-1.18.41,3,3,0,0,1-1.52-.46v-.52a3.68,3.68,0,0,0,1.59.46,1.12,1.12,0,0,0,.76-.25.77.77,0,0,0,.3-.63.72.72,0,0,0-.19-.48,3.21,3.21,0,0,0-1.06-.56,2.64,2.64,0,0,1-1.11-.68,1.15,1.15,0,0,1-.25-.73,1.22,1.22,0,0,1,.47-1,1.71,1.71,0,0,1,1.15-.4A2.52,2.52,0,0,1,66.8,21"/><path class="cls-1" d="M73.8,25.71v-.83h0a2.45,2.45,0,0,1-.72.72,2.07,2.07,0,0,1-2.28-.31,2.05,2.05,0,0,1-.54-1.5V20.67h.54v3.11a1.49,1.49,0,0,0,.39,1.1,1.3,1.3,0,0,0,1,.4,1.58,1.58,0,0,0,.89-.24,2.57,2.57,0,0,0,.74-.83V20.67h.54v5Z"/><path class="cls-1" d="M78.5,25.71H78V18.05h.54Zm3.57-5-2.76,2.39,3.18,2.65h-.73l-3.19-2.64,2.79-2.4Z"/><path class="cls-1" d="M85.66,19h-.54v-.93h.54Zm0,6.73h-.54v-5h.54Z"/><path class="cls-2" d="M20.15,26.71l-1.5,2.06a8,8,0,0,0,4.68,1.58V27.76a5.46,5.46,0,0,1-3.18-1.05"/><path class="cls-3" d="M18.26,24.16,15.87,25a8.09,8.09,0,0,0,2.77,3.8l1.51-2.06a5.42,5.42,0,0,1-1.89-2.55"/><path class="cls-4" d="M26.43,26.8,27.94,29a8.06,8.06,0,0,0,3.12-4.21L28.52,24a5.42,5.42,0,0,1-2.09,2.85"/><path class="cls-5" d="M23.36,27.76h0v2.59h.1A7.94,7.94,0,0,0,27.94,29L26.43,26.8a5.33,5.33,0,0,1-3.07,1"/><path class="cls-6" d="M18.26,24.16h0a5.54,5.54,0,0,1-.07-3.44h0L15.79,20a8.23,8.23,0,0,0-.36,2.39A8.09,8.09,0,0,0,15.87,25l2.39-.81h0"/><path class="cls-7" d="M18.2,20.73h0a5.56,5.56,0,0,0-.24,1.64,5.36,5.36,0,0,0,.32,1.8h0a5.66,5.66,0,0,1-.3-1.8,5.45,5.45,0,0,1,.25-1.63"/><path class="cls-8" d="M28.76,22.36a5.63,5.63,0,0,1-.24,1.6l2.54.79a7.86,7.86,0,0,0,.37-2.39A8.06,8.06,0,0,0,31,19.84l-2.52.85a5.45,5.45,0,0,1,.26,1.67"/><path class="cls-9" d="M28.07,15.84,26.52,18a5.48,5.48,0,0,1,2,2.72L31,19.84a8,8,0,0,0-2.95-4"/><path class="cls-10" d="M23.31,17V14.36a7.92,7.92,0,0,0-4.54,1.49l1.47,2.09a5.35,5.35,0,0,1,3.07-1"/><path class="cls-11" d="M23.36,17a5.39,5.39,0,0,1,3.16,1l1.55-2.13a8,8,0,0,0-4.64-1.49h-.12V17h.05"/><path class="cls-12" d="M20.24,17.94l-1.47-2.09a8,8,0,0,0-3,4.11l2.42.76a5.31,5.31,0,0,1,2-2.78"/><path class="cls-13" d="M26.23,22.39a2.9,2.9,0,1,0-2.89,3,2.83,2.83,0,0,0,2-.83v.9h.88v-3Zm-2.9,2.1a2,2,0,1,1,2-2.06v.06A2,2,0,0,1,23.33,24.49Z"/></svg>