<svg id="レイヤー_1" data-name="レイヤー 1" xmlns="http://www.w3.org/2000/svg" xmlns:xlink="http://www.w3.org/1999/xlink" viewBox="0 0 100 45"><defs><style>.cls-1{fill:none;}.cls-2{fill:#020202;}.cls-3{fill:#010101;}.cls-4{clip-path:url(#clip-path);}.cls-5{fill:#004ea2;}.cls-6{fill:url(#名称未設定グラデーション_5);}.cls-7{fill:url(#名称未設定グラデーション_2);}.cls-8{fill:url(#名称未設定グラデーション_3);}.cls-9{fill:url(#名称未設定グラデーション_4);}</style><clipPath id="clip-path"><rect class="cls-1" x="17.81" y="11.97" width="23.16" height="20"/></clipPath><linearGradient id="名称未設定グラデーション_5" x1="0.28" y1="44.29" x2="0.34" y2="44.29" gradientTransform="matrix(-42.13, -145.64, -145.64, 42.13, 6495.94, -1800.09)" gradientUnits="userSpaceOnUse"><stop offset="0" stop-color="#fff"/><stop offset="0.18" stop-color="#fff"/><stop offset="0.98" stop-color="#2d2a29"/><stop offset="1" stop-color="#2d2a29"/></linearGradient><radialGradient id="名称未設定グラデーション_2" cx="3.16" cy="44.43" r="0.06" gradientTransform="matrix(133.97, 19.5, 19.5, -133.97, -1264.57, 5913.09)" gradientUnits="userSpaceOnUse"><stop offset="0"/><stop offset="0.14"/><stop offset="1" stop-color="#6d6c6c"/></radialGradient><linearGradient id="名称未設定グラデーション_3" x1="2.19" y1="44.66" x2="2.25" y2="44.66" gradientTransform="matrix(295.64, 37.2, 37.2, -295.64, -2287.95, 13143.63)" gradientUnits="userSpaceOnUse"><stop offset="0" stop-color="#fff"/><stop offset="0.17" stop-color="#fff"/><stop offset="0.97"/><stop offset="1"/></linearGradient><linearGradient id="名称未設定グラデーション_4" x1="0.39" y1="45.94" x2="0.45" y2="45.94" gradientTransform="matrix(-70.44, -28.59, -28.59, 70.44, 1381.71, -3200.79)" gradientUnits="userSpaceOnUse"><stop offset="0" stop-color="#e9eaea"/><stop offset="0.24" stop-color="#e9eaea"/><stop offset="0.94" stop-color="#636262"/><stop offset="1" stop-color="#636262"/></linearGradient></defs><path class="cls-2" d="M72,18.67a1.28,1.28,0,0,1,1.52.46c.46.53,1,1,1.44,1.51a1.4,1.4,0,0,0,2.31,0c.5-.52,1-1,1.49-1.57a1.24,1.24,0,0,1,1.44-.38c-.82.85-1.56,1.67-2.36,2.44-.37.35-.36.57,0,.89a33.45,33.45,0,0,1,2.76,2.57c-.68.39-1.08.31-1.46-.13-.58-.67-1.22-1.28-1.83-1.92a1.49,1.49,0,0,0-2.44,0c-.59.61-1.22,1.2-1.77,1.85a1.22,1.22,0,0,1-1.44.39c.84-.87,1.6-1.73,2.43-2.5.56-.52.68-.87,0-1.42S72.76,19.45,72,18.67Z"/><path class="cls-2" d="M54.42,18.67c.68-.24,1,.06,1.24.58.73,1.46,1.5,2.89,2.27,4.33.12.22.15.56.5.55s.37-.36.49-.58c.78-1.46,1.58-2.91,2.32-4.39a.81.81,0,0,1,1.18-.48c-1,2-2.07,3.93-3.12,5.88-.22.42-1.52.45-1.74,0C56.5,22.63,55.46,20.65,54.42,18.67Z"/><path class="cls-3" d="M52.82,24.27a8.13,8.13,0,0,1-.21-3.18,2.2,2.2,0,0,0-1.44-2.26,4.65,4.65,0,0,0-4.1.09c-.18.09-.54.13-.35.49s.36.33.7.14a3.71,3.71,0,0,1,3.4-.12,1.4,1.4,0,0,1,1,1.75c-.2-.09-.39-.18-.59-.25a4.86,4.86,0,0,0-4.33.28,1.69,1.69,0,0,0,0,3.12,4.76,4.76,0,0,0,4.68.11c.23-.11.46-.39.58.09.05.22.15.35.39.18S52.94,24.59,52.82,24.27Zm-1.55-.6a3.61,3.61,0,0,1-2.32.56,3,3,0,0,1-1.72-.55,1,1,0,0,1,0-1.78,3.82,3.82,0,0,1,4.1,0A1,1,0,0,1,51.27,23.67Z"/><path class="cls-2" d="M65.06,21.93c.8,0,4,0,4.82,0,.6,0,.65-.22.59-.7a3.42,3.42,0,0,0-6.71-.13,3.28,3.28,0,0,0,2.12,3.63A3.46,3.46,0,0,0,70,23.36c.09-.16.28-.36.12-.5a.56.56,0,0,0-.67,0,3.25,3.25,0,0,0-.4.5,2.67,2.67,0,0,1-4.43-.79C64.46,22.13,64.47,21.9,65.06,21.93ZM67,19.17a2.63,2.63,0,0,1,2.54,1.48c.12.25.32.55-.25.54-1.54,0-3.08,0-4.69,0A2.56,2.56,0,0,1,67,19.17Z"/><g class="cls-4"><path class="cls-5" d="M39.81,16.74C37.9,13.42,33.18,12,28.94,13h0a16.36,16.36,0,0,0-3.3,1.14c-6.39,3-7.83,9.24-5.11,13.33,3,4.52,10.25,4.18,14,2.2,3.32-1.76,5.56-4.45,6.12-7.45h0a8.05,8.05,0,0,0-.82-5.46"/></g><path class="cls-6" d="M32.22,18.59a5.65,5.65,0,0,1,.5,3.54,4.28,4.28,0,0,1-3.36,3.39,13.72,13.72,0,0,0,5.13-1.21c1.54-.71,2.43-1.53,2.74-2.74a3,3,0,0,0-1.24-3,7.35,7.35,0,0,0-3.58-1.28,16.25,16.25,0,0,0-1.93-.15,2.75,2.75,0,0,1,1.74,1.47"/><path class="cls-7" d="M25.17,23.08a2.18,2.18,0,0,0,1.13,1.79,3.15,3.15,0,0,1,1-2.24,3.43,3.43,0,0,1,2.61-.74,5.16,5.16,0,0,1,2.67.77,3.51,3.51,0,0,0,.15-.53,5.76,5.76,0,0,0-.09-2.47h0c-.55,0-1.08-.06-1.57-.06-4,0-6.14,1.29-5.89,3.48"/><path class="cls-8" d="M29,14.32a14.06,14.06,0,0,0-4.89,1l2.26,2.49a10.91,10.91,0,0,1,6.06-.59A7.49,7.49,0,0,1,36,18.55a3,3,0,0,1,1.24,3c-.31,1.21-1.2,2-2.74,2.74a13.91,13.91,0,0,1-5.12,1.21,10.68,10.68,0,0,1-1.53-.14c-1.85-.31-2.54-1.14-2.67-2.3-.27-2.45,2.45-3.79,7.46-3.42v-.05a17,17,0,0,0-7.7.67c-2.21.87-3.36,2.41-3.29,4.11A4.48,4.48,0,0,0,24,28.14a9.89,9.89,0,0,0,5.86.87,10.08,10.08,0,0,0,5.83-3,7.38,7.38,0,0,0,2.11-5.1,6.19,6.19,0,0,0-1.43-4,7.14,7.14,0,0,0-3.25-2.06,11.36,11.36,0,0,0-3.43-.47H29"/><path class="cls-9" d="M36.78,24.48a5.09,5.09,0,0,0,2.4,1.15,9.07,9.07,0,0,0,1.45-3.43h0a4.76,4.76,0,0,1-2.88-.73,7.4,7.4,0,0,1-1,3"/></svg>