<svg id="レイヤー_1" data-name="レイヤー 1" xmlns="http://www.w3.org/2000/svg" viewBox="0 0 100 45"><defs><style>.cls-1{fill:#99999a;}</style></defs><path class="cls-1" d="M48.59,24.49H55.9V11.67H51.41V20h-3.2Z"/><path class="cls-1" d="M47.57,16.16h3.2l-.38-4.49H43.08V28.34h4.49Zm7.11,14.19A1.33,1.33,0,1,0,56,31.67a1.31,1.31,0,0,0-1.34-1.32Zm0,2.23a.91.91,0,1,1,.87-.91A.89.89,0,0,1,54.68,32.58ZM43.8,31.87h1.29v-.42H43.8V30.8h1.44v-.41h-1.9V33h1.92v-.4H43.8Zm14,.67V30.39h-.46V33h1.8v-.41ZM41.07,30.39h-1V33h.46v-.82h.55a.9.9,0,0,0,1-.87.84.84,0,0,0-1-.87Zm0,1.33h-.51V30.8H41c.38,0,.55.21.55.46s-.19.46-.55.46Zm7.8-.46a.85.85,0,0,0-1-.87h-1V33h.47v-.82h.5l.57.82h.54l-.63-.9a.85.85,0,0,0,.53-.79Zm-1,.46h-.51V30.8h.51c.38,0,.55.21.55.46s-.2.46-.55.46Zm4-.07a2.09,2.09,0,0,0-.6-.22c-.44-.11-.51-.19-.51-.33s.22-.32.43-.32a1.28,1.28,0,0,1,.7.23,2.11,2.11,0,0,1,.23.19v-.56a1.73,1.73,0,0,0-.93-.3.79.79,0,0,0-.86.76c0,.54.52.67.83.75.49.13.6.2.6.4a.24.24,0,0,1-.11.22.78.78,0,0,1-.41.09,1.51,1.51,0,0,1-.89-.39v.54l0,0a1.82,1.82,0,0,0,.87.27c.59,0,1-.29,1-.75A.68.68,0,0,0,51.84,31.65Z"/></svg>