<svg xmlns="http://www.w3.org/2000/svg" viewBox="0 0 336.56 318.14"><defs><style>.cls-1{fill:#fff;}</style></defs><g id="レイヤー_2" data-name="レイヤー 2"><g id="レイヤー_1-2" data-name="レイヤー 1"><polygon points="0 61.95 0 254.51 336.56 318.14 336.56 0 0 61.95"/><polygon class="cls-1" points="51.63 107.53 51.63 209.39 64.75 209.39 64.75 127.81 99.63 168.84 135.35 127.53 135.35 209.39 147.91 209.39 147.91 107.53 133.96 107.53 99.77 148.19 64.75 107.53 51.63 107.53"/><polygon class="cls-1" points="181.4 209.39 222.14 107.53 235.26 107.53 277.68 209.39 262.89 209.39 253.68 187.25 216.28 187.53 221.31 174.7 248.38 174.7 229.54 125.58 195.35 209.39 181.4 209.39"/></g></g></svg>