<svg xmlns="http://www.w3.org/2000/svg" viewBox="0 0 427.81 318.14"><defs><style>.cls-1{fill:#fff;}</style></defs><g id="レイヤー_2" data-name="レイヤー 2"><g id="レイヤー_1-2" data-name="レイヤー 1"><polygon points="0 0 0 318.14 427.81 257.02 427.81 62.79 0 0"/><path class="cls-1" d="M135.76,127.39v-13c-4.53-2.88-15-10-33.48-9.18-23.21.84-34.48,14.13-34.52,26.18s6.61,24.19,20.34,27.26c17.67,3.21,38.72,11.35,38.66,23.74-.48,11.84-14.91,16.25-25,16s-30.87-9.06-33-11v14c5.23,3.14,15.32,7.79,33,8s37.62-4.85,39-26-18.29-29.85-33.53-32.27c-26.3-4.82-25.74-13.73-25.47-19.73.32-7.08,5.76-14.1,22-14S133,125.06,135.76,127.39Z"/><path class="cls-1" d="M179.35,107.53h14.88v62.12A26.87,26.87,0,0,0,211.48,195a26.59,26.59,0,0,0,9,1.64h1.29c14-.57,24.95-12.55,24.95-26.61v-62.5h13.21v62.21a41.38,41.38,0,0,1-14.4,31.73A39.73,39.73,0,0,1,191,198.72a41.68,41.68,0,0,1-11.62-29.26Z"/><rect class="cls-1" x="301.67" y="107.53" width="13.12" height="101.86"/><polygon class="cls-1" points="365.02 107.53 322.6 158.47 363.91 209.39 381.49 209.39 339.07 158.47 381.49 107.53 365.02 107.53"/></g></g></svg>