<svg xmlns="http://www.w3.org/2000/svg" viewBox="0 0 2147.84 265.06">
	<path d="M121.52,84.55c5.63-3.9,12-6.2,18.4-8.49,2.3-.82,4.34-2.11,6.64-2.86,1.23-.86,2.81.35,4-.67h0c2.71-1,2.71-1,2.67.65a9.43,9.43,0,0,1-4.09,2.75c-2.56.92-4.92,2.12-6.49,4.49-1,1.5-2.86,1.15-4.27,1.88-6.06,3.12-11.5,7.3-18,9.75a99.4,99.4,0,0,0-10.08,4.44,36.45,36.45,0,0,0-7.2,4.7,1.45,1.45,0,0,0-.38,2.22c.89,1.39,1.76,2.86.52,4.58a1,1,0,0,0,.44,1.42c3.19.66,2.18,4,3.62,5.55,2.12,2.37,1.25,5.62,3,8.14a2.76,2.76,0,0,0,2.86,1.4c-1.47,2.91-1.31,2.73,1.25,4.95,1,.88,1,3.12.35,4.3-1.2,2.24,0,3,1.55,3.85,2.27,1.26,3.76,3,3.47,5.82-.12,1.17.53,2,1.07,3,1.46,2.68,3.39,5.24,3.29,8.53,0,.91-.14,1.87.89,2.33,1.9.85,2.16,2.09,1.27,3.91-.52,1.05.48,1.83,1,2.67,1.11,1.79,2.54,3.48,2,5.83-.31,1.26.65,1.3,1.42,1.78,2,1.28,4.44,2.56,2.47,5.65-.3.49-.41,1.49,0,1.49,4,0,3.15,3.48,4,5.61,2.68,6.55,5.62,13,7.69,19.77s5.37,12.73,8,19.1a29.44,29.44,0,0,1,1,3.55c.35,1.25.15,2.28-1.27,2.6-2.66.61-4.7,2.9-7.63,2.76a1.1,1.1,0,0,0-.64.17c-5.13,3.51-11.39,4.9-16.36,8.72a4.65,4.65,0,0,1-4.14.68c-1.44-.43-1-2.1-1-3.24,0-2.77.17-5.53-2.41-7.52-.39-.3-.23-1.26-.44-1.87-.85-2.55-1.31-5.3-4.46-6.38a3.68,3.68,0,0,1-2.15-3.21c-.06-3.16-3.92-5.16-2.35-9,.37-.9-3.19-2.56-3.14-4.89a9.72,9.72,0,0,0-1.49-4.65c-2.63-5.27-4.23-11-6.67-16.3s-5.43-10.4-7.06-15.79c-1.55-5.1-4.83-9.34-5.92-14.59-.5-2.39-2.5-5.16-2.72-7.13-.43-3.89-3.39-6.14-4.16-9.5-.23-1-.74-1.27-1.52-1.8-1.23-.84-4-2.14-.13-3.61,1.71-.65.31-1.93-.43-2.09-4.48-1-4.83-5.11-6.21-8.24-1.52-3.44-2.34-4.3-5.58-2.66-6.3,3.19-12.83,5.86-18.85,9.71-5.68,3.63-12.15,6-18.26,9a57.34,57.34,0,0,0-7.7,3.91c-3.22,2.21-6.87,2.52-10.47,3.15-1.62.28-3.3.59-4-1.69s.76-3.33,2.27-4.25a146.69,146.69,0,0,1,17.51-8.76c11.52-5,23-10.18,34.11-16.18,1.07-.58,2.23-1,3.35-1.49,3.73-1.65,4.27-4.85,1.13-7.49-1.07-.89-1.13-2.12-1.76-3.11-5.49-8.68-6.88-18.7-9.61-28.31C52.51,69.3,51.6,65,50.05,60.82c-.64-1.71-.87-3.52-1.47-5.24-1.1-3.15-2.62-2.87-5-2C38.49,55.32,33.9,58.12,29,60.19c-6.73,2.83-12.84,7-19.89,9.17a44.56,44.56,0,0,1-4.91,1c-2,.39-3.21-1.32-4-2.51s.81-2.47,2-3c5.34-2.7,10.35-6,16-8.09s10.87-4.9,16.29-7.4c2.63-1.21,5.21-2.58,7.92-3.57s3.1-2.67,1.82-4.91C43.16,39,43,36.83,42.3,35c-2.89-7.19-3.77-14.94-6.67-22.09a6.89,6.89,0,0,0-1.19-2,2.17,2.17,0,0,1,.15-3.3C40.44,4.09,46.1,0,53.38,0,55,0,56.05.53,56.47,2.23c.66,2.65,2,5.19,1.45,8-.1.56-.09.88.44,1,3.22.53,3.11,2.57,2.38,5-.15.5-.16,1.35.15,1.62C65,21.52,65,27.1,67.27,31.62c1.44,2.85,3.27,2.92,5.73,2.05,8.81-3.12,17.68-6.13,26.44-9.42,10.84-4.08,22.37-5.88,33.14-10.21a69.63,69.63,0,0,1,14.69-3.74c-.75,3-3.15,3.69-5.09,4.57-3.42,1.55-6.9,2.74-9.61,5.63-1.53,1.63-4.57,1-6.13,2.95-2.51,3.07-6,3.78-9.62,4.56C105.74,30.42,95,34.12,84.23,37.53a41.18,41.18,0,0,0-9,3.63c-1.16.7-1.88,1.53-.14,2.34,1,.47,1,1,.6,1.86-1.27,2.51.38,4,1.92,5.55a3.85,3.85,0,0,1,1.13,1.54c.92,3.66,2.74,7,2.8,11,0,2.1,1.13,4.45,2,6.47,2.66,6,3.1,12.57,5.39,18.66,1,2.73,2.86,5.25,2.79,8.43,0,1.49,1.16.92,2,.55,5.3-2.36,10.6-4.69,15.87-7.11,3.1-1.43,6.13-3,9.19-4.49C119.6,85.25,120.72,85.2,121.52,84.55Z"/>
	<path d="M531.51,196.39c.36-1.74.81-3.29-1-4.85-.72-.62-.71-3.1-.06-4.09,2.35-3.55.68-7.13.21-10.52-.8-5.79-2.64-11.46-.16-17.26a3.2,3.2,0,0,0,.22-2.29c-2.12-4.52-.5-8.9.4-13.29.18-.91.26-1.49-.71-1.85-.41-.15-1-.43-.79-.87,2.16-3.66-1.49-7.61.59-11.21.83-1.44-.56-2.38-.54-3.72.11-6.49-.32-13-.11-19.49.12-4-1.44-7.55-1.77-11.41-.39-4.63-.17-5.31,4.26-6.42,3.33-.83,6.13-3.06,9.63-3.6a29.27,29.27,0,0,1,9.88-.23c1.71.32,2.64,1.13,2.22,3-.53,2.45,1.82,5.1-.51,7.43,1.78,1.14,1.7,3.59,3.27,4.77.77.58,1.46-.46,1.75-1.13,1.23-2.85,4-4.68,5-7.67.1-.29.43-.74.63-.72,3.27.21,3.12-2.14,3.94-4.39,2.15-5.9,4.92-11.58,7.46-17.34a18.31,18.31,0,0,1,2.93-3.92c3.13-3.9,5-8.64,6.75-13s3.18-9.31,5-13.74c1.21-2.86.84-5.26,1-7.92s-1.11-3.42-3.46-2.78a130.61,130.61,0,0,0-17.54,6.14A176.3,176.3,0,0,0,545.3,47.58a30.87,30.87,0,0,0-6.55,6,27,27,0,0,1-16.2,9.15,25.39,25.39,0,0,0-10.26,3.94c-3.77,2.61-8.59,2.45-13.73.61,4.23-2.78,6.82-6.63,10.4-9.65,4.86-4.1,10.2-7.38,15.4-10.9,2.72-1.84,6-2.9,8.76-4.63,5.58-3.43,11.69-5.71,17.56-8.49,3.22-1.53,6.65-2.38,10-3.57,3.83-1.37,7.6-2.9,11.45-4.22a150.31,150.31,0,0,1,21.33-5.17c4.49-.84,8.91-2.29,13.48-2.45,7.29-.26,14.63-1.57,21.89.4,2.28.74,1.85,2.39,1.36,4.06,0,3.49-3.11,2.55-4.66,2.64-2.44.15-3.39.7-3.48,3.18-.12,2.88-2.69,5.08-2.63,8.11,0,.28-.54.76-.88.82-2.09.34-1.82,1.7-2.08,3.38-.6,3.86-3,7.12-4.52,10.72-1.15,2.82-2.75,5.41-3.91,8.27A23.71,23.71,0,0,1,603.77,67c-2.41,2.6-2.93,6.53-5.67,8.84-4.54,3.81-6.56,9.39-10,14-3.94,5.22-8.63,9.83-12.21,15.4-2.15,3.35-6.38,5.44-10,7.61-2.85,1.69-6.7,2.33-6.85,6.82,0,1.11-2,.37-2.21,2,1.53.76,1,2.25,1.27,3.78.83,4.93-.46,9.6-.61,14.38-.08,2.52-.36,5-.6,7.5-.14,1.56-.9,3.45,1.65,3.89.73-.14,1.09.08.89.88-1.09,8.13-2.35,16.23-1.61,24.49a13.91,13.91,0,0,1-1,5.2c-1,3.28.21,6.51,0,9.81-.41,6.11,0,12.27-.54,18.39-1.56,1.36-1,3-.44,4.5.72,1.89.73,3.52-1,4.83-2.12-1.4-2,.59-2,1.54s.79,2.45-.68,2.7c-1,.18-1.35-1.44-1.95-2.26-.4-.55.79-2-.84-2-1.17,0-.91,1.37-1.46,2-.87,1.64-1.82,3.14-4.08,2.09-3-2.27-4.76,0-6.71,2.25-.81-1.4-.8-3.32-2.84-3.34-.79,0-1-.73-1-1.48.06-3-1.2-5.89-.69-9.13.42-2.68-.88-5.62-1.42-8.44C531.51,201,530.85,198.65,531.51,196.39Z"/>
	<path d="M2112,172.07a22.42,22.42,0,0,0-6.62,7.62c-1.29,2.55-4.19,3.49-5.49,5.95-1.26.47-.66,1.88-1.35,2.65-.44.33-1.15.57-1.29,1-1.63,4.92-7.11,6.47-9.38,10.82-2,3.88-7.11,5.09-8.44,9.8-.29,1-2.44,1.59-3.62,3.12-2.86,3.69-7.25,6.2-10.43,9.6-5,5.39-11.64,8.83-16.52,14.28-1.48,1.66-4.19,2.18-4.23,5.24,0,1.52-2.12.57-3.25,1.55-8,6.86-16.18,13.44-24.31,20.12-3.08,1.86-3.37,1.89-3.67-1.62-.15-1.61-2.31-1.06-1.9-2.6,2.83-3.46,6.16-6.52,8.43-10.42a.7.7,0,0,1,.23-.25c6.68-3.6,10.61-10.15,16.21-14.88,1.35-1.14,3.33-1.59,4.08-3.5.29-.73,1.59-1.31.57-2.26s-1.56.14-2.22.67c-1.8,1.44-3.84,2.65-4.93,4.78-.59,1.15-1.75,1.24-2.67,1.78-1.45.49-2,.06-1.43-1.43,4.91-4.5,10.23-8.64,14.62-13.6,3.87-4.38,8.53-7.82,12.45-12.08,1.61-1.75,0-2.26-.89-3.65-1,2.13-2.86,2.91-4.42,4-.43.31-1,1.14-1.7.43s-.06-1.23.12-1.83c.41-1.4,1.75-1.91,2.68-2.81,4.43-4.28,7.68-9.57,12-14,1.47-1.5,3.1-3,4.55-4.6,2.83-3.13,4.44-7.1,7.48-10,.44-.42,1.27-.81.7-1.62-1-1.42-.78-2.29,1-2.75a1.49,1.49,0,0,0,.77-1c1.06-5.79,6.76-8.6,8.81-13.76.38-1,1.56-.64,2.41-.84.6-.14,1.74-.59,1.08-1.17-2.35-2,.29-2.88.89-4,2.32-4.19,5.78-7.75,7.9-11.94,3-6,7-11.65,9.36-18.06a54.47,54.47,0,0,0,3.86-18c.1-7.76,3.12-15.52-.32-23.41-1.94-4.45-5.44-6.82-8.91-9.46-5.22-4-10.52-2.91-16-.24-5.1,2.49-10.37,4.7-14.29,8.95-1.63,1.76-2.6,4.12-4,6.08-4,5.43-7.33,11.29-11,16.94-1.75,2.72-5,2.69-7.82,3.06a56.55,56.55,0,0,1-8,.16c-1.73,0-2.76-.58-3-2.73-.63-7.08,3.1-12.73,5.84-18.7a4.39,4.39,0,0,1,2-1.68c1.28-.63,2.13-1.21,2.19-2.93.1-2.81,2.48-4.54,4.29-6.11a41.22,41.22,0,0,1,21.47-9.8c5-.75,10-2.17,15.08-2.45a72.78,72.78,0,0,1,16.63,1.24c3.77.67,7.73,1,11.2,2.36,6.08,2.42,12.31,4.46,17.8,8.44,4.2,3,8.07,6.11,8.48,11.27.34,4.18.75,8.55-.39,12.78-.75,2.82-.68,5.4,3.13,6.43-2.4,1.78-2.33,3.86-2.16,6.33.23,3.18-.07,6.55-2.85,8.9a3,3,0,0,0-.83,2.42,10.39,10.39,0,0,1-2.92,6.47c-1.5,1.67-2.22,4.16-2.87,6.41-1.65,5.68-5.77,9.86-8.65,14.78-1.28,2.2-1.44,5.34-5.3,5.61-1.42.1-.13,2.91-1,4.56a52.62,52.62,0,0,1-5.51,8c-.92,1.17-1.68,2.46-2.51,3.7C2113.42,171.19,2112.84,171.72,2112,172.07Z"/>
	<path d="M1743.09,162.74c-1,1.59.19,2.07,1.28,2.78,1.49,1,2.32,2.12.49,3.73-1.24,1.09-1,1.76.24,3.34a12.33,12.33,0,0,1,2.2,9.25c-.17,1.22-1.47,1.17-2.47,1.29-8.22,1-16.34,2.46-24.46,4-6.78,1.3-9.84-.77-13.2-7.12a29.11,29.11,0,0,0-7-8.56,2.94,2.94,0,0,1-1-1.6c-.68-2.2-1.78-4.09-4.17-4.87a1.79,1.79,0,0,1-1.33-1.3c-1.22-4-4.5-6-7.84-7.82-1.19-.66-2.48-1.07-2.78-2.64a1.81,1.81,0,0,0-1.9-1.59c-2.33.34-4-1-5.38-2.32-2.71-2.45-6.49-3.19-9-5.91-.94-1-2.2-1-3.45-.92-1,.07-1.78-.25-2-1.33s0-2,1-2.17c6.65-1.06,8.6-7.6,13.11-11.17A179,179,0,0,1,1693,115.2c4.74-2.89,9.69-5.43,14.57-8.1a6,6,0,0,0,2.87-5c.32-4,0-8.06.15-12.09s1.08-8.09.7-12c-.29-3.12,2.44-6.12-.13-9.39-1.12-1.41.72-3.74.19-5.85-.46-1.79-.76-1.81-2.38-1.07-6.63,3.06-12.45,7.68-19.21,10.32a56.18,56.18,0,0,1-14.22,3.21,2.23,2.23,0,0,1-2.35-1c-.41-1,.25-1.79,1-2.6,3.78-4,8.87-6,13.53-8.53a176.24,176.24,0,0,1,20-9.73c4.11-1.64,7.07-4.66,7.34-9.7.18-3.24,1.69-5.29,5.47-6.4,6.87-2,13.7-1.82,20.63-1.63,1.6,0,2,1,2.94,2.11,3.08,3.42,1.16,4.89-.73,7.9-1.68,2.68-1.68,6.78-2.42,10.26-1.72,8.06-1.69,16.33-3,24.46-.53,3.36-.92,6.88-1.13,10.35-.12,2.14.7,2.61,2.41,2.39,2.86-.38,5.71-.88,8.57-1.33a9.06,9.06,0,0,1,3-.34c.9.19,2.6-.73,2.56.53s.23,3.41-1.72,3.9c-3.2.8-5.35,3.54-8.85,4.06-2.62.39-4.44,5.43-4.23,8.3a80.25,80.25,0,0,1-.26,14.12c0,.43-.43,1.17-.36,1.21,3.46,1.86.65,5,1.28,7.49.71,2.79,2.64,5.54,1.89,8.68-1,4.24,2.58,8.26.62,12.55,2.39,2.73,1.26,6,1.51,9.14A1.06,1.06,0,0,1,1743.09,162.74Z"/>
	<path d="M1657.43,169.46a107.11,107.11,0,0,1-20.43,9.93c-6.91,2.44-14,4-21.52,3.19-6.2-.66-12.45-.86-18.68-1.23-4.33-.26-8.93-.91-12.33-3.19-6-4-12.17-8.51-13.73-16.16-1.17-5.72-1.67-11.62-.32-17.55A29.72,29.72,0,0,0,1571,135a11.32,11.32,0,0,0-2.63-6.44c-2-2.09-1.53-4-1-6.14,1-3.85-.63-5.82-4.69-5.48-5.83.49-11.65-.31-17.47,0-2.79.15-1.93-1.64-1.48-2.87a57.83,57.83,0,0,1,3.54-8.15c1.15-2,1.15-4.28,1.72-6.4.71-2.65-.68-4-3.09-3-1.81.75-1.46-.78-1.57-1.16a8.23,8.23,0,0,1,1.37-7c.92-1.35,2.14-2,1.31-3.93a3.15,3.15,0,0,1,.92-3.07c2.35-2.24,3.85-4.79,3-8.22-.1-.38.27-.86.26-1.29,0-1,1.39-2.43.58-2.66-1.45-.4-2.55-1.57-4.34-1.45a122.79,122.79,0,0,0-16.12,2.62c-2.19.46-4-.28-4.6-1.66-.74-1.61,1.43-2.66,2.64-3.38,5.29-3.11,11.17-5,16.64-7.75,2.54-1.27,5.34-1.92,7.39-4.51,1.74-2.2,5.28-2.41,8.06-2.62,8.45-.62,16.89-2.09,25.36-1.6,4.25.25,8.48,1.37,12.78,1.64.66,0,1.53.09,1.52.89s-.83,1.29-1.63,1.44a44,44,0,0,1-6.27.77c-3.59.15-4.77,2.35-5.89,4.95-2.59,6-5.47,11.94-7.62,18.11-2.28,6.54-5.73,12.73-6.64,20.09a8.11,8.11,0,0,0,4.65-4.76c2.8-6.48,5.13-7.44,12-8.1,4.15-.4,8.25.41,12.38-.42,4-.78,8,.7,12,.69,1.89,0,1.16,2.27.4,3.11-2.35,2.6-3.63,5.85-5.64,8.63-.79,1.1-2,2.49-1.3,3.47s2.7,1.08,4.08.6c3.43-1.19,7.1-.77,10.57-1.69.57-.15,1.39-.52,1.67.42a1.39,1.39,0,0,1-.77,1.71c-2.66,1.06-4.72,3.21-7.71,3.77a103,103,0,0,0-10.13,2.85,4.82,4.82,0,0,0-3.29,3.12c-3.54,10.5-7.72,20.83-8.62,32-.41,5.09-1,10.2-.14,15.25,1.56,8.81,6.09,15.54,14.73,18.79,4.19,1.57,8.52,1,12.76-.3a72.12,72.12,0,0,0,14.69-6.43c2.85-1.62,6.12-2.51,9.23-3.67,3.4-1.26,6.94-2.18,10.36-3.25a74.6,74.6,0,0,1,9-1.79c.77-.14,1.67-.21,2,.7s-.5,1.33-1,1.85c-1,1-2.69,1.38-2.31,3.54.17,1-1.4,1.17-2.44,1.17C1658.6,167.19,1658.92,170.13,1657.43,169.46Z"/>
	<path d="M440.73,59.84a3.25,3.25,0,0,0,.66,2.55c.54,3.36,0,6.75.22,10.29.93-.9.1-2.18,1.08-2.83l.66-.66c2-.64,2.39.26,2,2,1.33,4.56-2.57,9.31.5,13.81a.56.56,0,0,1,.08.31c-4.37,1.88-.51,4.62-.24,6.54.42,2.94-2.29,5.5-.5,8.31-3.85,1.87-.31,4.47-.66,6.69a84,84,0,0,0-1.23,15.51,1.32,1.32,0,0,1-.07,2c-.75.78-.33,1.82-.62,2.71.65,2.61-.08,5.2-.14,7.8a3.81,3.81,0,0,0,1.45,3.14c-.11,7.61-1.75,15-3.11,22.45-1.12,6.17-1.18,12.54-2.56,18.63a6.45,6.45,0,0,0,1.88,6.83,1.66,1.66,0,0,1-.39,2.83c-2,.94-4.09,2.05-6.19,2.17a24.46,24.46,0,0,0-8.84,2.55c-3.47,1.58-6.67.4-8.08-3.19a3.48,3.48,0,0,0-2.49-2c-3.94-1.06-5.34-2.62-4.53-6.57,1.65-8.09.21-16.47,2.53-24.46.16-.57.3-1.17-.3-1.49-2-1.11-.74-1.72.28-2.52.76-.6,1.94-1.38,1.29-2.45-3.54-5.85-1.31-12-1.08-18,.2-5-.12-10.06.78-14.91,1.63-8.78-.48-17.59.88-26.32.44-2.84.73-5.7,1.06-8.56.09-.74.62-2.11,0-2.16-6.27-.43.54-4.28-1.49-6-.2-.17,1.77-2.54-.86-3.27-.58-.16-.45-1.21-.25-1.86,1.44-4.71-.33-9.41,0-14.12,0-.21,0-.53-.14-.64-5-4.28-1.42-9.68-1.9-14.54-.15-1.52.36-3,.13-4.64-.26-1.8.68-2.81,2.57-3.69,3.72-1.74,7.61-3,11.39-4.54A41.54,41.54,0,0,1,434,25.19c3.56-.52,5.18.89,5.18,4.62,0,5.89-.2,11.8-.63,17.68-.17,2.42.61,4.82-.15,7.24-.26.85.43,1.45,1.39,1.48C441.89,57,440.68,58.57,440.73,59.84Z"/>
	<path d="M865.5,177.56c2,5.11.26,7.72-4.66,11-2.5,1.65-5.34,2.44-7.65,4.17-3.77,2.82-8.25,3.52-12.6,4.58-1.15.28-1.8,2.26-4.09.32-2.91-2.46-2.85-5-3.37-8.08-.87-5.05.15-10.18-1.07-15.25-.32-1.33,1-3.65,1.09-5.56.22-6,.85-12,.9-18A252.91,252.91,0,0,1,836.71,113c1.54-9.63,2.28-19.39,3.38-29.09,1-8.54,2.19-17,3.42-25.53,1.36-9.37,2.38-18.81,4.65-28.06.47-1.93.71-4.09,1.15-6.14.14-.65.23-1.39-.55-1.74-.61-.29-1.06.2-1.48.53A8.26,8.26,0,0,0,845,25c-3.17,5.79-9.47,7.46-14.35,11a21.27,21.27,0,0,1-3.91,1.86c-1.8.78-3.07,0-3.91-1.54s-.47-2.55.92-3.74c4.37-3.76,8.34-8,12.91-11.53,4.07-3.12,7.58-6.85,11.7-9.89.45-.33,1.06-.59,1.3-1,2.47-4.67,6.82-6.35,11.58-7.52C864,1.86,866.75.89,869.52.18a2.68,2.68,0,0,1,2.65,1.16c.77,1-.29,1.55-.81,2.24C869.53,6,869.61,9,869,11.68c-1.81,7.83-3.87,15.63-4.35,23.72-.19,3.2-1.51,6.33.19,9.57.46.88-1.25,1.46-1.65,2.69A27.16,27.16,0,0,0,862.39,60c.12.94.11,2.55-.39,2.81-4.14,2.16.13,2.73.73,3.86.25.48,1.29.69,1.18,1.42-.14,1-.94.54-1.59.51-1.18-.06-1.43.94-1.62,1.78-.39,1.7,1.66,1,2.23,2.21-2.56.35-3.18,2.4-3.16,4.27,0,1.11,1.42-.16,2.5,0-2,3.94.66,7.92-.43,12a65.77,65.77,0,0,0-2.13,18.28c0,2.78,1,4.73,4,5.22h-.08c-.71,8.44-1.29,16.92-2.23,25.32-.74,6.6-1.22,13.24-2.07,19.84-.13,1-.21,2-.26,3,0,.67-.07,1.5.72,1.69,1,.27.73-1.15,1.41-1.48,2,3.94.36,8.09.81,12.09a22,22,0,0,0,1.51,5.6C864.49,179,864.5,177.07,865.5,177.56Z"/>
	<path d="M1014.06,96c1.13.83,2.18,1.52,2.13,3.31,0,.58-.2,3.67,2.51,2.22a1,1,0,0,1,1.4-.13c3.89.8,5.55,3.94,7.55,6.88a15.07,15.07,0,0,0,11.15,6.54c.72.09,2.47-.51,1.91,1.33-.27.89.62,2.15-1.63,2.57-6.29,1.19-12.62,2.3-18.88,3.72-4.69,1.07-9.39,2.72-14.1,3-4.52.26-8.27-2.7-10.94-6.54-2.47-3.57-4.78-7.27-7.83-10.43a6.92,6.92,0,0,1-1.62-2.88,19.67,19.67,0,0,0-7.84-11.23,7.13,7.13,0,0,1-3-5.76,11.36,11.36,0,0,0-1.22-4.15c-.84-2-2.15-2.48-3.66-.47-.23.46-.53.8-1.13.58-2.51,1-2.26,3.57-3.12,5.43-3.69,8-8,15.79-9.14,24.72-.47,3.77-1.23,7.62.52,12-3-2.71-3.1,1.74-5.16,1.38.47,2.05-1.28,1.37-2.07,1.5a13.46,13.46,0,0,0-5.31,2.35,13.28,13.28,0,0,1-9.44,1.68c-2.8-.51-2-3.69-2-5.68a30.3,30.3,0,0,0-.2-4.35c-.2-1.54-1.21-3.77,1.37-5,.51-.23-.43-3,.2-3.56,3.68-3,2.62-7.83,4.69-11.51a35.67,35.67,0,0,0,2.83-7.14,32.07,32.07,0,0,1,3.16-7.65c3.61-5.82,4.93-12.58,8.52-18.41,2.39-3.87,3.56-8.51,4.54-13.05.14-.62-.15-1.34.64-1.73,4.64-2.22,8.73-5.48,14.44-5.39,3.34.05,6.81-1.6,10.15-2.06s7.17.17,10.51-.67c2.57-.65,2.22,1,2.86,2a.92.92,0,0,1-.06.87c-3.29,3.14-.46,6.18.42,9,.63,2.05,1.86,3.9,2.2,6.18a11.11,11.11,0,0,0,1.63,3.92c.65,1,3.74,3.28-.38,4.31-.74.19-.43.91-.34,1.44s.54,1.2,1.1.93c3-1.46,3.07,2.55,5.19,2.67-.17,2.43,2.27,3.93,2.21,6.41,0,1.66,1.07,3,2.21,4.27.91,1,2.07,1.78,2.13,3.3C1014.19,93.64,1012.93,95.1,1014.06,96Z"/>
	<path d="M1784.55,49.53c0-1,1.14-2.37-.55-2.84-1.44-.4-1.83.75-2.27,1.85-.24.58-.9,1.45-1.32,1.42-3.56-.22-6.08,2.53-9.44,3.08a38.36,38.36,0,0,1-8.13.43c-1.25,0-3.23.73-3.37-.93s-1.23-3.72.82-5.28a138.84,138.84,0,0,1,20.59-13.47c3.17-1.63,2.89-4.36,2.62-6.84a32.71,32.71,0,0,1,.46-11.59c.53-2.11,1.6-3.39,3.86-3.37s4-1.1,6.09-1.53c5.41-1.15,10.68-.17,16,.08.43,0,1.23.15,1.23.26.2,4.37,3,1.81,4.48,1.46a43.26,43.26,0,0,1,15.22-.82c2.14.23,4.27-.84,6.84,0s3,1.42,1.83,3.45c-1.25,2.18-.57,2.82,1.73,2.54,1-.12,2,0,3-.09,1.4-.14,1.94,1.19,2.39,1.86.55.84-.9,1.24-1.62,1.67-2.87,1.74-5.29,3.67-5.88,7.39-.46,2.89-3.59,4.55-4.37,7.31-1.32,4.64-4.8,8.14-6.27,12.66-.75,2.33-3.94,1.62-4.91,4.18-.78,2.08-1.84,4.66-5.5,4-1.65-.3-2.7,2.37-3.9,3.81-1,1.21-3.23,2-1.13,4.19.43.44-.36,1.45-1,1.36-4-.58-6.81,2.37-10.17,3.62-5.77,2.14-11.34-.12-13-6.43a45.09,45.09,0,0,0-3.7-9.11C1784.59,52.58,1784.75,51,1784.55,49.53Z"/>
	<path d="M1240.45,131.7c-1.55.79-3.59.81-2.91,3.82.23,1-2.53,2.66-3.86,4.07-4.92,5.22-10,10.34-14,16.27-1.19,1.71-3.42,1.78-5,2-7.24,1-14.12,3.33-21.2,4.88-2.54.56-5,0-7.64-.47,4.12-2.35,5.47-7.41,10-9.35.9-.38,1-2.22,1.9-3,2.29-2.17,3.39-5.36,6.61-6.86,1.31-.6,3.26-2,3.09-4.34a1.44,1.44,0,0,1,.6-1.15c5.14-2.82,6.17-9.65,11.53-12.07,3-1.34,2.48-4.58,4.52-6.37,2.42-2.11,3.39-5.61,7-6.76a3.39,3.39,0,0,0,1.89-3.29,2.68,2.68,0,0,1,1.63-2.69c4.58-2.64,7.06-7.18,10.31-11,1.19-1.42,1.89-3.39,4.26-3.31.46,0,.75-.35.84-.87,1-5.78,5-7,10.13-6.53a3,3,0,0,0,.67,0c2.47-.58,1.71,1,1.55,2.26.73,2.67,2.06,0,3.06.35.65-.25.9,0,.83.65-.22.5-.77,1.17-.61,1.46,1.42,2.6-.64,4.26-1.82,5.88-1.61,2.19-3.09,4-.38,6.34.47.41,0,1-.3,1.09-2.52,1-3.06,4.55-6.22,4.48.06,1.73,2.65,1.06,2.14,2.16-.81,1.72-1.75,3.71-3.75,4.45-1,.37-1.72.39-.94,1.65.3.5.1,1.33-.45,1.42-2.76.5-4.07,2.36-5.65,4.51-.94,1.28-.65,2.67-1.54,3.71C1245.08,127.69,1243.88,130.72,1240.45,131.7Z"/>
	<path d="M380.42,103.25a2.87,2.87,0,0,1-1.47,2.67c-6.45,4.8-13.27,8.78-21.58,9.21-1.5.08-2.52,1.25-4.13,1.2-3.91-.11-8.15-3.72-8.63-7.57-.19-1.53-1.12-1.7-2.21-2a5.49,5.49,0,0,1-3.92-4.16c-1.91-7.13-3.8-14.22-5-21.55a128.35,128.35,0,0,1-1.26-25.82,3.88,3.88,0,0,1,2.22-3.74c3.88-1.91,7.79-3.8,11.82-5.37s4.92.29,5.63,4.2c.48,2.66.11,5.58,1.28,8,2.12,4.45,2.43,9.19,2.8,13.94a4.69,4.69,0,0,0,1.34,2.6c2.68,3.41,5.11,6.92,5.52,11.42a1.29,1.29,0,0,0,.41.9c4.76,2.78,5.19,8.46,8.3,12.36C373.85,102.45,376.28,104.57,380.42,103.25Z"/>
	<path d="M1954.73,58.87c10.33-1.56,21.92-.83,33.18,1.38,5.82,1.14,12.69.44,17.4,5.57.64.69,2.28.37,1.73,2.25a4.54,4.54,0,0,1-2.65,3.2c-.78.32-1.82,0-2.41.9-2,3.19-5,4.17-8.64,3.62-.71-.11-1.85-.12-2.07.74-1.12,4.27-4.17,2.3-6.65,2.14-.65,0-1.37-.48-1.93-.32-2.57.75-4.78,3.28-7.91,1.18-.56-.38-1.65.89-2.15,1.83a1.86,1.86,0,0,1-2,1c-.9-.16-1.12-1-1.1-1.84s.29-1.33-.85-1.79c-2.41-1-.82-2.82-.39-4.19.88-2.78,2.56-6.12.41-8.21s-5.72-1.63-8.7-1.1c-3.27.57-6.52,1.66-9.85,1-3.54-.67-6.49,1.86-10.05,1.36-2.62-.36-5.25-2.14-5.34-4.6,0-1.37,1.09-1.61,2-1.81A78.64,78.64,0,0,1,1954.73,58.87Z"/>
	<path d="M1306,65.78c0,2.61-2,2.62-3.62,2.58-4.68-.12-9.16,1.58-13.76,1.5-5.06-.09-10.26,1.81-15.19-.69a43.63,43.63,0,0,1-9.37-6.42,83,83,0,0,1-7.14-7.62c-.42-.49-1-1.23-1.47-1.22-1.13,0-2.48-.27-2.45-1.18,0-1.21,1.45-2,2.63-2.28,9.07-2.45,18.38-3,27.7-3.82,6.14-.57,9.35,1.83,12.52,6.32,2.76,3.88,6.28,7.22,9.46,10.81C1306,64.28,1306.81,64.76,1306,65.78Z"/>
	<path d="M1947.54,151.51c-5.51.52-11.23.79-16.73,2.3-3.34.91-6.61-.08-9.89.36a1.92,1.92,0,0,1-2.07-1.44,2,2,0,0,1,1.53-2.31c2.64-.79,5.28-1.6,8-2.22,7.44-1.71,14.68-4.17,22.2-5.7,2.94-.6,6.15-2.47,9-2.89,4-.58,7.55-2.25,11.31-3.32,5.2-1.47,10.48-2.62,15.49-4.78,2.52-1.09,5.54.32,8.18-.78,3.34-1.39,6.22.24,9.18,1.29,2,.69,1.42,1.8.07,2.54a108.24,108.24,0,0,1-18.16,7.68c-9.28,3-18.73,5.2-28.14,7.62C1954.32,150.68,1951.2,152.35,1947.54,151.51Z"/>
	<path d="M1311.86,58.44c-2.32.41-4.18-.34-5.07-2.93a1.91,1.91,0,0,0-1.17-1.14c-5.34-.57-5.1-6.55-8.68-8.87-1-.65,0-1.5.91-1.92,5.09-2.38,10.67-2.53,16.05-2.76,3.39-.15,6.84-.41,10.27-.43,2.61,0,5.24,1.08,7.87-.09a1.5,1.5,0,0,1,2,.88c1.39,3,3.56,5.89,2.34,9.42-.63,1.83,3.39,5.63-2.71,5.54-2.42,0-5.35,2.53-8.17,2.21-4-.46-7.84-1.8-11.74.27C1313.3,58.83,1312.62,58.53,1311.86,58.44Z"/>
	<path d="M1198,40c2.11.59,3.89-.68,5.83-1,4.05-.7,8.21-.53,12.25-.57,4.32-.05,8.68,1.45,13,2.51,1.45.36,2.36,1.48.3,2.6,2.33,2.54-.79,3.55-1.68,4.81-1.53,2.14-2.65,5-6.63,4.37-4.26-.63-8.3,1.78-12.59,2.35-3.5.48-5.51-1.3-7.62-2.94-2.52-2-4.6-2.85-8.11-2.35-4,.56-8.59,2.09-12.5-1.63-1.83-1.74-1.43-2.72.14-3.54,3.48-1.82,7.07-3.78,11-4C1193.64,40.52,1195.78,39.54,1198,40Z"/>
	<path class="cls-1" d="M1169.27,105.08c7.06-7.06,15.67-10.86,24.79-13.81a136.94,136.94,0,0,1,26.33-5.33,75.23,75.23,0,0,1,12.84-.19c.75,0,1.77-.11,1.76,1,0,.85-.77,1.28-1.6,1.47-3.69.84-7.37,1.68-11.05,2.55-4.39,1-9.07,1.09-13,3.73-1.92,1.28-3.43,3.46-5.94,3.52-3.92.09-7.29,1.68-10.6,3.46-1.6.85-3.29.62-4.92.76-3.89.34-7.27,2.41-11,3.36C1173.82,106.4,1171.81,104.18,1169.27,105.08Z"/>
	<path class="cls-1" d="M1159,102.19c-9.71,4.35-20.29,4.87-30.53,6.81-8.25,1.57-15.64,5.31-23.33,8.29a45,45,0,0,1-11.87,2.61,2.45,2.45,0,0,1-2.77-2c-.24-1.65,1.38-1,2.15-1.41,2.75-1.45,5.49-2.89,8.26-4.29,10.59-5.35,22.15-7.43,33.56-10.15,6.31-1.51,12.66-1.92,19-2.68,2.51-.55,5-.18,7.57-.24,1.62,0,1.59.75.78,1.82l-.13-.17.15.16C1161.11,101.88,1159.83,101.53,1159,102.19Z"/>
	<path class="cls-1" d="M2072.92,11.84c7.87-.32,15.66.61,23.43,1.64,2.84.37,5.33,2.27,8.51,1.83,1.1-.15,3,1.22.79,2.89-.62.47-1.11,1.33-1.78,1.48-5.24,1.13-10.12,3.36-15.91,2.74-4-.44-7.83-2.13-11.89-1.92-2.56.12-5.08.3-7.66.25-2.43-.05-2.55-2.92-4.82-2.76-.49,0,1-5,2-5.47C2068,11.48,2070.47,11.91,2072.92,11.84Z"/>
	<path class="cls-1" d="M1266.15,87.84l-.83-.65c1.86-3.26,3.32-6.78,6.28-9.3,1.26-.08,1.06.61.72,1.37-.13.42-.24.84-.39,1.25-.28.75,1.09,2.77-1.44,1.87-.14,0-.72.75-.88,1.22C1269,85.46,1267.49,86.58,1266.15,87.84Z"/>
	<path class="cls-1" d="M1262.26,86.84c-.19-1,0-2.18-1.55-2.26,1.35-1.77,1.84-4.32,4.82-5C1265.6,82.65,1262.62,84.2,1262.26,86.84Z"/>
	<path d="M1479,74c-2.59-.18-1-1.87-1.23-3-.51-3,.77-5.67.81-8.53.12-7.65.08-15.31.37-22.95.11-2.77-1.69-5.7-.67-7.92,1.55-3.38.28-6.21.08-9.34s-1.85-6.34-.05-9.45c1.72-3,1.07-4.68-2.28-5.45-2.72-.61-5.54-.4-8.3-.6-12.14-.89-24.1,1.08-35.79,4-11.17,2.79-22.22,6.26-32.4,11.9-1.65.91-3.18,1.45-3.87-1.05-.25-.9-.82-.79-1.54-.74-7.84.51-15.55,1.36-23.05,4.08-2.81,1-3.78,2.34-3.93,4.89-.25,4.07,0,8.16-.66,12.21-.17,1,0,2.39,1,2.62,1.91.44,1.54,1.82,1.38,2.86-.9,5.74.27,11.66-1.33,17.28-.73,2.56,1.8,4.13.92,6.81-2,6,.1,12.46-1.71,18.6-.48,1.62,1.58,3.2,1.17,5.07-.72,3.31,0,7-1.09,10s3.23,5.84-.05,8.61c-.2.17.52.87.52,1,0,2.34,2.38,4.5,1.78,6.24-1.12,3.23-.59,6.3-.82,9.45a117.43,117.43,0,0,0,0,14.29c.14,2.92-1.62,5.94-.08,8.61,1.77,3.09,2.14,6.59,3.38,9.63,1.36.32,1.9-2.14,2.91-.88a4.23,4.23,0,0,1,.63,3.79,10.93,10.93,0,0,0,.6,7.81c1.07,2.57,1.94,4.8.76,7.45-.47,1-.51,2,.92,2.24a2.53,2.53,0,0,1,2.08,1.52c1,2.58,2.86,1.93,4.91,1.93,4.12,0,7.72-3,12-1.81a2.31,2.31,0,0,0,2.13-.82,2.65,2.65,0,0,1,2.78-.7c3.21.89,4.56-1.72,6.36-3.44.37-.34.82-1.23.18-1.39-3.26-.82-1.58-2.85-1.24-4.56.56-1-1.45-.93-.75-1.94a54.88,54.88,0,0,0,7-2.11c3.18-1.41,6.85-1.28,9.8-2.63,6.23-2.84,12.35-5.93,18.81-8.24,2.94-1,3.81-.37,3.54,2.8-.2,2.44,1.06,3.59,3.51,2.93,3-.79,6-.78,9-1.43,5.52-1.18,11.25-1.39,16.9-2a1.69,1.69,0,0,0,1.59-1.84c0-2.11,0-4.22,0-6.34,0-7-.66-14,.1-20.93.6-5.42-.54-10.93,1-16.21.71-2.43-2.78-2.47-2.14-3.82.74-1.56,2.27-2.47,2.47-4.7.61-7-.19-14,.62-20.93,0-1.46-2.39-2.44-.8-4.2,2.83.2.69-2.41,1.86-3.26C1481.69,77.56,1477.73,75.86,1479,74Zm-34.27,76.43c-.71,2.57-1.75,4.59-5,4-2.14-.37-3.81,1.31-5.76,1.53-5.64.61-10.65,3.4-16.21,4.38-2.68.48-5.24,1.83-8.1,1.85-3.78,0-6.33,3.1-9.77,3.95-.42.11-.85.18-1.47.31a167.86,167.86,0,0,1-.08-35.5c.38-3.32-.24-6.65.51-10,.36-1.57,1-2.72,2.29-2.91,6.55-1,12.54-4.3,19-5.24,6.64-1,12.3-5.1,19.18-5,2.51,0,3.81.22,2.62,3.07-.84,2,.21,4,.24,5.93.08,5.81-.53,11.59.2,17.47.29,2.27-.49,5.14-.54,7.79,0,1.07-.14,1.72.91,2.49,2.6,1.93,0,1.76-1.83,2.34C1443.38,147.49,1445.53,147.72,1444.77,150.45Zm-44.69-46.29c-.22-2.33.06-4.49,3.53-4.14,2.51.25,4.84-1.2,7.35-1.61,2.12-.34,3.71-1.36,6.12-.13.94.49,3.45-2,5.17-3.17.33-.23-2.08-3.19-3-3.6,1-2.66,5.19-2.15,5.62-5.45,2-.58,2.68-2.76,4.52-3.48,3.42-5.23,8.55-5.39,13.83-4.41,1.29,6.25-.37,12.82.44,19.36.13,1.08.13,2.08-1.64,2.19a96.29,96.29,0,0,0-35.5,9.15c-1.6.77-3.31,1.29-5,2-.72.31-1.41.86-2.11.06-.56-.64-.08-1.19.18-1.81A10,10,0,0,0,1400.08,104.16Zm44.23-39.24c0,2.92-2.12,4.06-5,4.51a140.78,140.78,0,0,0-27.07,6.77c-4.28,1.57-8.75,2.66-13,4.69a2.72,2.72,0,0,1,.39-3,72.44,72.44,0,0,1,2-10.56c-.14-.26.89-.34.1-.72-1.41-.42-.85-1.36-.6-2.22-1-5.69,1.24-11.34.24-17-.09-.55.07-1.14-.07-1.67-.28-1.07-1.92-2.54-.33-3.09s4-2,5.52,0c1.13,1.5,2,.56,2.29,0,2.14-3.92,5.84-3.54,9.4-3.65-.15-.47,1.79-1,0-1.43a16.15,16.15,0,0,1-1.55-.62c-1.59-.85-4.49.22-4.71-1.84-.1-.89,3-2.63,4.9-3.07,1.63-.38,2.33-1,2.63-2.4a4.85,4.85,0,0,1,2.42-3c3.63-2.54,6.9-5.49,11-7.44,4.32-2,5.17-1.94,6.15,2.79s2.38,9.71,1.87,14.6a16.86,16.86,0,0,0,2.37,11.1,4.1,4.1,0,0,1,.63,3.5c-.77,2.41-1.63,4.41,1,6.78C1446,58.83,1444.3,62.41,1444.31,64.92Z"/>
	<path d="M1892.45,71.56c-.33-1.63-2.45-1.5-3.91-2a60.73,60.73,0,0,0-13.15-2.37,118.59,118.59,0,0,0-24.05,0c-7.26.88-14.38,2.91-21.54,4.54-5.91,1.35-11.45,3.89-17.22,5.73-3.85,1.23-7.51,3.27-11.53,4.26a4.6,4.6,0,0,0-1.84.78c-3.78,3.26-7.89,3.58-12.35,1.6-.59-.26-1.39,0-2-.33-2.34-1.16-4.41,1.26-6.34.68-4.9-1.46-9.69-.56-14.38.31-2.2.41-5.57.8-5.73,4.51-.28,6-.63,12-.9,18-.08,1.68-.37,3.75.89,4.83,3.16,2.72,2.9,6.23,3,9.76a4.68,4.68,0,0,0,1,3c1.62,2.12,3,4.57,2.61,7.51-.17,1.24-.33,2.91.7,3.42,1.63.81,1,1.82,1.35,3,.5,2-1.74,5.14,2,5.94,2.3-.33.9-1.83.92-2.89a3.53,3.53,0,0,1-.35-.93c-.06-1.51.09-3.32,1.73-3.58s1.22,1.63,1.59,2.66a3.28,3.28,0,0,0,.62,1.09c2.77,3.15,2.69,6.79,2,10.87,1.09-.1,1.72.77,2.65,1.67,2.65,2.55,1.92,6.35,4.39,9,2.11,2.25,4.72,4.41,7.11,4.45,3.75.06,7.52.26,11.29.29,1.52,0,3-.76,4.6-.26a1.94,1.94,0,0,0,2.23-1.61c-.08-1.43-1.45-2.37-2.63-3.14-.81-.53-1.64-1-1.26-2a2.16,2.16,0,0,1,2.32-1.58c5,.73,9.85-1.77,14.87-.58a4.91,4.91,0,0,0,2.31-.29c6.07-1.75,12.76,0,18.56-3.24a.53.53,0,0,1,.33,0c5.91,1.31,11.3-1.73,17-2.08a3.18,3.18,0,0,0,2.19-1.43c1.65-2.12,3.2-4.36,6-5.16.76-.21.64-.86.81-1.53,1-3.87.47-8.73,6-9.87a1,1,0,0,0,.54-.34c1.11-1.39,2.5-8.37,2.15-10.41,0-.3.17-.64.25-1,.65-2.7,1.2-5.42,2-8.07.58-2,1.11-4.27,4.08-3.79a1.67,1.67,0,0,0,1.87-1.53c.81-5.29,3.09-10.18,4-15.4.36-2,2-4.22-.61-6.19-.77-.59,0-1.87,1.24-2.09s2.16-1,2.14-2.19a11.07,11.07,0,0,1,1.18-4.45C1894.46,76.49,1892.94,74,1892.45,71.56Zm-80.92,69.37c-.77,3.8-2.94,6.65-4.89,9.72-1.22,1.91-3.34,2.12-5.3,2.18-1.7.06-1.38-1.71-1.82-2.74-2.25-5.37-3.22-11.06-4.18-16.75-.47-2.85.75-4.7,3.76-4.72,4.12,0,7.61-1.87,11.27-3.25,1.94-.73,4.25.3,4.16,2.77C1815.14,132.34,1812.44,136.44,1811.53,140.93Zm-.13-28.3a41.17,41.17,0,0,0-12.86,5.47c-1.54.93-3.3,2.17-5.16.88-1-.69-1.17-7.58-.35-7.68,5-.62,1.89-3.33,1.5-5.26a2.34,2.34,0,0,1,1.1-2.57,18.92,18.92,0,0,1,2.29-2c1.58-.86,2.25-4,5.16-2.07.26.17,2.48-.8,3.18-2s2.29-1.7,3.48-2.46a1.18,1.18,0,0,1,2,1c-.57,4.38,4,7.52,2.61,11.77C1815.36,110.74,1814.16,112.05,1811.4,112.63ZM1853.17,100c-.61,1.64-1.45,3.43-.73,5.18s-.17,2.73-1.32,3.71c-1.36,1.25-.37,1.95.62,2.64-1.92,4.75-2.84,9.87-5.26,14.45a7,7,0,0,0-1,3.15c0,2.23-1,3.9-2,5.73-1.44,2.57-2.52,5.34-3.81,8-.39.8-1,1.7-2,1.55-1.35-.21-.79-1.52-.74-2.22a20.86,20.86,0,0,1,4.3-11.09c.64-.86,1.34-1.49.91-2.55-1.49-3.69.24-7.09,1.42-10.28,1.49-4-.29-7.67-.15-11.49,0-.2-.11-.58-.22-.6-6-1.23-1.75-6.26-3.33-9.17-.61-1.13.43-3.56-.29-4.13a11.85,11.85,0,0,0-5.31-1.79c-3.17-.5-6.39-.69-9.58-1-.64-.07-1.46.15-1.8-.57-.43-.91.47-1.38.86-2,1.65-2.63,4.68-3,7.17-3.69,2.14-.58,3.85-1.78,5.85-2.46,4.78-1.63,9.31-3.92,14.22-5.2,2.26-.59,3.06-.06,3.46,2.41.75,4.6.61,9.12.66,13.7C1855.09,95.43,1854.1,97.51,1853.17,100Z"/>
	<path d="M310.18,228.31c-2.36-3.18-4.3-6.67-6.77-9.69-1.5-1.82-1.48-4.75-4.13-5.67-.11,0-.18-.43-.14-.63.64-3.87-3-6.08-3.7-9.44a1.42,1.42,0,0,0-1.51-1.09c-1,.09-1.15-.42-.77-1.21.83-1.67-.39-1.6-1.47-2.08-.89-.39-2.33.08-2.71-1.45-1-4-1.67-8.2-4.69-11.37a2.3,2.3,0,0,1-.7-1.39c-.19-1.29-.71-1.93-2.26-2.26-3.77-.8-4.57-3.26-2.33-6.55.64-.93.92-1.82-.24-1.89-2.93-.15-2.32-1.88-3-4-2.37-7,4.78-9.92,5.5-15.37,4.82-1.86,3.22-8.51,7.86-10.52.22-.09.31-.59.36-.91.82-6.2,5.33-10.75,7.32-16.45,1.78-5.09,5.77-9.18,7.22-14.72a10.52,10.52,0,0,0-4.65.37c-4.11,1.41-8.12,3-12.14,4.63-9.7,3.91-19.37,7.86-28.7,12.59-3.76,1.9-6.12.73-6.87-3.4s-.5-8.61-5.59-10.33c-.22-.08-.31-.56-.46-.85a33.86,33.86,0,0,1-3.7-10.16c-.4-2.35-1.77-3.36-4.53-3.28-6.79.2-12.23,3.54-17.88,6.63-2.52,1.37-2.71,3.07-2,5.46a248.41,248.41,0,0,1,6.26,24.61c.25,1.27.35,2.83,2.37,2.58.81-.11,1.69,0,1.91.93.26,1.15-.7,1.44-1.51,1.88-2.64,1.4-5.29,2.78-7.84,4.33-5.91,3.59-12.41,6.14-18.06,10.2-1.8,1.3-4.66,2.48-3.3,4.93s4.38,1,6.42.23c8-3,15.09-7.9,22.57-12,2.29-1.25,4.33-.68,5.2,1.82,1.37,3.92,2.66,7.88,3.9,11.85.24.75.15,1.57,1.1,1.88,2.38.76,4,1.55,4.61,4.76a32.62,32.62,0,0,0,4.19,10.38c.65,1.09,2.34,2.65,2.05,4.56-.51,3.31,2.1,5.49,3.41,8,1.88,3.56,4.27,7,6,10.6a128,128,0,0,0,7.62,14.2c1.42,2.14,1.47,4.91,4.22,6.67,2.46,1.58,5.48,3.24,6.82,6.29,1.92,4.36,7,5.72,9.29,9.75.67,1.15,2.61.31,2.9-.44.69-1.84,1.66-1.64,3.07-1.19a2,2,0,0,0,2.15-.71c1.6-2.13,3.24-3.62,6.33-3.5,2.12.09,4-1.81,6.42-2C308.36,233.7,311.27,229.78,310.18,228.31ZM271.4,147.52c-1,1.81-1.66,4-4,4.72-1.66.53-.15,2.34-1.34,3.15-3.86-1.82-3-5.73-4.36-8.63-.29-.64.06-2.42-1.75-1.06-.83.62-1.66-.33-2.05-1.19-2.11-4.5-.34-7.4,4.14-10,4.75-2.74,10.27-3.6,14.77-6.75.78-.55,1.9-1.11,2.77-.31s.13,1.66,0,2.54C278.49,136.62,274.62,141.92,271.4,147.52Z"/>
	<path d="M780.23,109.9c-1.18,2-1.36.53-1.69-.37-1-2.84-.59-5.89-1.16-8.77-.43-2.2-.54-3.59,2.25-3.3-.67-3.65-3.32-6-5.77-7.51-3.44-2.07-7.73-2.77-11.7-3.9-3.69-1-7.54-.47-11.3-.62-4.51-.17-9.05.21-13.58.42-5.55.27-10.44,2.8-15.78,3.7-10.61,1.78-20.65,5.53-30.29,10.09a186,186,0,0,0-21.8,12.29c-8.18,5.32-16,11.17-23.8,17.11a55,55,0,0,0-8.8,8.54c-3.54,4.27-6.25,9.18-10.28,13.06-1.74,1.66-.82,4.58,1.12,6.39,2.28,2.11,5.15,1.94,7.77,2.5,5.11,1.11,10.33.85,15.52.27,5.58-.63,10.06-3.9,15-6a64.18,64.18,0,0,0,24.93-17.92,5.51,5.51,0,0,0,1-1.3c1.16-2.85-.11-6.79,3.8-8.4,1.94-6.32,3.79-12.66,5.87-18.93.82-2.45,1.57-5.71,3.43-6.84a24.32,24.32,0,0,1,8.65-3.19,94.72,94.72,0,0,1,14.85-1.49,29.44,29.44,0,0,1,16.9,4.88c4.08,2.77,6,7.15,6.24,12.49.25,6.05.4,11.79-1.83,17.68a145.43,145.43,0,0,1-7.59,17.1c-1.51,2.85-2.08,6.68-4.4,8.45-3.72,2.85-2.13,8.3-6.22,10.56-.13.07.25.84.16,1.23-.59,2.49-1.14,5-1.91,7.44-.27.83-1.94,1.37-1.08,2.43s2.18.48,3.17.1c2.59-1,5-2.34,8-1.71.8.17,1.4-.54,2.08-.92,2.07-1.18,4.3-2.42,6.69-2.11,1.7.22,2.35-.55,3.34-1.49,2.55-2.45,3.47-6.18,6.59-8.18.4-.26.54-.93.75-1.42,1.69-3.95,3.61-7.73,7-10.58.33-.28.94-.68.88-.9-.75-3.15,2.18-4.71,3.42-6.7a85.68,85.68,0,0,0,7-13.36,3.39,3.39,0,0,0-.35-3.17c-1.19-2-.09-4,2.26-4.48.81-.16,1.79-.18,1.5-1.26-1-3.87-.15-7.61.42-11.4C781.76,109.38,780.8,108.92,780.23,109.9ZM674.7,129.48c-.59,3.76-2.38,6.92-3.62,10.16-1.62,4.21-5.55,7.56-9.6,9.88-1.44.82-4.06-.25-6.09-.69a12.52,12.52,0,0,0-5.31-.25,2.65,2.65,0,0,1-3.28-3.45,28.1,28.1,0,0,1,7.94-12.89,106.26,106.26,0,0,1,15.64-12.48c3.19-2.08,6-4.71,10.2-6.69C678.31,119.1,675.54,124.14,674.7,129.48Z"/>
	<path d="M1095.24,51.47c-.55.09-.14-.92-.26-1.37-1-3.67.23-7.75-2.08-11.17.65-.64,2.23-.7,1.39-2.25-2.66-1.75-4.73-4.28-7.87-5.38-8.32-2.92-16.91-2.3-25.35-1.55-7,.62-13.46,3.42-19.87,6.36-6,2.78-9.06,7.87-10.11,13.6-1.16,6.33-4,12.57-2.51,19.26.63,2.75,0,6.21,2,8.07a14.88,14.88,0,0,1,3.34,5.5,13.46,13.46,0,0,0,6.43,7c3.9,2.15,8.23,1.27,12.34,1.07,1.84-.09,3.9.82,5.56-.29,3.43-2.28,7.54-1.81,11.17-3.06,4.12-1.42,8.76,0,12.59-2.57,1.62-1.07,2.34-3.21,4.84-3.29,2.12-.07,2.68-2,1.31-3.75-.4-.49-1.3-1.28-.54-1.45,2.87-.62,3.35-2.29,2.81-4.78a1.34,1.34,0,0,1,.64-1.08c2.62-1.34,3-4.23,4.07-6.46.52-1.12,2.58-1.28,1.83-2.62-1.16-2.09-.32-3.87.23-5.77C1095.06,54.88,1100.74,50.52,1095.24,51.47Zm-21.41,5.4c-1.16,6.19-5,10.78-7.63,16.06-1.21,2.4-4.47,1.93-5.84-.74-1.54-3-1.4-6.42-2.15-9.55-1.66-.4-.45,2.25-1.76,1.65s-.42-1.67,0-2.59c1.13-2.48-1-4.84-.27-7.4.54-1.92-.22-4,1.1-6,1.55-2.28,3.07-4.18,6.65-3a11.81,11.81,0,0,0-4.79-4.84c2.71-2,9.06-2.12,10.85.32A19.74,19.74,0,0,1,1073.83,56.87Z"/>
</svg>